<svg width="48" height="48" viewBox="0 0 48 48" fill="none" xmlns="http://www.w3.org/2000/svg">
<circle cx="24" cy="24" r="9" fill="#FF7A61"/>
<rect x="22.7144" y="11.1426" width="5.14286" height="2.57143" rx="1.28571" transform="rotate(-90 22.7144 11.1426)" fill="#FF7A61"/>
<rect x="22.7144" y="42" width="5.14286" height="2.57143" rx="1.28571" transform="rotate(-90 22.7144 42)" fill="#FF7A61"/>
<rect x="42" y="25.2852" width="5.14286" height="2.57143" rx="1.28571" transform="rotate(180 42 25.2852)" fill="#FF7A61"/>
<rect x="31.7144" y="14.0566" width="5.93886" height="2.57143" rx="1.28571" transform="rotate(-45 31.7144 14.0566)" fill="#FF7A61"/>
<rect width="5.93886" height="2.57143" rx="1.28571" transform="matrix(-0.707107 -0.707107 -0.707107 0.707107 15.875 14.0566)" fill="#FF7A61"/>
<rect width="5.93886" height="2.57143" rx="1.28571" transform="matrix(0.707107 0.707107 0.707107 -0.707107 31.7144 33.5332)" fill="#FF7A61"/>
<rect x="15.875" y="33.5332" width="5.93886" height="2.57143" rx="1.28571" transform="rotate(135 15.875 33.5332)" fill="#FF7A61"/>
<rect x="11.1431" y="25.2852" width="5.14286" height="2.57143" rx="1.28571" transform="rotate(180 11.1431 25.2852)" fill="#FF7A61"/>
</svg>
