<svg width="100" height="100" viewBox="0 0 100 100" fill="none" xmlns="http://www.w3.org/2000/svg">
<path d="M34.1573 16.2224C34.1573 14.5649 32.8148 13.2224 31.1573 13.2224H19.5898C17.9323 13.2224 16.5898 14.5649 16.5898 16.2224V18.8274H34.1573V16.2224Z" fill="#8595AA"/>
<path d="M49.9995 38.5801C41.1895 38.5801 34.0195 45.7501 34.0195 54.5626C34.0195 63.3751 41.187 70.5401 49.9995 70.5401C58.812 70.5401 65.9795 63.3726 65.9795 54.5626C65.9795 45.7526 58.812 38.5801 49.9995 38.5801ZM49.9995 62.5601C45.5895 62.5601 42.002 58.9701 42.002 54.5601C42.002 53.4976 42.2195 52.4901 42.597 51.5626C41.757 50.9801 41.1695 50.0551 41.1695 48.9576C41.1695 47.1776 42.617 45.7276 44.397 45.7276C45.4945 45.7276 46.4195 46.3126 47.002 47.1551C47.9295 46.7776 48.9395 46.5601 49.9995 46.5601C54.4095 46.5601 57.9995 50.1501 57.9995 54.5601C57.9995 58.9701 54.412 62.5601 49.9995 62.5601Z" fill="#333D4B"/>
<path d="M84.25 18.8274H76.6375L77.69 26.0924C78.0125 28.3224 79.36 30.0724 81.05 30.4499L88.3925 32.0974C89.0125 32.2374 89.4525 32.7874 89.4525 33.4224C89.4525 34.0574 89.0125 34.6099 88.3925 34.7474L81.05 36.3924C79.3625 36.7699 78.0125 38.5224 77.69 40.7474L76.3675 49.8974C76.2725 50.5649 75.6975 51.0599 75.025 51.0599C74.3525 51.0599 73.7775 50.5649 73.6825 49.8949L72.3625 40.7474C72.04 38.5199 70.69 36.7699 69.0025 36.3924L61.66 34.7474C61.04 34.6074 60.6 34.0574 60.6 33.4224C60.6 32.7874 61.04 32.2349 61.66 32.0974L69.0025 30.4499C70.6925 30.0724 72.04 28.3199 72.3625 26.0949L73.4125 18.8274H15.75C10.2275 18.8274 5.75 23.3049 5.75 28.8274V79.1649C5.75 84.6649 10.25 89.1649 15.75 89.1649H84.25C89.7725 89.1649 94.25 84.6874 94.25 79.1649V28.8274C94.25 23.3049 89.7725 18.8274 84.25 18.8274ZM50 74.2874C39.12 74.2874 30.27 65.4374 30.27 54.5599C30.27 43.6824 39.12 34.8274 50 34.8274C60.88 34.8274 69.73 43.6799 69.73 54.5599C69.73 65.4399 60.88 74.2874 50 74.2874Z" fill="#4E5968"/>
<path d="M50 46.5574C48.94 46.5574 47.93 46.7749 47.0025 47.1524C47.365 47.6749 47.625 48.2724 47.625 48.9549C47.625 50.7349 46.1775 52.1824 44.3975 52.1824C43.715 52.1824 43.1175 51.9224 42.595 51.5599C42.2175 52.4874 42 53.4974 42 54.5574C42 58.9674 45.5875 62.5574 49.9975 62.5574C54.4075 62.5574 57.9975 58.9674 57.9975 54.5574C57.9975 50.1474 54.4125 46.5574 50 46.5574Z" fill="#4E5968"/>
<path d="M47.6249 48.9551C47.6249 48.2726 47.3649 47.6751 47.0024 47.1526C46.4199 46.3126 45.4949 45.7251 44.3974 45.7251C42.6174 45.7251 41.1699 47.1726 41.1699 48.9551C41.1699 50.0526 41.7574 50.9776 42.5974 51.5601C43.1199 51.9226 43.7174 52.1826 44.3999 52.1826C46.1799 52.1826 47.6274 50.7351 47.6274 48.9551H47.6249Z" fill="white"/>
<path d="M49.9995 34.8301C39.1195 34.8301 30.2695 43.6826 30.2695 54.5626C30.2695 65.4426 39.1195 74.2901 49.9995 74.2901C60.8795 74.2901 69.7295 65.4401 69.7295 54.5626C69.7295 43.6851 60.8795 34.8301 49.9995 34.8301ZM49.9995 70.5376C41.1895 70.5376 34.0195 63.3701 34.0195 54.5601C34.0195 45.7501 41.187 38.5776 49.9995 38.5776C58.812 38.5776 65.9795 45.7476 65.9795 54.5601C65.9795 63.3726 58.812 70.5376 49.9995 70.5376Z" fill="#D0D6DE"/>
<path d="M89.4496 33.4249C89.4496 34.0499 88.9996 34.5999 88.3996 34.7499L81.0496 36.3999C79.3496 36.7749 77.9996 38.5249 77.6996 40.7499L76.3746 49.8999C76.2746 50.5749 75.6996 51.0749 75.0246 51.0749C74.3496 51.0749 73.7746 50.5749 73.6746 49.8999L72.3496 40.7499C72.0246 38.5249 70.6746 36.7749 68.9996 36.3999L61.6496 34.7499C61.0496 34.5999 60.5996 34.0499 60.5996 33.4249C60.5996 32.7999 61.0496 32.2499 61.6496 32.0999L68.9996 30.4499C70.6996 30.0749 72.0246 28.3249 72.3496 26.0999L73.3996 18.8249L73.6746 16.9499C73.7746 16.2749 74.3496 15.7749 75.0246 15.7749C75.6996 15.7749 76.2746 16.2749 76.3746 16.9499L76.6246 18.8249L77.6996 26.0999C77.9996 28.3249 79.3496 30.0749 81.0496 30.4499L88.3996 32.0999C88.9996 32.2499 89.4496 32.7999 89.4496 33.4249Z" fill="#FFE63B"/>
</svg>
