<svg width="60" height="60" viewBox="0 0 60 60" fill="none" xmlns="http://www.w3.org/2000/svg">
<g clip-path="url(#clip0_263_2646)">
<path d="M30 4.233C15.5025 4.233 3.75 14.754 3.75 27.732C3.75 32.913 5.6385 37.6905 8.817 41.5725C9.981 42.9945 10.5135 44.829 10.1625 46.632L8.73 53.9775C8.49 55.2105 9.78 56.175 10.8945 55.5945L19.614 51.0555C20.8455 50.415 22.263 50.2065 23.6175 50.514C25.6605 50.9775 27.7965 51.231 30 51.231C44.4975 51.231 56.25 40.71 56.25 27.732C56.25 14.754 44.4975 4.233 30 4.233Z" fill="#E2E5E8"/>
<path d="M37.6607 33.6654C37.0566 33.4522 36.7724 32.9015 37.0033 32.3863C38.5668 28.833 40.3434 24.1606 40.8408 22.9703C41.2672 21.851 41.8179 21.4068 42.5819 21.4068C43.3458 21.4068 43.7544 21.7089 44.3585 22.9347C44.9625 24.1428 47.5564 31.0005 47.8584 31.9066C48.1782 32.8126 47.9295 33.4344 47.3787 33.5943C46.828 33.772 46.064 33.7898 45.7265 33.0969C45.3711 32.404 44.9803 31.4624 44.7138 30.9117C44.5184 30.5208 44.3585 30.4853 43.7722 30.4853C43.1859 30.4853 41.3738 30.5386 41.0362 30.5386C40.7164 30.5386 40.4677 30.6096 40.2012 31.1426C39.9347 31.6934 39.4906 32.5639 39.2063 33.0436C38.9398 33.5233 38.2647 33.8786 37.6607 33.6654ZM41.4093 27.8381C41.3027 28.1046 41.3738 28.2823 41.7113 28.3178C42.0667 28.3178 43.3103 28.3001 43.559 28.2645C43.79 28.229 43.7189 28.0513 43.6301 27.8381C43.3813 27.1808 42.8661 25.4042 42.5996 24.7113C42.5463 24.5514 42.4753 24.5692 42.422 24.7113C42.1022 25.5286 41.8535 26.6478 41.4093 27.8381Z" fill="#333D4B"/>
<path d="M28.6658 34.4642C27.4577 34.4642 24.8994 34.1977 24.8994 30.5557C24.8994 28.7968 25.6811 28.2283 26.6938 27.4644C26.8181 27.3756 26.9603 27.269 27.0846 27.1624C26.8004 26.7538 26.5517 26.3629 26.3918 26.0076C26.1075 25.4035 25.9831 24.6751 25.9831 23.6802C25.9831 22.6853 27.4222 20.7666 29.6252 20.7666C31.2597 20.7666 32.6987 22.1524 32.6987 23.8579C32.6987 24.9949 32.0414 26.0609 31.0287 26.7005C30.7089 26.9136 30.4069 27.1091 30.1582 27.3045C30.5668 27.8197 31.0109 28.3172 31.4195 28.6903C31.7749 29.01 32.2013 29.3476 32.6632 29.7207C32.9297 29.4542 33.1784 29.1877 33.3916 28.9567C33.818 28.5837 34.5108 28.3172 34.9195 28.7258C35.3281 29.1344 35.4169 29.6319 34.8839 30.2359C34.7063 30.4313 34.5108 30.68 34.2799 30.9643C34.724 31.3196 35.2037 31.6927 35.6656 32.0836C36.1098 32.4389 36.2341 33.2739 35.8433 33.5759C35.4524 33.8779 35.1504 34.0911 34.2443 33.5581C33.9068 33.3627 33.3916 33.0074 32.7875 32.5632C32.6809 32.6698 32.5566 32.7764 32.45 32.8653C31.4195 33.718 30.5312 34.4642 28.6658 34.4642ZM27.1202 30.7156C27.1202 31.4618 27.8663 32.2968 28.9145 32.2968C29.7673 32.2968 30.5135 31.746 31.082 31.2663C30.549 30.8399 30.0338 30.3958 29.6074 29.9872C29.2521 29.6319 28.7902 29.1699 28.3105 28.6547C27.6176 29.1344 27.1202 29.6674 27.1202 30.7156ZM28.2927 23.9645C28.2927 24.6396 28.3638 25.0305 28.7546 25.5279C28.8079 25.599 28.879 25.6878 28.9501 25.7944C29.2699 25.5634 29.5541 25.3502 29.8028 25.1548C30.3891 24.6929 30.5845 24.0889 30.5845 23.6625C30.5845 23.3071 30.247 22.6143 29.5363 22.6143C28.8257 22.6143 28.2927 23.2894 28.2927 23.9645Z" fill="#333D4B"/>
<path d="M22.9841 34.3946C22.5755 34.8032 21.8471 34.7855 21.3319 34.3768C21.1542 34.2169 20.7633 33.8083 20.3014 33.2931C19.5908 33.6662 18.7736 33.8616 17.8675 33.8616C15.2914 33.8616 12.2534 31.6764 12.2534 27.8389C12.2534 24.9431 13.8168 21.5853 17.9918 21.5853C20.8699 21.5853 23.2861 23.504 23.2861 27.8389C23.2861 29.3135 22.8597 30.6993 22.078 31.7652C22.4867 32.1916 22.842 32.5825 23.0907 32.8845C23.4283 33.2931 23.4638 33.9505 22.9841 34.3946ZM14.9361 27.8212C14.9361 30.2551 16.4817 31.3388 17.9208 31.3388C18.134 31.3388 18.3472 31.3033 18.5426 31.2678C18.3294 30.9835 18.134 30.7348 17.9918 30.5216C17.4944 29.7932 17.5655 29.1536 18.0274 28.8516C18.5959 28.4608 19.1111 28.7095 19.6974 29.3135C19.8217 29.4379 20.0172 29.6333 20.2304 29.8643C20.5679 29.2602 20.7456 28.4963 20.7456 27.6613C20.7456 25.5471 19.7684 23.8416 17.832 23.8416C15.9132 23.8416 14.9361 25.6715 14.9361 27.8212Z" fill="#333D4B"/>
</g>
<defs>
<clipPath id="clip0_263_2646">
<rect width="60" height="60" fill="white"/>
</clipPath>
</defs>
</svg>
