<svg width="100" height="100" viewBox="0 0 100 100" fill="none" xmlns="http://www.w3.org/2000/svg">
<ellipse cx="50" cy="85.5" rx="27.5" ry="3.5" fill="url(#paint0_radial_192_927)" fill-opacity="0.08"/>
<ellipse cx="50" cy="85.5" rx="27.5" ry="3.5" fill="url(#paint1_radial_192_927)"/>
<g clip-path="url(#clip0_192_927)">
<path d="M50 81.1546C68.1218 81.1546 82.8125 66.5076 82.8125 48.4396C82.8125 30.3716 68.1218 15.7246 50 15.7246C31.8782 15.7246 17.1875 30.3716 17.1875 48.4396C17.1875 66.5076 31.8782 81.1546 50 81.1546Z" fill="#FFC84D"/>
<path d="M47.1557 56.4349C49.8801 56.673 51.9032 57.3668 53.1819 57.9518C53.7313 58.203 54.2732 57.5936 53.9638 57.0761C52.9626 55.4111 50.9732 53.133 47.4726 52.8293C43.9719 52.5255 41.6151 54.4211 40.3401 55.8893C39.9444 56.3449 40.3719 57.0386 40.9569 56.8868C42.3201 56.5324 44.4332 56.1968 47.1557 56.4349Z" fill="#FF6D00"/>
<path d="M38.613 31.3112C40.8518 31.5062 42.0987 32.1306 43.1562 32.7099C43.7655 33.0437 44.2962 32.5956 44.0374 31.9018C43.4768 30.4018 41.7987 28.6956 38.8662 28.4387C35.9337 28.1837 33.9818 29.5731 33.1699 30.9531C32.793 31.5924 33.2374 32.1249 33.8955 31.9018C35.0374 31.5156 36.3762 31.1162 38.613 31.3112Z" fill="black"/>
<path d="M57.8187 25.5397C55.5799 25.7347 54.333 26.3591 53.2755 26.9384C52.6662 27.2722 52.1355 26.8241 52.3943 26.1303C52.9549 24.6303 54.633 22.9241 57.5655 22.6672C60.498 22.4122 62.4499 23.8016 63.2618 25.1816C63.6387 25.8209 63.1943 26.3534 62.5362 26.1303C61.3943 25.7441 60.0555 25.3447 57.8187 25.5397Z" fill="black"/>
<path d="M39.3874 43.6723C41.6956 43.6723 43.5668 41.8071 43.5668 39.5061C43.5668 37.2051 41.6956 35.3398 39.3874 35.3398C37.0792 35.3398 35.208 37.2051 35.208 39.5061C35.208 41.8071 37.0792 43.6723 39.3874 43.6723Z" fill="black"/>
<path d="M56.7893 43.6739C59.0581 43.6739 60.8974 41.5022 60.8974 38.8233C60.8974 36.1444 59.0581 33.9727 56.7893 33.9727C54.5204 33.9727 52.6812 36.1444 52.6812 38.8233C52.6812 41.5022 54.5204 43.6739 56.7893 43.6739Z" fill="black"/>
<path d="M27.4551 71.7745C27.4551 68.4801 27.7551 64.5276 27.9051 62.3339C28.0195 60.6651 28.1357 57.592 28.3476 56.197C28.5651 54.7589 29.3957 53.542 30.9857 54.0801C32.5045 54.5957 33.2676 56.8139 33.2676 58.7245C33.2676 60.6351 33.4101 61.9101 34.552 62.4914C35.6938 63.0726 37.1076 62.9939 39.3838 62.9939C41.6601 62.9939 49.5763 62.8345 53.5982 62.8345C54.5263 62.8345 55.9607 62.9676 56.6188 63.6201C57.4382 64.4339 57.2732 66.0126 56.0526 66.5526C54.0932 67.4189 49.4807 67.2201 48.2582 67.7526C47.0357 68.2851 47.1313 69.157 47.0582 70.4864C46.9701 72.1176 47.3545 76.3739 46.9701 78.1514C46.5351 80.167 45.3426 81.277 43.552 81.277H35.8476C31.2445 81.277 27.457 76.7339 27.457 71.7745H27.4551Z" fill="#FF9210"/>
</g>
<defs>
<radialGradient id="paint0_radial_192_927" cx="0" cy="0" r="1" gradientUnits="userSpaceOnUse" gradientTransform="translate(50 85.5) scale(27.5 3.5)">
<stop/>
<stop offset="1"/>
</radialGradient>
<radialGradient id="paint1_radial_192_927" cx="0" cy="0" r="1" gradientUnits="userSpaceOnUse" gradientTransform="translate(50 85.5) scale(27.5 3.5)">
<stop stop-color="#F8F8F8" stop-opacity="0"/>
<stop offset="1" stop-color="#F8F8F8"/>
</radialGradient>
<clipPath id="clip0_192_927">
<rect width="75" height="75" fill="white" transform="translate(12.5 11)"/>
</clipPath>
</defs>
</svg>
