<svg width="30" height="30" viewBox="0 0 30 30" fill="none" xmlns="http://www.w3.org/2000/svg">
<g clip-path="url(#clip0_408_7011)">
<path d="M27.2734 5.18262C27.9503 5.18285 28.4998 5.73153 28.5 6.40918V12.5625C27.1538 12.5625 26.0626 13.6538 26.0625 15C26.0625 16.3462 27.1529 17.4374 28.499 17.4375V23.5908C28.4989 24.2679 27.9503 24.8173 27.2725 24.8174H2.72656C2.04958 24.8171 1.50011 24.2686 1.5 23.5908V6.40918C1.50024 5.73228 2.04891 5.18285 2.72656 5.18262H27.2734Z" fill="url(#paint0_linear_408_7011)"/>
<path d="M18 17.0391C18 17.3644 17.9387 17.6712 17.8162 17.9593C17.6982 18.2428 17.5349 18.4915 17.3261 18.7053C17.1174 18.9191 16.8723 19.0887 16.591 19.2142C16.3141 19.335 16.0169 19.3954 15.6993 19.3954C15.3771 19.3954 15.0753 19.335 14.7939 19.2142C14.5171 19.0887 14.2721 18.9191 14.0588 18.7053C13.85 18.4915 13.6844 18.2428 13.5619 17.9593C13.4439 17.6712 13.3849 17.3644 13.3849 17.0391C13.3849 16.7138 13.4439 16.4094 13.5619 16.1259C13.6844 15.8377 13.85 15.5868 14.0588 15.373C14.2721 15.1545 14.5171 14.9826 14.7939 14.8571C15.0753 14.7316 15.3771 14.6689 15.6993 14.6689C16.0169 14.6689 16.3141 14.7316 16.591 14.8571C16.8723 14.9826 17.1174 15.1545 17.3261 15.373C17.5349 15.5868 17.6982 15.8377 17.8162 16.1259C17.9387 16.4094 18 16.7138 18 17.0391ZM15.7673 10.5L10.7506 19.5H9.11696L14.1405 10.5H15.7673ZM11.6151 12.9469C11.6151 13.2769 11.5538 13.586 11.4313 13.8741C11.3133 14.1576 11.1477 14.4086 10.9344 14.627C10.7257 14.8408 10.4806 15.0105 10.1993 15.1359C9.9179 15.2568 9.6184 15.3172 9.30074 15.3172C8.98309 15.3172 8.68358 15.2568 8.40223 15.1359C8.12541 15.0105 7.88263 14.8408 7.67389 14.627C7.46514 14.4086 7.2995 14.1576 7.17698 13.8741C7.05899 13.586 7 13.2769 7 12.9469C7 12.6216 7.05899 12.3172 7.17698 12.0337C7.2995 11.7455 7.46514 11.4946 7.67389 11.2808C7.88263 11.067 8.12541 10.8997 8.40223 10.7789C8.68358 10.6534 8.98309 10.5906 9.30074 10.5906C9.6184 10.5906 9.9179 10.6534 10.1993 10.7789C10.4806 10.8997 10.7257 11.067 10.9344 11.2808C11.1477 11.4946 11.3133 11.7455 11.4313 12.0337C11.5538 12.3172 11.6151 12.6216 11.6151 12.9469ZM16.5774 17.0391C16.5774 16.9136 16.5547 16.7974 16.5093 16.6905C16.4639 16.579 16.4004 16.4814 16.3187 16.3978C16.2415 16.3141 16.1485 16.249 16.0396 16.2026C15.9352 16.1514 15.8218 16.1259 15.6993 16.1259C15.5767 16.1259 15.461 16.1514 15.3521 16.2026C15.2432 16.249 15.1479 16.3141 15.0662 16.3978C14.9891 16.4814 14.9255 16.579 14.8756 16.6905C14.8302 16.7974 14.8075 16.9136 14.8075 17.0391C14.8075 17.1646 14.8302 17.2831 14.8756 17.3947C14.9255 17.5015 14.9891 17.5968 15.0662 17.6805C15.1479 17.7595 15.2432 17.8222 15.3521 17.8687C15.461 17.9152 15.5767 17.9384 15.6993 17.9384C15.8218 17.9384 15.9352 17.9152 16.0396 17.8687C16.1485 17.8222 16.2415 17.7595 16.3187 17.6805C16.4004 17.5968 16.4639 17.5015 16.5093 17.3947C16.5547 17.2831 16.5774 17.1646 16.5774 17.0391ZM10.1925 12.9469C10.1925 12.8215 10.1698 12.7053 10.1244 12.5984C10.079 12.4868 10.0155 12.3916 9.93379 12.3125C9.85664 12.2289 9.76361 12.1638 9.6547 12.1174C9.54579 12.0709 9.42781 12.0476 9.30074 12.0476C9.17822 12.0476 9.0625 12.0709 8.95359 12.1174C8.84922 12.1638 8.75619 12.2289 8.6745 12.3125C8.59736 12.3916 8.5361 12.4868 8.49072 12.5984C8.44534 12.7053 8.42265 12.8215 8.42265 12.9469C8.42265 13.0724 8.44534 13.1909 8.49072 13.3025C8.5361 13.414 8.59736 13.5116 8.6745 13.5953C8.75619 13.6789 8.84922 13.744 8.95359 13.7905C9.0625 13.8369 9.17822 13.8602 9.30074 13.8602C9.42781 13.8602 9.54579 13.8369 9.6547 13.7905C9.76361 13.744 9.85664 13.6789 9.93379 13.5953C10.0155 13.5116 10.079 13.414 10.1244 13.3025C10.1698 13.1909 10.1925 13.0724 10.1925 12.9469Z" fill="white"/>
</g>
<defs>
<linearGradient id="paint0_linear_408_7011" x1="5.5" y1="8.49902" x2="26" y2="24.999" gradientUnits="userSpaceOnUse">
<stop stop-color="#FF8E00"/>
<stop offset="1" stop-color="#FF6A00"/>
</linearGradient>
<clipPath id="clip0_408_7011">
<rect width="30" height="30" fill="white"/>
</clipPath>
</defs>
</svg>
