<svg width="48" height="48" viewBox="0 0 48 48" fill="none" xmlns="http://www.w3.org/2000/svg">
<path fill-rule="evenodd" clip-rule="evenodd" d="M22.4039 12.2007C23.0998 11.938 23.6703 12.7375 23.3314 13.3996C22.2916 15.4308 21.7051 17.7326 21.7051 20.1713C21.7052 28.3875 28.365 35.0482 36.5801 35.0482C36.9682 35.0482 37.3528 35.0331 37.7334 35.0036C38.475 34.9462 38.9926 35.7808 38.4827 36.3223C35.7702 39.2022 31.9223 41.0004 27.6543 41.0004C19.4394 41.0002 12.7803 34.3396 12.7803 26.1234C12.7803 19.7558 16.78 14.3232 22.4039 12.2007Z" fill="#FFD54A"/>
<path d="M38.6957 23.2357C38.833 23.1582 38.9893 23.3016 38.9238 23.4451L37.9531 25.5711C37.9238 25.6352 37.9392 25.7109 37.9911 25.7586L39.7131 27.3387C39.8293 27.4454 39.7412 27.6383 39.5845 27.6204L37.2626 27.3542C37.1926 27.3461 37.1253 27.3841 37.096 27.4483L36.1253 29.5743C36.0598 29.7177 35.8491 29.6935 35.8177 29.539L35.3534 27.2485C35.3394 27.1794 35.2825 27.1271 35.2124 27.1191L32.8905 26.8529C32.7339 26.8349 32.6917 26.627 32.829 26.5495L34.864 25.4001C34.9253 25.3654 34.9574 25.2951 34.9434 25.226L34.4791 22.9355C34.4478 22.7809 34.6325 22.6766 34.7486 22.7832L36.4706 24.3634C36.5226 24.411 36.5993 24.4198 36.6607 24.3852L38.6957 23.2357Z" fill="#FFD54A"/>
<path d="M11.606 7.97364C11.7096 7.85481 11.9048 7.93803 11.8908 8.09508L11.6832 10.423C11.6769 10.4932 11.7166 10.5595 11.7815 10.5871L13.9313 11.5039C14.0763 11.5658 14.0575 11.7771 13.9038 11.8123L11.6257 12.3342C11.557 12.35 11.5062 12.4082 11.4999 12.4784L11.2923 14.8063C11.2783 14.9634 11.0716 15.0107 10.9906 14.8755L9.79021 12.8701C9.75399 12.8096 9.68294 12.7793 9.61421 12.7951L7.3361 13.317C7.18242 13.3522 7.07346 13.1702 7.17709 13.0514L8.71333 11.2901C8.75968 11.237 8.76654 11.16 8.73032 11.0995L7.52995 9.0942C7.44897 8.95891 7.58842 8.79904 7.73345 8.86089L9.88327 9.77766C9.94813 9.80532 10.0234 9.78807 10.0698 9.73493L11.606 7.97364Z" fill="#FFD54A"/>
<path d="M31.3433 9.37582C31.392 9.22587 31.6041 9.22587 31.6528 9.37582L32.0096 10.4739C32.0314 10.541 32.0939 10.5864 32.1644 10.5864L33.319 10.5864C33.4767 10.5864 33.5423 10.7881 33.4147 10.8808L32.4806 11.5595C32.4236 11.6009 32.3997 11.6744 32.4215 11.7415L32.7783 12.8396C32.827 12.9895 32.6554 13.1142 32.5278 13.0215L31.5937 12.3429C31.5367 12.3014 31.4594 12.3014 31.4024 12.3429L30.4683 13.0215C30.3407 13.1142 30.1691 12.9895 30.2178 12.8396L30.5746 11.7415C30.5964 11.6744 30.5725 11.6009 30.5155 11.5595L29.5814 10.8808C29.4538 10.7881 29.5194 10.5864 29.6771 10.5864L30.8317 10.5864C30.9022 10.5864 30.9647 10.541 30.9865 10.4739L31.3433 9.37582Z" fill="#FFD54A"/>
</svg>
