<svg width="100" height="100" viewBox="0 0 100 100" fill="none" xmlns="http://www.w3.org/2000/svg">
<g clip-path="url(#clip0_425_5530)">
<path d="M50 92.6901C67.8802 92.6901 82.375 84.2943 82.375 73.9376C82.375 63.5808 67.8802 55.1851 50 55.1851C32.1198 55.1851 17.625 63.5808 17.625 73.9376C17.625 84.2943 32.1198 92.6901 50 92.6901Z" fill="#BABABA"/>
<path d="M50 86.8451C75.5432 86.8451 96.25 74.8508 96.25 60.0551C96.25 45.2594 75.5432 33.2651 50 33.2651C24.4568 33.2651 3.75 45.2594 3.75 60.0551C3.75 74.8508 24.4568 86.8451 50 86.8451Z" fill="#D9D9D9"/>
<path d="M49.9991 82.2275C69.2724 82.2275 84.8966 73.178 84.8966 62.015C84.8966 50.8519 69.2724 41.8025 49.9991 41.8025C30.7257 41.8025 15.1016 50.8519 15.1016 62.015C15.1016 73.178 30.7257 82.2275 49.9991 82.2275Z" fill="#995C00"/>
<path d="M43.0427 76.0399C43.7702 76.0399 44.3227 75.3049 44.0452 74.6324C43.4902 73.2849 42.1652 72.3374 40.6177 72.3374C39.0702 72.3374 37.7452 73.2849 37.1902 74.6324C36.9127 75.3074 37.4652 76.0399 38.1927 76.0399H43.0427Z" fill="#901A18"/>
<path d="M78.0669 53.9175C79.3294 53.9175 80.1694 52.635 79.6994 51.4625C78.7269 49.035 76.3519 47.3225 73.5769 47.3225C70.8019 47.3225 68.4294 49.035 67.4544 51.4625C66.9844 52.635 67.8244 53.9175 69.0869 53.9175H78.0669Z" fill="#F77F00"/>
<path d="M53.0446 18.6275C52.0146 14.7825 47.0221 12.78 41.8946 14.1525C36.7671 15.525 33.4446 19.7575 34.4771 23.6025L53.0446 18.6275Z" fill="#995C00"/>
<path d="M61.4224 75.4976C62.6849 75.4976 63.5249 74.2151 63.0549 73.0426C62.0824 70.6151 59.7074 68.9026 56.9324 68.9026C54.1574 68.9026 51.7849 70.6151 50.8099 73.0426C50.3399 74.2151 51.1799 75.4976 52.4424 75.4976H61.4224Z" fill="#F77F00"/>
<path d="M79.5017 61.4549C80.2292 61.4549 80.7817 60.7199 80.5042 60.0474C79.9492 58.6999 78.6242 57.7524 77.0767 57.7524C75.5292 57.7524 74.2042 58.6999 73.6492 60.0474C73.3717 60.7224 73.9242 61.4549 74.6517 61.4549H79.4992H79.5017Z" fill="#901A18"/>
<path d="M68.3845 66.1876C69.2945 66.1876 69.9845 65.2701 69.637 64.4276C68.9445 62.7426 67.287 61.5576 65.3545 61.5576C63.422 61.5576 61.7645 62.7426 61.072 64.4276C60.7245 65.2701 61.4145 66.1876 62.3245 66.1876H68.3845Z" fill="#FFCD00"/>
<path d="M59.8734 52.18C59.9934 51.4975 59.8959 50.775 59.5234 50.1275C59.1359 49.4575 58.5284 49 57.8484 48.77C57.8484 48.0775 57.6259 47.38 57.1459 46.8075C56.6484 46.215 55.9709 45.87 55.2609 45.7625C55.1409 45.08 54.8009 44.4325 54.2284 43.9525C53.6359 43.455 52.9084 43.2325 52.1909 43.25C51.9534 42.6 51.5084 42.02 50.8609 41.6475C50.1909 41.26 49.4359 41.1675 48.7309 41.31C48.3834 40.71 47.8459 40.2175 47.1434 39.9625C46.4159 39.6975 45.6559 39.7375 44.9884 40C44.5434 39.47 43.9259 39.0775 43.1909 38.9475C42.4284 38.8125 41.6884 38.985 41.0759 39.3575C40.5459 38.9125 39.8709 38.635 39.1234 38.635C38.3484 38.635 37.6484 38.9325 37.1109 39.4075C36.5109 39.0625 35.7984 38.905 35.0609 39.035C34.2984 39.17 33.6609 39.585 33.2134 40.145C32.5609 39.91 31.8334 39.8775 31.1309 40.1325C30.4034 40.3975 29.8484 40.915 29.5034 41.5475C28.8209 41.4275 28.0984 41.525 27.4509 41.8975C26.7809 42.285 26.3234 42.8925 26.0934 43.5725C25.4009 43.5725 24.7059 43.7925 24.1309 44.2725C23.5384 44.77 23.1934 45.4475 23.0859 46.1575C22.4034 46.2775 21.7559 46.6175 21.2759 47.1875C20.7784 47.78 20.5559 48.5075 20.5734 49.225C19.9234 49.4625 19.3434 49.9075 18.9709 50.555C18.5834 51.225 18.4909 51.98 18.6334 52.685C18.0334 53.0325 17.2859 53.485 17.2859 54.2725C17.2859 54.2925 17.2984 54.32 17.3034 54.3425H17.2734C17.2734 61.3825 27.1259 67.0875 39.2784 67.0875C51.4309 67.0875 61.2834 61.38 61.2834 54.3425C61.2834 53.2875 60.5009 52.52 59.8684 52.1775L59.8734 52.18Z" fill="#EBEBEB"/>
<path d="M54.1877 19.0925C53.9952 18.68 53.6677 18.325 53.2227 18.1175C52.7602 17.9025 52.2602 17.885 51.8052 18.0175C51.5427 17.645 51.1602 17.3525 50.6852 17.225C50.1927 17.0925 49.6977 17.1625 49.2727 17.3725C48.9502 17.05 48.5227 16.8275 48.0327 16.785C47.5252 16.74 47.0477 16.895 46.6677 17.175C46.2927 16.915 45.8352 16.77 45.3452 16.8125C44.8377 16.8575 44.3952 17.0925 44.0702 17.435C43.6577 17.2425 43.1802 17.18 42.7052 17.3075C42.2127 17.44 41.8177 17.7475 41.5552 18.1425C41.1152 18.025 40.6327 18.0475 40.1877 18.255C39.7252 18.47 39.3902 18.8425 39.2002 19.275C38.7452 19.235 38.2752 19.34 37.8727 19.6225C37.4552 19.915 37.1902 20.34 37.0777 20.8C36.6227 20.84 36.1802 21.025 35.8302 21.3725C35.4702 21.7325 35.2827 22.1975 35.2527 22.67C34.8127 22.7875 34.4077 23.0475 34.1252 23.45C33.8327 23.8675 33.7302 24.3575 33.7827 24.8275C33.3752 25.0175 54.6552 19.0375 54.1852 19.09L54.1877 19.0925Z" fill="#EBEBEB"/>
<path d="M56.7591 21.96L93.7541 13.51C94.9441 13.22 95.6641 12.0075 95.3466 10.825L94.8391 8.93002C94.5216 7.74752 93.2941 7.05502 92.1166 7.40002L55.8516 18.5775L56.7591 21.96Z" fill="#3D3D3D"/>
<path d="M33.8544 24.4701C32.9819 24.7051 32.6619 25.7801 33.2794 26.4401C35.0519 28.3376 38.7469 31.2051 44.0419 29.7851C51.6894 27.7351 54.5719 22.4501 55.9169 22.1226L56.7569 21.9601L55.8494 18.5776L33.8519 24.4726L33.8544 24.4701Z" fill="#BABABA"/>
</g>
<defs>
<clipPath id="clip0_425_5530">
<rect width="100" height="100" fill="white"/>
</clipPath>
</defs>
</svg>
