<svg width="62" height="62" viewBox="0 0 62 62" fill="none" xmlns="http://www.w3.org/2000/svg">
<g clip-path="url(#clip0_106_3814)">
<g filter="url(#filter0_d_106_3814)">
<path d="M28.7891 54.375C42.8033 54.375 54.1641 43.0142 54.1641 29C54.1641 14.9858 42.8033 3.625 28.7891 3.625C14.7748 3.625 3.41406 14.9858 3.41406 29C3.41406 43.0142 14.7748 54.375 28.7891 54.375Z" fill="#FFC84D"/>
<path d="M17.6705 26.715C17.3297 26.9224 16.8918 26.6498 16.9368 26.2525C17.1876 24.0485 18.9088 22.2592 21.1403 22.0634C23.3719 21.8677 25.3772 23.3322 26.0065 25.4579C26.1196 25.8407 25.7368 26.1858 25.3642 26.0408C24.5522 25.7247 23.1834 25.3564 21.4405 25.5086C19.6976 25.6609 18.4129 26.2612 17.669 26.7136L17.6705 26.715Z" fill="black"/>
<path d="M39.907 26.715C40.2478 26.9224 40.6857 26.6498 40.6407 26.2525C40.3899 24.0485 38.6687 22.2592 36.4372 22.0634C34.2056 21.8677 32.2003 23.3322 31.571 25.4579C31.4579 25.8407 31.8407 26.1858 32.2133 26.0408C33.0253 25.7247 34.3941 25.3564 36.137 25.5086C37.8799 25.6609 39.1646 26.2612 39.9085 26.7136L39.907 26.715Z" fill="black"/>
<path d="M46.7741 51.7389C46.4348 51.9637 45.9969 51.9637 45.6562 51.7389C44.5788 51.027 42.2298 49.3261 41.2192 47.4223C39.8852 44.9109 41.4512 42.4053 43.5218 42.4053C44.7021 42.4053 45.4111 43.0215 45.8041 43.5522C46.0114 43.8321 46.4203 43.8321 46.6262 43.5522C47.0192 43.0215 47.7282 42.4053 48.9085 42.4053C50.9777 42.4053 52.5437 44.9109 51.2111 47.4223C50.2005 49.3261 47.8515 51.027 46.7741 51.7389Z" fill="#F5172B"/>
<path d="M48.4935 20.5962C47.9903 20.9283 47.3407 20.9283 46.839 20.5962C45.2426 19.5421 41.7626 17.0205 40.2647 14.2003C38.2884 10.4796 40.6098 6.76758 43.6751 6.76758C45.4238 6.76758 46.4751 7.68108 47.0565 8.46553C47.3625 8.87878 47.9686 8.87878 48.2745 8.46553C48.856 7.67963 49.9072 6.76758 51.6559 6.76758C54.7212 6.76758 57.0427 10.4796 55.0663 14.2003C53.5685 17.0205 50.0899 19.5406 48.4935 20.5962Z" fill="#F5172B"/>
<path d="M9.13654 44.9983C8.75954 45.2477 8.27234 45.2477 7.89534 44.9983C6.69764 44.2066 4.08764 42.3173 2.96534 40.2017C1.48344 37.4105 3.22344 34.6279 5.52314 34.6279C6.83394 34.6279 7.62274 35.3123 8.05919 35.901C8.28974 36.2113 8.74359 36.2113 8.97269 35.901C9.40914 35.3123 10.1979 34.6279 11.5087 34.6279C13.8084 34.6279 15.5484 37.4119 14.0665 40.2017C12.9428 42.3173 10.3342 44.2066 9.13654 44.9983Z" fill="#F5172B"/>
<path d="M28.7898 35.5202C24.4702 35.5202 21.2686 34.7473 19.3561 34.105C18.4846 33.8121 17.8089 34.8938 18.4571 35.5448C20.3638 37.4603 24.376 39.1104 28.7898 39.1104C33.2036 39.1104 37.2157 37.4603 39.1225 35.5448C39.7721 34.8923 39.0964 33.8121 38.2235 34.105C36.3095 34.7473 33.1093 35.5202 28.7898 35.5202Z" fill="#FF6D00"/>
</g>
</g>
<defs>
<filter id="filter0_d_106_3814" x="0.416016" y="3.625" width="61.3828" height="58.75" filterUnits="userSpaceOnUse" color-interpolation-filters="sRGB">
<feFlood flood-opacity="0" result="BackgroundImageFix"/>
<feColorMatrix in="SourceAlpha" type="matrix" values="0 0 0 0 0 0 0 0 0 0 0 0 0 0 0 0 0 0 127 0" result="hardAlpha"/>
<feOffset dx="2" dy="4"/>
<feGaussianBlur stdDeviation="2"/>
<feComposite in2="hardAlpha" operator="out"/>
<feColorMatrix type="matrix" values="0 0 0 0 1 0 0 0 0 0.823088 0 0 0 0 0.66226 0 0 0 1 0"/>
<feBlend mode="normal" in2="BackgroundImageFix" result="effect1_dropShadow_106_3814"/>
<feBlend mode="normal" in="SourceGraphic" in2="effect1_dropShadow_106_3814" result="shape"/>
</filter>
<clipPath id="clip0_106_3814">
<rect width="62" height="62" fill="white"/>
</clipPath>
</defs>
</svg>
