<svg width="48" height="48" viewBox="0 0 48 48" fill="none" xmlns="http://www.w3.org/2000/svg">
<circle cx="24" cy="24" r="9" fill="#FF9F4A"/>
<rect x="22.7144" y="11.1426" width="5.14286" height="2.57143" rx="1.28571" transform="rotate(-90 22.7144 11.1426)" fill="#FF9F4A"/>
<rect x="22.7144" y="42" width="5.14286" height="2.57143" rx="1.28571" transform="rotate(-90 22.7144 42)" fill="#FF9F4A"/>
<rect x="42" y="25.2861" width="5.14286" height="2.57143" rx="1.28571" transform="rotate(180 42 25.2861)" fill="#FF9F4A"/>
<rect x="31.7144" y="14.0576" width="5.93886" height="2.57143" rx="1.28571" transform="rotate(-45 31.7144 14.0576)" fill="#FF9F4A"/>
<rect width="5.93886" height="2.57143" rx="1.28571" transform="matrix(-0.707107 -0.707107 -0.707107 0.707107 15.875 14.0576)" fill="#FF9F4A"/>
<rect width="5.93886" height="2.57143" rx="1.28571" transform="matrix(0.707107 0.707107 0.707107 -0.707107 31.7144 33.5342)" fill="#FF9F4A"/>
<rect x="15.875" y="33.5342" width="5.93886" height="2.57143" rx="1.28571" transform="rotate(135 15.875 33.5342)" fill="#FF9F4A"/>
<rect x="11.1431" y="25.2861" width="5.14286" height="2.57143" rx="1.28571" transform="rotate(180 11.1431 25.2861)" fill="#FF9F4A"/>
</svg>
