<svg width="76" height="76" viewBox="0 0 76 76" fill="none" xmlns="http://www.w3.org/2000/svg">
<ellipse cx="39" cy="65" rx="21" ry="3" fill="url(#paint0_radial_219_989)" fill-opacity="0.05"/>
<ellipse cx="39" cy="65" rx="21" ry="3" fill="url(#paint1_radial_219_989)"/>
<g clip-path="url(#clip0_219_989)">
<path d="M38 61C51.2548 61 62 50.2548 62 37C62 23.7452 51.2548 13 38 13C24.7452 13 14 23.7452 14 37C14 50.2548 24.7452 61 38 61Z" fill="#FFC84D"/>
<path d="M44.9383 41.4701C50.166 41.4701 54.4039 37.2322 54.4039 32.0045C54.4039 26.7768 50.166 22.5389 44.9383 22.5389C39.7105 22.5389 35.4727 26.7768 35.4727 32.0045C35.4727 37.2322 39.7105 41.4701 44.9383 41.4701Z" fill="white"/>
<path d="M48.9598 25.1791C47.7817 24.4838 46.4089 24.0861 44.9415 24.0861C40.5666 24.0861 37.0215 27.6326 37.0215 32.0061C37.0215 34.5542 38.2256 36.8211 40.0949 38.2707C41.4347 39.3089 43.1161 39.9274 44.9429 39.9274C49.3177 39.9274 52.8629 36.3809 52.8629 32.0074C52.8629 29.1 51.2953 26.556 48.9598 25.1791ZM42.0286 35.6966C41.0329 35.6966 40.1333 35.2879 39.4846 34.631L42.6059 28.6008C44.3051 28.8778 45.6053 30.3425 45.6053 32.1199C45.6053 34.0947 44.0034 35.6966 42.0286 35.6966Z" fill="#E0E0E0"/>
<path d="M30.1099 27.7675C28.6891 27.7675 27.5371 28.9195 27.5371 30.3403C27.5371 31.7611 28.6891 32.9131 30.1099 32.9131C31.5307 32.9131 32.6827 31.7611 32.6827 30.3403C32.6827 28.9195 31.5307 27.7675 30.1099 27.7675Z" fill="black"/>
<path d="M39.4819 34.631L42.6033 28.6008C42.414 28.5706 42.2234 28.5432 42.0259 28.5432C40.051 28.5432 38.4492 30.145 38.4492 32.1199C38.4492 33.0991 38.8442 33.985 39.4819 34.631Z" fill="#6B6B6B"/>
<path d="M42.6057 28.5991L39.4844 34.6292C40.1331 35.2861 41.0327 35.6948 42.0284 35.6948C44.0046 35.6948 45.6051 34.093 45.6051 32.1181C45.6051 30.3408 44.3049 28.8761 42.6057 28.5991Z" fill="black"/>
<path d="M42.0286 28.542C42.2261 28.542 42.4167 28.5694 42.6059 28.5996L44.9415 24.0862C40.5666 24.0862 37.0215 27.6327 37.0215 32.0062C37.0215 33.7109 37.5591 35.2894 38.4752 36.5813L39.4846 34.6311C38.8469 33.9852 38.4519 33.0992 38.4519 32.12C38.4519 30.1452 40.0537 28.5433 42.0286 28.5433V28.542Z" fill="#EDEDED"/>
<path d="M34.0832 44.7516C36.0182 44.9203 37.4569 45.4154 38.3661 45.8323C38.757 46.0106 39.1424 45.5772 38.9216 45.2083C38.2098 44.0206 36.7958 42.3982 34.3081 42.1802C31.8203 41.9621 30.1458 43.3144 29.2379 44.3608C28.9568 44.6858 29.2612 45.1809 29.6768 45.0725C30.645 44.8202 32.1467 44.5816 34.0832 44.7516Z" fill="#FF6D00"/>
<path d="M29.4219 24.3268C31.0128 24.4653 31.9001 24.9111 32.6516 25.3239C33.085 25.5611 33.4621 25.2416 33.277 24.7465C32.8793 23.6768 31.6861 22.4603 29.6016 22.2779C27.517 22.0955 26.1305 23.0857 25.5531 24.0704C25.2857 24.5257 25.6011 24.9056 26.0688 24.7465C26.8806 24.4722 27.831 24.1883 29.4219 24.3268Z" fill="black"/>
<path d="M43.0713 20.2126C41.4805 20.3511 40.5932 20.7968 39.8416 21.2096C39.4082 21.4469 39.0311 21.1273 39.2162 20.6322C39.614 19.5625 40.8071 18.3461 42.8917 18.1637C44.9762 17.9813 46.3628 18.9714 46.9401 19.9561C47.2076 20.4114 46.8921 20.7913 46.4245 20.6322C45.6126 20.3579 44.6622 20.0741 43.0713 20.2126Z" fill="black"/>
</g>
<defs>
<radialGradient id="paint0_radial_219_989" cx="0" cy="0" r="1" gradientUnits="userSpaceOnUse" gradientTransform="translate(39 65) scale(21 3)">
<stop/>
<stop offset="1"/>
</radialGradient>
<radialGradient id="paint1_radial_219_989" cx="0" cy="0" r="1" gradientUnits="userSpaceOnUse" gradientTransform="translate(39 65) scale(21 3)">
<stop stop-color="white" stop-opacity="0"/>
<stop offset="1" stop-color="white"/>
</radialGradient>
<clipPath id="clip0_219_989">
<rect width="50" height="50" fill="white" transform="translate(13 12)"/>
</clipPath>
</defs>
</svg>
