<svg width="76" height="76" viewBox="0 0 76 76" fill="none" xmlns="http://www.w3.org/2000/svg">
<ellipse cx="39" cy="65" rx="21" ry="3" fill="url(#paint0_radial_219_977)" fill-opacity="0.05"/>
<ellipse cx="39" cy="65" rx="21" ry="3" fill="url(#paint1_radial_219_977)"/>
<mask id="path-2-inside-1_219_977" fill="white">
<path d="M63.5449 13.1939C67.0427 13.1939 69.8789 16.0291 69.8789 19.5269V49.4947C69.8787 52.9923 67.0426 55.8277 63.5449 55.8277H43.5527L39.3623 61.2945C38.7285 62.1213 37.4824 62.1213 36.8486 61.2945L32.6582 55.8277H12.666C9.16833 55.8277 6.33223 52.9923 6.33203 49.4947V19.5269C6.33203 16.0291 9.16821 13.1939 12.666 13.1939H63.5449Z"/>
</mask>
<path d="M63.5449 13.1939C67.0427 13.1939 69.8789 16.0291 69.8789 19.5269V49.4947C69.8787 52.9923 67.0426 55.8277 63.5449 55.8277H43.5527L39.3623 61.2945C38.7285 62.1213 37.4824 62.1213 36.8486 61.2945L32.6582 55.8277H12.666C9.16833 55.8277 6.33223 52.9923 6.33203 49.4947V19.5269C6.33203 16.0291 9.16821 13.1939 12.666 13.1939H63.5449Z" fill="#F8F8F8"/>
<path d="M69.8789 49.4947L70.8789 49.4947V49.4947H69.8789ZM43.5527 55.8277V54.8277H43.0593L42.7591 55.2193L43.5527 55.8277ZM39.3623 61.2945L40.156 61.9029L40.156 61.9029L39.3623 61.2945ZM36.8486 61.2945L36.055 61.9029L36.055 61.9029L36.8486 61.2945ZM32.6582 55.8277L33.4519 55.2193L33.1517 54.8277H32.6582V55.8277ZM6.33203 49.4947H5.33203V49.4947L6.33203 49.4947ZM63.5449 13.1939V14.1939C66.4906 14.1939 68.8789 16.5816 68.8789 19.5269H69.8789H70.8789C70.8789 15.4766 67.5948 12.1939 63.5449 12.1939V13.1939ZM69.8789 19.5269H68.8789V49.4947H69.8789H70.8789V19.5269H69.8789ZM69.8789 49.4947L68.8789 49.4946C68.8787 52.4399 66.4905 54.8277 63.5449 54.8277V55.8277V56.8277C67.5947 56.8277 70.8787 53.5448 70.8789 49.4947L69.8789 49.4947ZM63.5449 55.8277V54.8277H43.5527V55.8277V56.8277H63.5449V55.8277ZM43.5527 55.8277L42.7591 55.2193L38.5686 60.6861L39.3623 61.2945L40.156 61.9029L44.3464 56.4361L43.5527 55.8277ZM39.3623 61.2945L38.5687 60.6861C38.3352 60.9907 37.8758 60.9907 37.6423 60.6861L36.8486 61.2945L36.055 61.9029C37.089 63.2518 39.1219 63.2518 40.156 61.9029L39.3623 61.2945ZM36.8486 61.2945L37.6423 60.6861L33.4519 55.2193L32.6582 55.8277L31.8645 56.4361L36.055 61.9029L36.8486 61.2945ZM32.6582 55.8277V54.8277H12.666V55.8277V56.8277H32.6582V55.8277ZM12.666 55.8277V54.8277C9.72048 54.8277 7.3322 52.4399 7.33203 49.4946L6.33203 49.4947L5.33203 49.4947C5.33226 53.5448 8.61619 56.8277 12.666 56.8277V55.8277ZM6.33203 49.4947H7.33203V19.5269H6.33203H5.33203V49.4947H6.33203ZM6.33203 19.5269H7.33203C7.33203 16.5816 9.7203 14.1939 12.666 14.1939V13.1939V12.1939C8.61613 12.1939 5.33203 15.4766 5.33203 19.5269H6.33203ZM12.666 13.1939V14.1939H63.5449V13.1939V12.1939H12.666V13.1939Z" fill="#F3F3F3" mask="url(#path-2-inside-1_219_977)"/>
<path d="M37.751 23.5515C37.8644 23.3633 38.1377 23.3632 38.251 23.5515L41.5684 29.0651C41.7487 29.3648 42.0431 29.579 42.3838 29.6579L48.6533 31.1091C48.8673 31.1588 48.9515 31.4187 48.8076 31.5847L44.5889 36.444C44.3596 36.7082 44.2471 37.0546 44.2773 37.403L44.834 43.8132C44.853 44.0322 44.6321 44.1929 44.4297 44.1071L38.5049 41.5974C38.1829 41.4609 37.8191 41.461 37.4971 41.5974L31.5713 44.1071C31.3689 44.1927 31.148 44.0321 31.167 43.8132L31.7236 37.403C31.7539 37.0546 31.6414 36.7082 31.4121 36.444L27.1943 31.5847C27.0502 31.4186 27.1345 31.1587 27.3486 31.1091L33.6172 29.6579C33.9579 29.579 34.2523 29.3648 34.4326 29.0651L37.751 23.5515Z" fill="#FFD54A" stroke="#FFD240"/>
<defs>
<radialGradient id="paint0_radial_219_977" cx="0" cy="0" r="1" gradientUnits="userSpaceOnUse" gradientTransform="translate(39 65) scale(21 3)">
<stop/>
<stop offset="1"/>
</radialGradient>
<radialGradient id="paint1_radial_219_977" cx="0" cy="0" r="1" gradientUnits="userSpaceOnUse" gradientTransform="translate(39 65) scale(21 3)">
<stop stop-color="white" stop-opacity="0"/>
<stop offset="1" stop-color="white"/>
</radialGradient>
</defs>
</svg>
