<svg width="24" height="24" viewBox="0 0 24 24" fill="none" xmlns="http://www.w3.org/2000/svg">
<g clip-path="url(#clip0_360_1113)">
<path d="M3.6977 22.2863L17.6855 17.2589L6.1487 5.76172L1.1447 19.7363C0.576501 21.3239 2.1113 22.8563 3.6977 22.2863Z" fill="#EF4452"/>
<path d="M6.21357 2.79678C6.83257 2.79678 7.33437 2.29498 7.33437 1.67598C7.33437 1.05698 6.83257 0.555176 6.21357 0.555176C5.59457 0.555176 5.09277 1.05698 5.09277 1.67598C5.09277 2.29498 5.59457 2.79678 6.21357 2.79678Z" fill="#EDCCF8"/>
<path d="M18.1974 16.9538C19.3994 15.7518 17.7471 12.1505 14.5067 8.91019C11.2664 5.66986 7.66513 4.01749 6.4631 5.21952C5.26106 6.42155 6.91343 10.0228 10.1538 13.2631C13.3941 16.5035 16.9954 18.1558 18.1974 16.9538Z" fill="#A41926"/>
<path d="M10.2379 8.28388C10.1701 8.28388 10.1005 8.27428 10.0315 8.25508C9.63309 8.14168 9.40269 7.72648 9.51609 7.32808C9.87369 6.07588 9.85449 4.75348 9.46029 3.50368C9.33549 3.10828 9.55509 2.68768 9.94989 2.56288C10.3447 2.43808 10.7659 2.65708 10.8907 3.05248C11.3737 4.58308 11.3971 6.20428 10.9585 7.73968C10.8643 8.06908 10.5649 8.28388 10.2379 8.28388Z" fill="#B44BD7"/>
<path d="M17.6211 10.4742C17.3889 10.4742 17.1597 10.3668 17.0133 10.164C16.7703 9.82858 16.8453 9.35998 17.1807 9.11638C18.7671 7.96678 20.6457 7.31338 22.6137 7.22758C23.0307 7.22338 23.3775 7.53058 23.3961 7.94398C23.4141 8.35798 23.0931 8.70778 22.6797 8.72638C21.0057 8.79958 19.4091 9.35458 18.0609 10.3314C17.9277 10.428 17.7741 10.4742 17.6217 10.4742H17.6211Z" fill="#EF4452"/>
<path d="M20.6279 14.2593C20.5325 14.2593 20.4353 14.2407 20.3411 14.2017C19.8371 13.9929 19.3115 13.8321 18.7787 13.7235C17.1149 13.3839 15.4019 13.5489 13.8251 14.2017C13.4405 14.3595 13.0031 14.1783 12.8453 13.7961C12.6869 13.4133 12.8687 12.9747 13.2509 12.8163C15.1055 12.0483 17.1215 11.8539 19.0787 12.2541C19.7051 12.3819 20.3231 12.5709 20.9153 12.8163C21.2981 12.9747 21.4799 13.4133 21.3215 13.7961C21.2021 14.0847 20.9219 14.2593 20.6279 14.2593Z" fill="#7896FF"/>
<path d="M12.8142 10.5417C12.5892 10.5417 12.366 10.4409 12.2184 10.2483C11.9664 9.92006 12.0282 9.44906 12.357 9.19706C14.1612 7.81286 15.318 5.80886 15.615 3.55406C15.669 3.14366 16.0464 2.85386 16.4562 2.90846C16.8672 2.96246 17.1564 3.33926 17.1018 3.74966C16.7526 6.40166 15.3918 8.75846 13.2696 10.3869C13.1334 10.4913 12.9738 10.5417 12.8142 10.5417Z" fill="#4A81EC"/>
<path d="M9.4381 11.8419L9.43837 10.7157C9.43843 10.4814 9.24856 10.2915 9.01428 10.2914L7.88808 10.2911C7.6538 10.2911 7.46383 10.4809 7.46377 10.7152L7.4635 11.8414C7.46344 12.0757 7.65332 12.2657 7.88759 12.2657L9.01379 12.266C9.24807 12.2661 9.43804 12.0762 9.4381 11.8419Z" fill="white"/>
<path d="M14.1688 0.332714L13.1402 0.851514C12.9263 0.959409 12.8404 1.22028 12.9483 1.43419L13.4671 2.46276C13.575 2.67667 13.8359 2.76262 14.0498 2.65472L15.0783 2.13592C15.2922 2.02803 15.3782 1.76715 15.2703 1.55324L14.7515 0.524673C14.6436 0.310762 14.3827 0.224819 14.1688 0.332714Z" fill="#7896FF"/>
<path d="M22.4005 17.6412L22.7494 16.5433C22.822 16.315 22.6958 16.071 22.4674 15.9985L21.3696 15.6495C21.1413 15.5769 20.8973 15.7032 20.8247 15.9315L20.4758 17.0294C20.4032 17.2577 20.5294 17.5016 20.7578 17.5742L21.8556 17.9232C22.084 17.9957 22.3279 17.8695 22.4005 17.6412Z" fill="#A8BFFF"/>
<path d="M20.1202 6.30822C20.6186 6.30822 21.0226 5.9042 21.0226 5.40582C21.0226 4.90744 20.6186 4.50342 20.1202 4.50342C19.6218 4.50342 19.2178 4.90744 19.2178 5.40582C19.2178 5.9042 19.6218 6.30822 20.1202 6.30822Z" fill="#FFC84D"/>
<path d="M2.10211 10.2208C2.60049 10.2208 3.00451 9.8168 3.00451 9.31842C3.00451 8.82003 2.60049 8.41602 2.10211 8.41602C1.60373 8.41602 1.19971 8.82003 1.19971 9.31842C1.19971 9.8168 1.60373 10.2208 2.10211 10.2208Z" fill="#A8BFFF"/>
<path d="M14.7381 21.9888C15.3196 21.9888 15.7911 21.5174 15.7911 20.9358C15.7911 20.3543 15.3196 19.8828 14.7381 19.8828C14.1565 19.8828 13.6851 20.3543 13.6851 20.9358C13.6851 21.5174 14.1565 21.9888 14.7381 21.9888Z" fill="#FFC84D"/>
</g>
<defs>
<clipPath id="clip0_360_1113">
<rect width="24" height="24" fill="white"/>
</clipPath>
</defs>
</svg>
