<svg width="32" height="32" viewBox="0 0 32 32" fill="none" xmlns="http://www.w3.org/2000/svg">
<g clip-path="url(#clip0_1104_11663)">
<path d="M28.436 23.1995L27.6278 21.8938L16.7013 4.24839C16.112 3.29722 14.7231 3.31383 14.1569 4.27872L4.77957 20.2586L3.65218 22.1798L2.87362 23.5058C2.42729 24.2655 2.71979 25.2441 3.50557 25.6435C11.2341 29.5667 20.363 29.3695 27.8553 25.351C28.6317 24.9343 28.8997 23.9485 28.436 23.1995Z" fill="#F77F00"/>
<path d="M16.7117 4.27475C16.1224 3.32358 14.7336 3.3402 14.1673 4.30509L5.16482 19.6444L4.07715 21.4976C11.3016 25.7486 20.2398 25.5356 27.2049 21.2225L16.7117 4.27475Z" fill="#FFAD00"/>
<path d="M13.8281 9.38459C13.8281 8.38647 13.3319 7.50753 12.5765 6.96875L9.58789 12.0619C9.97428 12.2453 10.4011 12.3565 10.8568 12.3565C12.4977 12.3565 13.8281 11.0262 13.8281 9.38531V9.38459Z" fill="#EF4452"/>
<path d="M19.4978 13.3575C19.4978 14.9984 20.8281 16.3287 22.469 16.3287C23.0042 16.3287 23.4996 16.1756 23.9337 15.9279L20.8137 10.8896C20.02 11.4234 19.4971 12.329 19.4971 13.3575H19.4978Z" fill="#EF4452"/>
<path d="M14.5279 14.123C12.887 14.123 11.5566 15.4534 11.5566 17.0943C11.5566 18.7352 12.887 20.0655 14.5279 20.0655C16.1688 20.0655 17.4991 18.7352 17.4991 17.0943C17.4991 15.4534 16.1688 14.123 14.5279 14.123Z" fill="#EF4452"/>
<path d="M21.7253 18.9607L20.4524 19.6027C20.1875 19.7364 20.081 20.0595 20.2146 20.3245L20.8567 21.5974C20.9903 21.8624 21.3135 21.9688 21.5784 21.8352L22.8514 21.1931C23.1163 21.0595 23.2228 20.7363 23.0891 20.4714L22.4471 19.1985C22.3134 18.9335 21.9903 18.827 21.7253 18.9607Z" fill="#036D50"/>
<path d="M16.4497 10.8661L17.4679 11.3797C17.6798 11.4866 17.9382 11.4015 18.0451 11.1896L18.5587 10.1714C18.6655 9.95946 18.5804 9.70104 18.3685 9.59416L17.3503 9.08058C17.1384 8.9737 16.88 9.05884 16.7731 9.27074L16.2595 10.2889C16.1526 10.5008 16.2378 10.7593 16.4497 10.8661Z" fill="#299C50"/>
<path d="M8.54957 19.7126L9.68815 19.6483C9.9251 19.6349 10.1063 19.4319 10.0929 19.195L10.0286 18.0564C10.0152 17.8195 9.81228 17.6382 9.57533 17.6516L8.43676 17.7159C8.1998 17.7293 8.01857 17.9323 8.03196 18.1692L8.09629 19.3078C8.10968 19.5448 8.31262 19.726 8.54957 19.7126Z" fill="#45AA1F"/>
</g>
<defs>
<clipPath id="clip0_1104_11663">
<rect width="32" height="32" fill="white"/>
</clipPath>
</defs>
</svg>
