<svg width="30" height="30" viewBox="0 0 30 30" fill="none" xmlns="http://www.w3.org/2000/svg">
<g clip-path="url(#clip0_408_7003)">
<path d="M15 2.11621C7.75125 2.11621 1.875 7.37671 1.875 13.8657C1.875 16.4562 2.81925 18.845 4.4085 20.786C4.9905 21.497 5.25675 22.4142 5.08125 23.3157L4.365 26.9885C4.245 27.605 4.89 28.0872 5.44725 27.797L9.807 25.5275C10.4228 25.2072 11.1315 25.103 11.8088 25.2567C12.8302 25.4885 13.8982 25.6152 15 25.6152C22.2488 25.6152 28.125 20.3547 28.125 13.8657C28.125 7.37671 22.2488 2.11621 15 2.11621Z" fill="url(#paint0_linear_408_7003)"/>
<path d="M9.56544 12.7725C10.3769 12.7725 11.0339 13.4302 11.0339 14.241C11.0339 14.6302 10.8794 15.0037 10.6034 15.2797C10.3282 15.555 9.95469 15.7102 9.56469 15.7102C8.75319 15.7102 8.09619 15.0525 8.09619 14.2417C8.09619 13.431 8.75394 12.7732 9.56469 12.7732L9.56544 12.7725Z" fill="white"/>
<path d="M20.4343 15.7095C21.2454 15.7095 21.9028 15.052 21.9028 14.241C21.9028 13.4299 21.2454 12.7725 20.4343 12.7725C19.6233 12.7725 18.9658 13.4299 18.9658 14.241C18.9658 15.052 19.6233 15.7095 20.4343 15.7095Z" fill="white"/>
<path d="M14.9998 15.7095C15.8108 15.7095 16.4683 15.052 16.4683 14.241C16.4683 13.4299 15.8108 12.7725 14.9998 12.7725C14.1887 12.7725 13.5312 13.4299 13.5312 14.241C13.5312 15.052 14.1887 15.7095 14.9998 15.7095Z" fill="white"/>
</g>
<defs>
<linearGradient id="paint0_linear_408_7003" x1="5.76389" y1="6.46844" x2="29.9918" y2="20.9151" gradientUnits="userSpaceOnUse">
<stop stop-color="#FF8E00"/>
<stop offset="1" stop-color="#FF6A00"/>
</linearGradient>
<clipPath id="clip0_408_7003">
<rect width="30" height="30" fill="white"/>
</clipPath>
</defs>
</svg>
