<svg width="80" height="80" viewBox="0 0 80 80" fill="none" xmlns="http://www.w3.org/2000/svg">
<ellipse cx="41.5" cy="70.5" rx="27.5" ry="3.5" fill="url(#paint0_radial_363_1076)" fill-opacity="0.08"/>
<ellipse cx="41.5" cy="70.5" rx="27.5" ry="3.5" fill="url(#paint1_radial_363_1076)"/>
<g clip-path="url(#clip0_363_1076)">
<path d="M40 66.1243C54.4975 66.1243 66.25 54.4067 66.25 39.9523C66.25 25.4979 54.4975 13.7803 40 13.7803C25.5025 13.7803 13.75 25.4979 13.75 39.9523C13.75 54.4067 25.5025 66.1243 40 66.1243Z" fill="#FFC84D"/>
<path d="M37.7247 46.3479C39.9042 46.5384 41.5227 47.0934 42.5457 47.5614C42.9852 47.7624 43.4187 47.2749 43.1712 46.8609C42.3702 45.5289 40.7787 43.7064 37.9782 43.4634C35.1777 43.2204 33.2922 44.7369 32.2722 45.9114C31.9557 46.2759 32.2977 46.8309 32.7657 46.7094C33.8562 46.4259 35.5467 46.1574 37.7247 46.3479Z" fill="#FF6D00"/>
<path d="M30.8903 26.2491C32.6813 26.4051 33.6788 26.9046 34.5248 27.3681C35.0123 27.6351 35.4368 27.2766 35.2298 26.7216C34.7813 25.5216 33.4388 24.1566 31.0928 23.9511C28.7468 23.7471 27.1853 24.8586 26.5358 25.9626C26.2343 26.4741 26.5898 26.9001 27.1163 26.7216C28.0298 26.4126 29.1008 26.0931 30.8903 26.2491Z" fill="black"/>
<path d="M46.255 21.632C44.464 21.788 43.4665 22.2875 42.6205 22.751C42.133 23.018 41.7085 22.6595 41.9155 22.1045C42.364 20.9045 43.7065 19.5395 46.0525 19.334C48.3985 19.13 49.96 20.2415 50.6095 21.3455C50.911 21.857 50.5555 22.283 50.029 22.1045C49.1155 21.7955 48.0445 21.476 46.255 21.632Z" fill="black"/>
<path d="M31.51 36.1387C33.3566 36.1387 34.8535 34.6464 34.8535 32.8057C34.8535 30.9649 33.3566 29.4727 31.51 29.4727C29.6634 29.4727 28.1665 30.9649 28.1665 32.8057C28.1665 34.6464 29.6634 36.1387 31.51 36.1387Z" fill="black"/>
<path d="M45.4315 36.1389C47.2466 36.1389 48.718 34.4016 48.718 32.2584C48.718 30.1153 47.2466 28.3779 45.4315 28.3779C43.6164 28.3779 42.145 30.1153 42.145 32.2584C42.145 34.4016 43.6164 36.1389 45.4315 36.1389Z" fill="black"/>
<path d="M21.9639 58.6203C21.9639 55.9848 22.2039 52.8228 22.3239 51.0678C22.4154 49.7328 22.5084 47.2743 22.6779 46.1583C22.8519 45.0078 23.5164 44.0343 24.7884 44.4648C26.0034 44.8773 26.6139 46.6518 26.6139 48.1803C26.6139 49.7088 26.7279 50.7288 27.6414 51.1938C28.5549 51.6588 29.6859 51.5958 31.5069 51.5958C33.3279 51.5958 39.6609 51.4683 42.8784 51.4683C43.6209 51.4683 44.7684 51.5748 45.2949 52.0968C45.9504 52.7478 45.8184 54.0108 44.8419 54.4428C43.2744 55.1358 39.5844 54.9768 38.6064 55.4028C37.6284 55.8288 37.7049 56.5263 37.6464 57.5898C37.5759 58.8948 37.8834 62.2998 37.5759 63.7218C37.2279 65.3343 36.2739 66.2223 34.8414 66.2223H28.6779C24.9954 66.2223 21.9654 62.5878 21.9654 58.6203H21.9639Z" fill="#FF9210"/>
</g>
<defs>
<radialGradient id="paint0_radial_363_1076" cx="0" cy="0" r="1" gradientUnits="userSpaceOnUse" gradientTransform="translate(41.5 70.5) scale(27.5 3.5)">
<stop/>
<stop offset="1"/>
</radialGradient>
<radialGradient id="paint1_radial_363_1076" cx="0" cy="0" r="1" gradientUnits="userSpaceOnUse" gradientTransform="translate(41.5 70.5) scale(27.5 3.5)">
<stop stop-color="#F8F8F8" stop-opacity="0"/>
<stop offset="1" stop-color="#F8F8F8"/>
</radialGradient>
<clipPath id="clip0_363_1076">
<rect width="60" height="60" fill="white" transform="translate(10 10)"/>
</clipPath>
</defs>
</svg>
