<svg width="100" height="100" viewBox="0 0 100 100" fill="none" xmlns="http://www.w3.org/2000/svg">
<g clip-path="url(#clip0_425_5521)">
<path d="M87.5007 92.5C86.2207 92.5 84.9432 92.0125 83.9657 91.035L61.5132 68.5825C59.5607 66.63 59.5607 63.465 61.5132 61.5125C63.4657 59.56 66.6307 59.56 68.5832 61.5125L91.0357 83.965C92.9882 85.9175 92.9882 89.0825 91.0357 91.035C90.0582 92.0125 88.7807 92.5 87.5007 92.5Z" fill="#4E5968"/>
<path d="M74.0748 43.2875C74.0748 26.3125 60.2648 12.5 43.2873 12.5C34.7998 12.5 27.1023 15.9525 21.5273 21.5275L65.0448 65.0475C70.6198 59.4725 74.0748 51.775 74.0748 43.2875Z" fill="#E5E9EE"/>
<path d="M65.0475 65.0476L21.5275 21.5276C15.9525 27.1026 12.5 34.8001 12.5 43.2876C12.5 60.2626 26.3125 74.0751 43.2875 74.0751C51.775 74.0751 59.4725 70.6226 65.0475 65.0476Z" fill="#F0F3F6"/>
<path d="M43.285 77.8225C24.2425 77.8225 8.75 62.33 8.75 43.2875C8.75 24.245 24.2425 8.75 43.285 8.75C62.3275 8.75 77.8225 24.2425 77.8225 43.2875C77.8225 62.3325 62.33 77.8225 43.285 77.8225ZM43.285 16.25C28.3775 16.25 16.25 28.38 16.25 43.2875C16.25 58.195 28.38 70.3225 43.285 70.3225C58.19 70.3225 70.3225 58.1925 70.3225 43.2875C70.3225 28.3825 58.1925 16.25 43.285 16.25Z" fill="#A3ADB7"/>
</g>
<defs>
<clipPath id="clip0_425_5521">
<rect width="100" height="100" fill="white"/>
</clipPath>
</defs>
</svg>
