<svg width="48" height="48" viewBox="0 0 48 48" fill="none" xmlns="http://www.w3.org/2000/svg">
<circle cx="23.5" cy="23.5" r="16.5" fill="#F9C551"/>
<path d="M28 12.1014C28 13.262 25.5863 14 24.0633 14C22.5402 14 21 13.262 21 12.1014C21.2611 10.6784 22.1517 11.0636 23.1292 10.6784C23.9508 10.3547 24.5468 10 25.2423 10C26.7653 10 28 10.9408 28 12.1014Z" fill="#674D49"/>
<path d="M18 18.0683C18 18.939 15.8355 20 14.8571 20C13.8788 20 12 20.0058 12 19.1352C12 18.2646 14.0217 17 15 17C15.9783 17 18 17.1977 18 18.0683Z" fill="#6C4A45"/>
<path d="M17 28.8388C17 29.6672 16.0355 30 15.0572 30C14.0788 30 14 29.1591 14 28.3307C14 27.5023 14.0788 27 15.0572 27C16.0355 27 17 28.0103 17 28.8388Z" fill="#674D49"/>
<path d="M35 19.2233C35 19.8882 34.1781 20 33.2313 20C32.2845 20 31 19.461 31 18.7961C31 18.1312 32.2845 18 33.2313 18C34.1781 18 35 18.5584 35 19.2233Z" fill="#6C4A45"/>
<path d="M26 22.935C26 24.3157 24.7686 26 23.5895 26C22.4104 26 21 25.4448 21 24.064C21 22.6833 22.4104 21 23.5895 21C24.7686 21 26 21.5543 26 22.935Z" fill="#6C4A45"/>
<path d="M37 25.5C37 26.7229 35.4551 28 33.5493 28C31.6435 28 30 27.4372 30 26.2143C30 24.9914 31.5449 24 33.4507 24C35.3565 24 37 24.2771 37 25.5Z" fill="#674D49"/>
<path d="M29.1756 33.8901C28.5617 35.3249 26.728 35.3751 25.0968 34.6772C23.4657 33.9793 20.7571 33.4502 21.371 32.0154C21.985 30.5806 25.5947 30.2529 27.2259 30.9508C28.857 31.6487 29.7895 32.4553 29.1756 33.8901Z" fill="#674D49"/>
</svg>
