<svg width="32" height="32" viewBox="0 0 32 32" fill="none" xmlns="http://www.w3.org/2000/svg">
<g clip-path="url(#clip0_1104_11664)">
<path d="M29.9546 13.8252C29.7978 12.945 29.2625 12.2281 28.5457 11.8031C28.8737 10.9902 28.8385 10.0426 28.3625 9.22581C27.912 8.45184 27.1616 7.95939 26.3407 7.80317C26.3687 6.9277 26.0087 6.04985 25.279 5.4432C24.5886 4.86907 23.7133 4.66051 22.8885 4.79136C22.6125 3.9595 21.9708 3.25611 21.0772 2.93336C20.2299 2.62806 19.3354 2.72877 18.6058 3.13161C18.0601 2.44329 17.2145 2 16.2624 2C15.3616 2 14.5551 2.39809 14.0087 3.02455C13.2582 2.56303 12.3101 2.43298 11.4165 2.75573C10.5692 3.06103 9.94918 3.70812 9.65156 4.48209C8.7867 4.30287 7.85144 4.50191 7.12259 5.10856C6.43214 5.68269 6.07291 6.50106 6.06011 7.32895C5.18565 7.45345 4.376 7.9578 3.89996 8.77459C3.44953 9.54856 3.39433 10.4391 3.66795 11.2218C2.88949 11.6349 2.30225 12.3835 2.13664 13.3129C1.97983 14.1924 2.23585 15.0488 2.76308 15.6911C2.17424 16.3438 1.88062 17.2462 2.04544 18.1748C2.20225 19.055 2.73748 19.7719 3.45433 20.1969C3.12631 21.0098 3.16151 21.9574 3.63755 22.7742C4.08798 23.5482 4.83923 24.0406 5.65928 24.1968C5.63128 25.0723 5.99131 25.9502 6.72096 26.5568C7.41141 27.1309 8.28667 27.3395 9.11152 27.2086C9.38754 28.0405 10.0292 28.7439 10.9228 29.0666C11.7693 29.3719 12.6646 29.2712 13.3942 28.8684C13.9399 29.5567 14.7855 30 15.7376 30C16.6384 30 17.4449 29.6019 17.9913 28.9754C18.7418 29.437 19.6899 29.567 20.5835 29.2443C21.4308 28.939 22.0508 28.2919 22.3484 27.5179C23.2125 27.6971 24.1486 27.4981 24.8774 26.8914C25.5679 26.3173 25.9271 25.4989 25.9399 24.671C26.8143 24.5465 27.624 24.0422 28.1 23.2254C28.5505 22.4514 28.6057 21.5609 28.3321 20.7782C29.1105 20.3651 29.6977 19.6165 29.8634 18.6871C30.0202 17.8076 29.7642 16.9512 29.2369 16.3089C29.8258 15.6562 30.1194 14.7538 29.9546 13.8252Z" fill="#FFC450"/>
<path d="M16.8784 25.7568C17.9158 25.7568 18.7568 24.9158 18.7568 23.8784C18.7568 22.841 17.9158 22 16.8784 22C15.841 22 15 22.841 15 23.8784C15 24.9158 15.841 25.7568 16.8784 25.7568Z" fill="#6C4A45"/>
<path d="M8.2866 22.4297C9.32401 22.4297 10.165 21.5887 10.165 20.5513C10.165 19.5138 9.32401 18.6729 8.2866 18.6729C7.24919 18.6729 6.4082 19.5138 6.4082 20.5513C6.4082 21.5887 7.24919 22.4297 8.2866 22.4297Z" fill="#6C4A45"/>
<path d="M10.8784 12.7568C11.9158 12.7568 12.7568 11.9158 12.7568 10.8784C12.7568 9.84099 11.9158 9 10.8784 9C9.84099 9 9 9.84099 9 10.8784C9 11.9158 9.84099 12.7568 10.8784 12.7568Z" fill="#6C4A45"/>
<path d="M16.8784 17.7568C17.9158 17.7568 18.7568 16.9158 18.7568 15.8784C18.7568 14.841 17.9158 14 16.8784 14C15.841 14 15 14.841 15 15.8784C15 16.9158 15.841 17.7568 16.8784 17.7568Z" fill="#6C4A45"/>
<path d="M24.8784 20.7568C25.9158 20.7568 26.7568 19.9158 26.7568 18.8784C26.7568 17.841 25.9158 17 24.8784 17C23.841 17 23 17.841 23 18.8784C23 19.9158 23.841 20.7568 24.8784 20.7568Z" fill="#6C4A45"/>
<path d="M19.8784 9.7568C20.9158 9.7568 21.7568 8.91581 21.7568 7.8784C21.7568 6.84099 20.9158 6 19.8784 6C18.841 6 18 6.84099 18 7.8784C18 8.91581 18.841 9.7568 19.8784 9.7568Z" fill="#6C4A45"/>
</g>
<defs>
<clipPath id="clip0_1104_11664">
<rect width="32" height="32" fill="white"/>
</clipPath>
</defs>
</svg>
