<svg width="335" height="122" viewBox="0 0 335 122" fill="none" xmlns="http://www.w3.org/2000/svg">
<path d="M92.1893 4.39648V8.52734H94.035V2.95508H95.8983V17.791H94.035V10.1094H92.1893V14.4688H85.9491V4.39648H92.1893ZM87.7772 5.94336V12.9219H90.3612V5.94336H87.7772ZM99.1679 2.67383V18.5645H97.287V2.67383H99.1679ZM113.576 7.80664V9.38867H102.537V3.42969H104.488V7.80664H113.576ZM115.228 11.3398V12.9219H111.747V18.5645H109.779V12.9219H106.193V18.5645H104.242V12.9219H100.744V11.3398H115.228ZM124.977 4.0625V5.62695H123.589V10.3203C124.283 10.2764 124.96 10.2061 125.61 10.127L125.751 11.5684C122.552 12.0957 118.895 12.166 116.206 12.166L115.995 10.584L117.823 10.5664V5.62695H116.417V4.0625H124.977ZM128.563 2.69141V7.2793H130.778V8.91406H128.563V14.3809H126.612V2.69141H128.563ZM129.196 16.666V18.248H118.386V13.2734H120.337V16.666H129.196ZM119.704 10.5137C120.354 10.5049 121.022 10.4785 121.69 10.4434V5.62695H119.704V10.5137ZM147.852 2.69141V7.68359H150.066V9.30078H147.852V14.5566H145.9V2.69141H147.852ZM144.758 4.44922V6.01367H135.336V4.44922H139.08V2.67383H141.031V4.44922H144.758ZM140.047 6.66406C142.332 6.66406 143.914 7.87695 143.932 9.70508C143.914 11.5156 142.332 12.7109 140.047 12.7109C137.744 12.7109 136.144 11.5156 136.144 9.70508C136.144 7.87695 137.744 6.66406 140.047 6.66406ZM140.047 8.17578C138.834 8.17578 138.043 8.73828 138.043 9.70508C138.043 10.6543 138.834 11.2168 140.047 11.1992C141.26 11.2168 142.068 10.6543 142.068 9.70508C142.068 8.73828 141.26 8.17578 140.047 8.17578ZM148.484 16.666V18.248H137.674V13.625H139.625V16.666H148.484ZM160.302 5.53906C160.302 7.49023 161.567 9.31836 164.046 10.0742L163.114 11.6035C161.33 11.0498 160.064 9.91602 159.37 8.47461C158.667 10.1445 157.322 11.4717 155.415 12.1133L154.431 10.5664C156.997 9.72266 158.333 7.66602 158.333 5.55664V5.36328H154.976V3.78125H163.606V5.36328H160.302V5.53906ZM167.14 2.67383V6.48828H169.354V8.08789H167.14V12.1484H165.188V2.67383H167.14ZM161.972 12.5C165.259 12.5 167.28 13.6074 167.298 15.5059C167.28 17.4219 165.259 18.5469 161.972 18.5469C158.649 18.5469 156.593 17.4219 156.593 15.5059C156.593 13.6074 158.649 12.5 161.972 12.5ZM161.972 14.0293C159.792 14.0293 158.544 14.5391 158.544 15.5059C158.544 16.4902 159.792 17.0176 161.972 17.0176C164.151 17.0176 165.364 16.4902 165.364 15.5059C165.364 14.5391 164.151 14.0293 161.972 14.0293ZM177.118 3.57031C180.475 3.57031 183.042 5.3457 183.042 8.05273C183.042 10.7949 180.475 12.5703 177.118 12.5703C173.778 12.5703 171.211 10.7949 171.229 8.05273C171.211 5.3457 173.778 3.57031 177.118 3.57031ZM177.118 5.15234C174.815 5.13477 173.11 6.29492 173.11 8.05273C173.11 9.8457 174.815 10.9707 177.118 10.9707C179.438 10.9707 181.126 9.8457 181.126 8.05273C181.126 6.29492 179.438 5.13477 177.118 5.15234ZM184.413 14.9609V16.5605H169.893V14.9609H184.413ZM199.699 15.1016V16.7188H185.18V15.1016H191.438V12.5176H186.902V7.31445H196.043V5.3457H186.867V3.76367H197.977V8.86133H188.854V10.918H198.346V12.5176H193.371V15.1016H199.699ZM218.952 8.63281V10.1797H204.468V8.63281H208.511C208.985 6.98047 209.117 5.74121 209.161 4.81836H205.821V3.25391H211.077V3.93945C211.077 4.88867 211.077 6.48828 210.497 8.63281H214.821C215.252 7.00684 215.331 5.80273 215.366 4.81836H212.044V3.25391H217.265V4.16797C217.247 5.24902 217.247 6.7168 216.79 8.63281H218.952ZM217.23 11.4805V12.957H208.212V14.1875H216.843V15.5762H208.212V16.877H217.335V18.3711H206.243V11.4805H217.23ZM233.395 2.67383V18.5645H231.514V10.5312H229.756V17.7559H227.928V2.97266H229.756V8.93164H231.514V2.67383H233.395ZM222.409 4.50195V12.8867C223.78 12.8604 225.283 12.7461 226.944 12.4121L227.137 14.1172C224.993 14.5039 223.182 14.6094 221.495 14.6094H220.44V4.50195H222.409ZM247.908 7.17383V8.7207H236.904V3.25391H238.838V7.17383H247.908ZM249.543 10.5664V12.1133H235.024V10.5664H249.543ZM248.014 16.6133V18.1953H236.764V13.5195H238.715V16.6133H248.014ZM125.188 30.8086V32.4082H122.833V40.5293H120.882V24.6738H122.833V30.8086H125.188ZM112.884 26.2207V34.9922C115.002 34.957 117.261 34.7725 119.651 34.2715L119.862 35.9238C117.19 36.4512 114.642 36.6094 112.286 36.6094H110.95V26.2207H112.884ZM133.743 26.0449V33.5508H126.219V26.0449H133.743ZM128.135 27.6094V32.0039H131.827V27.6094H128.135ZM138.207 24.6738V29.332H140.422V30.9668H138.207V36.2754H136.256V24.6738H138.207ZM138.84 38.666V40.248H128.03V35.1504H129.981V38.666H138.84ZM146.111 25.7812C148.625 25.7637 150.471 27.3633 150.488 29.6133C150.471 31.8809 148.625 33.4629 146.111 33.4629C143.615 33.4629 141.752 31.8809 141.752 29.6133C141.752 27.3633 143.615 25.7637 146.111 25.7812ZM146.111 27.4688C144.723 27.4688 143.686 28.2949 143.686 29.6133C143.686 30.9492 144.723 31.7578 146.111 31.7578C147.518 31.7578 148.572 30.9492 148.572 29.6133C148.572 28.2949 147.518 27.4688 146.111 27.4688ZM154.197 24.6738V40.582H152.246V24.6738H154.197ZM141.031 35.6602C143.896 35.6602 147.869 35.625 151.297 35.1328L151.455 36.5566C147.887 37.2422 144.072 37.2598 141.277 37.2598L141.031 35.6602ZM166.173 26.9414C166.173 29.0332 167.474 31.002 170.005 31.793L169.038 33.3398C167.201 32.7246 165.892 31.5205 165.188 29.9648C164.459 31.6348 163.132 32.9619 161.251 33.6035L160.267 32.0742C162.833 31.1953 164.151 29.1035 164.151 26.9414V25.4297H166.173V26.9414ZM173.485 34.9043V40.5645H171.517V36.4688H162.64V34.9043H173.485ZM173.485 24.6738V34.1836H171.517V24.6738H173.485ZM188.069 24.6738V29.1387H190.301V30.7559H188.069V36.1699H186.118V24.6738H188.069ZM183.323 25.9922V27.5566H178.137V31.8809C181.126 31.8896 182.787 31.7842 184.676 31.3887L184.887 32.9707C182.813 33.375 180.95 33.4805 177.487 33.4805H176.204V25.9922H183.323ZM188.702 38.666V40.248H177.891V34.957H179.842V38.666H188.702ZM209.308 34.2188V35.8184H203.015V40.582H201.082V35.8184H194.824V34.2188H209.308ZM207.955 26.5547V28.1016H203.05C203.235 29.6748 205.3 31.3184 208.482 31.7051L207.761 33.252C205.133 32.918 203.094 31.7578 202.066 30.2285C201.02 31.7754 198.963 32.918 196.318 33.252L195.615 31.7051C198.788 31.3184 200.871 29.7012 201.064 28.1016H196.16V26.5547H201.082V24.6914H203.015V26.5547H207.955ZM215.823 28.4355C215.823 30.334 217.142 32.1621 219.655 32.9355L218.706 34.4648C216.904 33.9199 215.604 32.7686 214.874 31.3008C214.171 32.8828 212.861 34.1309 211.007 34.7285L210.058 33.1992C212.554 32.4082 213.872 30.4746 213.872 28.4355V28.1895H210.55V26.6426H213.872V24.7793H215.841V26.6426H219.146V28.1895H215.823V28.4355ZM223.417 24.6914V36.4863H221.466V30.9844H218.618V29.4199H221.466V24.6914H223.417ZM223.821 38.666V40.248H212.993V35.4668H214.944V38.666H223.821Z" fill="#FF7700"/>
<path d="M138.342 77.3995C141.436 80.6589 142.984 85.519 142.984 91.9824V110.16C142.984 113.908 139.948 116.946 136.202 116.946C132.457 116.946 129.421 113.908 129.421 110.16V94.2441C129.421 91.0677 128.815 88.6979 127.604 87.1348C126.393 85.573 124.709 84.7915 122.557 84.7915C120.081 84.7915 118.117 85.6534 116.663 87.3774C115.21 89.1013 114.483 91.7399 114.483 95.2945V110.2C114.483 113.926 111.464 116.946 107.741 116.946C104.018 116.946 100.999 113.926 100.999 110.2V94.2441C100.999 87.9428 98.6573 84.7915 93.9748 84.7915C91.5526 84.7915 89.6276 85.6534 88.2024 87.3774C86.7747 89.1013 86.0627 91.7399 86.0627 95.2945V110.16C86.0627 113.908 83.0265 116.946 79.2807 116.946C75.5363 116.948 72.5 113.908 72.5 110.161V76.8404C72.5 73.2707 75.3919 70.377 78.9593 70.377C82.5267 70.377 85.4186 73.2707 85.4186 76.8404V77.441C86.9794 75.8251 88.8227 74.6013 90.9499 73.7645C93.0758 72.9302 95.4026 72.513 97.9328 72.513C100.678 72.513 103.208 73.052 105.522 74.1289C107.836 75.2069 109.748 76.8228 111.254 78.9764C113.03 76.9296 115.182 75.3414 117.714 74.2093C120.243 73.0784 122.961 72.513 125.868 72.513C131.088 72.513 135.247 74.1427 138.342 77.4008V77.3995Z" fill="#FF8E00"/>
<path d="M188.919 99.1733H162.201C162.793 101.435 164.031 103.2 165.914 104.464C167.798 105.731 170.166 106.363 173.019 106.363C175.065 106.363 176.854 106.054 178.388 105.434C178.734 105.295 179.077 105.138 179.418 104.962C181.705 103.781 184.509 104.368 186.199 106.309C188.6 109.066 187.786 113.32 184.561 115.042C181.274 116.797 177.292 117.674 172.616 117.674C167.94 117.674 163.6 116.705 159.941 114.766C156.279 112.826 153.454 110.148 151.464 106.727C149.472 103.308 148.477 99.4435 148.477 95.1337C148.477 90.8239 149.459 86.9476 151.424 83.4998C153.388 80.0532 156.092 77.3593 159.538 75.4205C162.982 73.4817 166.831 72.5117 171.083 72.5117C175.335 72.5117 178.955 73.4277 182.266 75.2584C185.576 77.0904 188.187 79.7416 190.098 83.2158C192.008 86.69 192.963 90.7435 192.963 95.3749C192.828 97.5097 191.057 99.1721 188.919 99.1721V99.1733ZM165.067 85.2363C163.424 86.6096 162.388 88.5358 161.958 91.0124H180.204C179.773 88.5886 178.764 86.6775 177.177 85.2765C175.588 83.8767 173.584 83.1756 171.162 83.1756C168.74 83.1756 166.708 83.8617 165.067 85.235V85.2363Z" fill="#FF8E00"/>
<path d="M212.097 63.7863V110.16C212.097 113.908 209.061 116.946 205.315 116.946C201.569 116.946 198.533 113.908 198.533 110.16V63.7863C198.533 60.0382 201.569 57 205.315 57C209.061 57 212.097 60.0382 212.097 63.7863Z" fill="#FF8E00"/>
<path d="M229.01 114.807C225.484 112.896 222.725 110.215 220.733 106.768C218.742 103.321 217.746 99.4435 217.746 95.1337C217.746 90.8239 218.741 86.881 220.733 83.4596C222.724 80.0394 225.484 77.3605 229.01 75.4205C232.534 73.4817 236.531 72.5117 240.999 72.5117C245.467 72.5117 249.382 73.4817 252.908 75.4205C256.433 77.3593 259.191 80.0394 261.184 83.4596C263.175 86.881 264.172 90.7711 264.172 95.1337C264.172 99.4962 263.175 103.321 261.184 106.768C259.193 110.215 256.433 112.896 252.908 114.807C249.382 116.719 245.411 117.674 240.999 117.674C236.586 117.674 232.534 116.719 229.01 114.807ZM247.782 103.091C249.558 101.125 250.447 98.4735 250.447 95.1324C250.447 91.7914 249.572 89.061 247.822 87.0934C246.072 85.1282 243.798 84.1444 241 84.1444C238.203 84.1444 235.994 85.1282 234.218 87.0934C232.441 89.0598 231.554 91.7386 231.554 95.1324C231.554 98.5262 232.441 101.125 234.218 103.091C235.994 105.057 238.255 106.04 241 106.04C243.745 106.04 246.005 105.057 247.782 103.091Z" fill="#FF8E00"/>
</svg>
