<svg width="375" height="171" viewBox="0 0 375 171" fill="none" xmlns="http://www.w3.org/2000/svg">
<g filter="url(#filter0_d_413_1810)">
<path d="M117.264 12.8201C117.118 9.40808 119.766 6.52408 123.178 6.37851L236.313 1.55174C239.725 1.40617 242.609 4.05416 242.755 7.46619L247.861 127.165C248.007 130.577 245.359 133.461 241.947 133.607L128.812 138.434C125.4 138.579 122.516 135.931 122.37 132.519L117.264 12.8201Z" fill="#FF8E00" shape-rendering="crispEdges"/>
<path d="M123.194 6.76488L236.33 1.9381C239.528 1.8018 242.232 4.28396 242.369 7.48261L247.475 127.181C247.612 130.38 245.129 133.084 241.931 133.221L128.795 138.048C125.597 138.184 122.893 135.701 122.757 132.502L117.65 12.8036C117.513 9.60484 119.996 6.90138 123.194 6.76488Z" stroke="#FF9F4A" stroke-width="0.772955" shape-rendering="crispEdges"/>
<path d="M135.173 25.4305L136.44 25.3764L136.277 21.5514L137.556 21.4968L137.99 31.6809L136.711 31.7355L136.486 26.4624L135.219 26.5165L135.347 29.509L131.063 29.6917L130.768 22.7776L135.052 22.5949L135.173 25.4305ZM132.273 28.5763L134.047 28.5006L133.842 23.7103L132.068 23.7859L132.273 28.5763ZM140.257 32.1161L138.966 32.1711L138.501 21.2631L139.792 21.208L140.257 32.1161ZM149.57 25.4086L141.992 25.7319L141.817 21.6414L143.157 21.5842L143.285 24.5888L149.523 24.3226L149.57 25.4086ZM150.807 27.7856L148.418 27.8875L148.583 31.7608L147.232 31.8185L147.067 27.9452L144.605 28.0502L144.77 31.9235L143.431 31.9806L143.266 28.1073L140.865 28.2098L140.818 27.1238L150.761 26.6996L150.807 27.7856ZM156.977 22.5056L156.024 22.5463L156.162 25.7741C156.599 25.7232 157.059 25.6572 157.543 25.5761L157.682 26.5614C156.708 26.7642 155.671 26.9172 154.571 27.0206C153.471 27.1239 152.33 27.2008 151.148 27.2512L150.957 26.1714L152.211 26.1058L152.066 22.7152L151.101 22.7563L151.055 21.6824L156.931 21.4317L156.977 22.5056ZM159.487 23.5349L161.008 23.47L161.055 24.5922L159.535 24.657L159.695 28.4097L158.356 28.4669L158.014 20.4427L159.353 20.3855L159.487 23.5349ZM160.243 31.0458L152.822 31.3624L152.676 27.9476L154.016 27.8905L154.115 30.2193L160.197 29.9598L160.243 31.0458ZM153.501 26.0206C153.798 25.9998 154.252 25.9644 154.862 25.9141L154.721 22.6019L153.357 22.6601L153.501 26.0206ZM169.747 21.7432L167.509 21.8387C167.551 22.0586 167.678 22.2606 167.892 22.445C168.109 22.6251 168.401 22.7758 168.769 22.8971C169.141 23.0142 169.567 23.0887 170.048 23.1206L169.643 24.117C169.004 24.0597 168.448 23.9262 167.976 23.7167C167.508 23.503 167.147 23.2282 166.895 22.8924C166.669 23.2647 166.328 23.5855 165.872 23.8548C165.417 24.1241 164.865 24.3209 164.217 24.4452L163.73 23.4989C164.214 23.4178 164.636 23.2971 164.996 23.1367C165.359 22.9761 165.642 22.7888 165.842 22.5747C166.042 22.3607 166.152 22.1344 166.17 21.8959L163.943 21.9908L163.901 21.0014L166.133 20.9062L166.097 20.0615L167.425 20.0049L167.461 20.8495L169.705 20.7538L169.747 21.7432ZM167.629 24.8013C168.621 24.7106 169.499 24.6027 170.263 24.4774L170.399 25.3903C169.404 25.5939 168.367 25.743 167.287 25.8374C166.207 25.9318 165.025 26.0064 163.742 26.0611L163.554 25.0537C164.568 25.0105 165.484 24.9613 166.304 24.9062L166.262 23.9107L167.589 23.8541L167.629 24.8013ZM172.398 28.9074L166.474 29.1601L166.505 29.8962L172.816 29.6269L172.858 30.6285L165.208 30.9548L165.095 28.3002L171.02 28.0475L170.99 27.3597L165.042 27.6135L165 26.6361L172.288 26.3251L172.398 28.9074ZM172.115 22.2587L173.587 22.1959L173.633 23.294L172.161 23.3568L172.27 25.9028L170.931 25.96L170.672 19.8905L172.011 19.8334L172.115 22.2587ZM176.611 20.2536C177.045 20.2351 177.451 20.2944 177.827 20.4314C178.208 20.5643 178.535 20.7639 178.808 21.0303L181.414 20.9191L181.351 19.4349L182.69 19.3778L182.964 25.7971L181.625 25.8543L181.566 24.4666L178.953 24.5781C178.707 24.8626 178.401 25.0892 178.033 25.258C177.67 25.4226 177.27 25.5122 176.836 25.5267C176.297 25.5537 175.802 25.464 175.35 25.2577C174.902 25.0511 174.542 24.7522 174.272 24.3608C174.005 23.9692 173.861 23.522 173.84 23.0192C173.818 22.5124 173.923 22.0526 174.156 21.6398C174.392 21.2267 174.724 20.8983 175.153 20.6543C175.582 20.4104 176.068 20.2768 176.611 20.2536ZM176.66 21.4C176.346 21.4133 176.071 21.4875 175.835 21.6225C175.599 21.7535 175.417 21.9345 175.29 22.1656C175.163 22.3966 175.106 22.663 175.119 22.9647C175.131 23.2583 175.211 23.5168 175.357 23.7402C175.504 23.9596 175.7 24.1265 175.947 24.2409C176.198 24.3551 176.478 24.4057 176.788 24.3924C177.085 24.3797 177.35 24.306 177.582 24.1712C177.818 24.0362 178 23.8532 178.127 23.6221C178.254 23.387 178.313 23.1225 178.304 22.8288C178.288 22.5273 178.206 22.2668 178.06 22.0474C177.913 21.828 177.719 21.663 177.476 21.5525C177.234 21.4379 176.962 21.3871 176.66 21.4ZM179.282 26.1839C180.042 26.1515 180.705 26.2078 181.271 26.3529C181.842 26.4978 182.284 26.7227 182.6 27.0276C182.915 27.3324 183.082 27.7061 183.101 28.1485C183.12 28.591 182.985 28.9775 182.697 29.3081C182.409 29.6387 181.987 29.9005 181.431 30.0935C180.879 30.2863 180.223 30.3989 179.463 30.4313C178.703 30.4637 178.039 30.4074 177.473 30.2623C176.911 30.1171 176.472 29.892 176.157 29.5871C175.846 29.2821 175.683 28.9083 175.668 28.4656C175.645 28.0234 175.776 27.637 176.06 27.3066C176.348 26.976 176.766 26.7143 177.314 26.5217C177.865 26.329 178.521 26.2163 179.282 26.1839ZM179.325 27.2096C178.561 27.2422 177.974 27.3619 177.564 27.5688C177.158 27.7755 176.964 28.0558 176.983 28.4095C176.994 28.7516 177.21 29.0083 177.632 29.1797C178.059 29.3468 178.654 29.4141 179.418 29.3815C180.19 29.3486 180.782 29.2307 181.192 29.0278C181.602 28.8209 181.8 28.5465 181.786 28.2046C181.77 27.8507 181.55 27.5881 181.123 27.4169C180.701 27.2456 180.102 27.1764 179.325 27.2096ZM179.457 22.0785C179.532 22.313 179.574 22.5449 179.583 22.7742C179.593 22.9914 179.572 23.2219 179.522 23.4658L181.519 23.3806L181.46 21.993L179.457 22.0785ZM192.469 23.3124L194.146 23.2408L194.194 24.351L192.516 24.4225L192.749 29.8766L191.422 29.9332L190.956 19.0251L192.284 18.9685L192.469 23.3124ZM190.229 21.8123L183.798 22.0867L183.752 21.0128L186.334 20.9026L186.269 19.3822L187.609 19.3251L187.673 20.8455L190.183 20.7384L190.229 21.8123ZM187.086 22.6596C187.605 22.6375 188.076 22.7282 188.5 22.9317C188.927 23.1311 189.268 23.4208 189.522 23.8008C189.776 24.1808 189.914 24.6182 189.935 25.1129C189.956 25.6076 189.856 26.0551 189.635 26.4554C189.415 26.8517 189.1 27.1673 188.691 27.4023C188.286 27.6372 187.824 27.7657 187.305 27.7879C186.778 27.8103 186.301 27.7219 185.873 27.5225C185.445 27.3232 185.105 27.0355 184.851 26.6595C184.597 26.2795 184.462 25.842 184.444 25.3471C184.419 24.8526 184.517 24.4052 184.738 24.0049C184.958 23.6046 185.273 23.287 185.682 23.0519C186.091 22.8129 186.559 22.6821 187.086 22.6596ZM187.133 23.7577C186.847 23.7698 186.594 23.8411 186.374 23.9713C186.158 24.1014 185.993 24.2818 185.878 24.5123C185.762 24.7389 185.711 24.999 185.723 25.2926C185.736 25.5862 185.809 25.8409 185.943 26.0568C186.077 26.2687 186.258 26.4303 186.484 26.5415C186.714 26.6485 186.972 26.6939 187.257 26.6777C187.535 26.6699 187.78 26.6031 187.992 26.4771C188.208 26.347 188.374 26.1707 188.489 25.9482C188.609 25.7215 188.664 25.4613 188.656 25.1675C188.639 24.874 188.562 24.6194 188.424 24.4037C188.289 24.1878 188.109 24.0243 187.883 23.913C187.66 23.7976 187.41 23.7458 187.133 23.7577ZM203.501 29.4178L202.149 29.4755L201.684 18.5674L203.035 18.5098L203.501 29.4178ZM199.827 19.8071C199.901 21.5407 199.574 23.0798 198.845 24.4245C198.117 25.7652 196.862 26.9046 195.08 27.8429L194.335 26.7989C195.71 26.0713 196.732 25.2279 197.4 24.2686C198.072 23.305 198.442 22.1913 198.509 20.9272L194.647 21.0919L194.602 20.0301L199.827 19.8071Z" fill="white"/>
<path d="M134.909 47.2593C134.924 47.6959 135.033 48.109 135.237 48.4987C135.443 48.8848 135.731 49.2216 136.099 49.5091C136.468 49.7966 136.895 50.0093 137.38 50.1473L136.907 50.9607C136.357 50.7938 135.872 50.5342 135.451 50.1819C135.034 49.826 134.708 49.4045 134.472 48.9174C134.28 49.4651 133.989 49.9482 133.597 50.3668C133.21 50.7818 132.742 51.0996 132.194 51.3205L131.654 50.5608C132.129 50.3678 132.537 50.1018 132.879 49.7628C133.224 49.4237 133.483 49.0425 133.655 48.6191C133.827 48.1922 133.904 47.7535 133.885 47.303L133.846 46.395L134.87 46.3513L134.909 47.2593ZM139.657 55.1696L138.654 55.2123L138.547 52.6995L133.141 52.9301L133.106 52.1172L139.515 51.8437L139.657 55.1696ZM139.496 51.3897L138.493 51.4325L138.25 45.7523L139.253 45.7095L139.496 51.3897ZM148.136 47.7315L149.498 47.6734L149.533 48.497L148.171 48.5551L148.272 50.9201L147.259 50.9633L147.02 45.3781L148.034 45.3348L148.136 47.7315ZM145.218 51.2302C145.862 51.2027 146.421 51.2512 146.895 51.3755C147.373 51.4997 147.745 51.6954 148.01 51.9626C148.275 52.2263 148.416 52.5499 148.432 52.9336C148.449 53.3172 148.336 53.6516 148.094 53.937C147.853 54.2258 147.499 54.4524 147.034 54.6168C146.568 54.7848 146.015 54.8806 145.375 54.9045C144.727 54.9356 144.161 54.8875 143.676 54.7601C143.191 54.6362 142.815 54.4407 142.546 54.1737C142.277 53.9101 142.135 53.5865 142.118 53.2029C142.102 52.8193 142.216 52.4848 142.462 52.1993C142.707 51.9103 143.064 51.6835 143.533 51.519C144.005 51.3542 144.567 51.258 145.218 51.2302ZM145.253 52.0432C144.799 52.059 144.408 52.1145 144.08 52.2096C143.756 52.301 143.51 52.4278 143.34 52.5902C143.175 52.7524 143.098 52.9425 143.111 53.1606C143.117 53.3754 143.209 53.5583 143.388 53.7094C143.571 53.8567 143.827 53.9639 144.158 54.0308C144.489 54.0978 144.883 54.1216 145.341 54.102C145.788 54.083 146.171 54.0261 146.491 53.9313C146.812 53.8365 147.057 53.708 147.226 53.5456C147.395 53.3797 147.477 53.1894 147.471 52.9745C147.459 52.76 147.361 52.5791 147.178 52.4317C146.996 52.2809 146.739 52.1737 146.409 52.1102C146.081 52.0431 145.696 52.0208 145.253 52.0432ZM145.279 46.9649L142.049 47.1028L142.158 49.679C143.13 49.634 143.912 49.5777 144.505 49.5101C145.098 49.4425 145.68 49.3383 146.253 49.1975L146.382 50.0065C145.786 50.1588 145.173 50.2678 144.545 50.3334C143.917 50.399 143.052 50.4553 141.95 50.5023L141.201 50.5343L141.021 46.3321L145.245 46.152L145.279 46.9649ZM156.391 48.5111L157.658 48.4571L157.515 45.1102L158.476 45.0692L158.852 53.8852L157.891 53.9262L157.693 49.2806L156.426 49.3347L156.538 51.9531L152.864 52.1099L152.612 46.2078L156.286 46.0511L156.391 48.5111ZM153.78 51.2669L155.564 51.1908L155.38 46.883L153.596 46.9592L153.78 51.2669ZM160.794 54.2678L159.833 54.3088L159.429 44.8487L160.39 44.8077L160.794 54.2678ZM169.233 48.3758L162.676 48.6555L162.528 45.1819L163.542 45.1386L163.655 47.7993L169.198 47.5628L169.233 48.3758ZM170.315 50.4239L168.161 50.5158L168.307 53.9472L167.294 53.9905L167.147 50.5591L164.856 50.6568L165.002 54.0882L163.999 54.131L163.853 50.6996L161.689 50.792L161.654 49.979L170.28 49.611L170.315 50.4239ZM176.058 45.8104L175.161 45.8487L175.288 48.8156C175.74 48.7575 176.175 48.6966 176.591 48.633L176.687 49.3799C175.837 49.5537 174.93 49.6858 173.964 49.7764C173.002 49.8633 172.003 49.9288 170.968 49.9729L170.817 49.1544L171.978 49.0943L171.846 45.9902L170.948 46.0285L170.914 45.2155L176.024 44.9975L176.058 45.8104ZM178.166 46.8629L179.538 46.8043L179.575 47.649L178.202 47.7075L178.343 51.0228L177.34 51.0656L177.044 44.1078L178.047 44.065L178.166 46.8629ZM178.842 53.2968L172.444 53.5698L172.318 50.6135L173.321 50.5707L173.412 52.714L178.808 52.4838L178.842 53.2968ZM172.948 49.0264C173.448 48.9945 173.901 48.9576 174.308 48.9155L174.179 45.8906L172.817 45.9487L172.948 49.0264ZM188.034 53.1268L187.031 53.1696L186.626 43.6884L187.629 43.6456L188.034 53.1268ZM182.602 44.5687C183.07 44.5488 183.495 44.6681 183.876 44.9269C184.257 45.1821 184.562 45.5569 184.791 46.0514C185.024 46.5421 185.154 47.1183 185.182 47.7799C185.211 48.4451 185.13 49.0338 184.94 49.5461C184.754 50.0582 184.482 50.4594 184.124 50.7497C183.766 51.0365 183.353 51.1898 182.885 51.2098C182.41 51.2301 181.982 51.1126 181.601 50.8574C181.22 50.5986 180.913 50.2239 180.68 49.7331C180.451 49.2387 180.322 48.6572 180.294 47.9885C180.265 47.3233 180.344 46.7364 180.531 46.2278C180.72 45.7155 180.994 45.316 181.352 45.0293C181.71 44.7425 182.127 44.589 182.602 44.5687ZM182.64 45.4662C182.348 45.4786 182.094 45.5882 181.877 45.7949C181.663 46.0015 181.503 46.2904 181.395 46.6616C181.288 47.0294 181.244 47.4579 181.265 47.947C181.286 48.4398 181.366 48.8665 181.505 49.2273C181.644 49.588 181.828 49.8622 182.058 50.0498C182.292 50.2373 182.555 50.3248 182.847 50.3124C183.136 50.3 183.387 50.1906 183.6 49.9841C183.813 49.7775 183.974 49.4886 184.081 49.1173C184.189 48.7461 184.232 48.3141 184.211 47.8214C184.19 47.3322 184.11 46.909 183.972 46.5517C183.833 46.191 183.648 45.9168 183.418 45.7291C183.188 45.5415 182.929 45.4539 182.64 45.4662ZM198.008 47.751L196.54 47.8137L196.749 52.7232L195.746 52.766L195.343 43.3164L196.346 43.2737L196.505 46.9901L197.972 46.9275L198.008 47.751ZM190.594 49.7703C192.037 49.7087 193.432 49.5082 194.779 49.1687L194.931 50.0084C194.184 50.1918 193.441 50.3311 192.701 50.4261C191.964 50.5175 191.204 50.5799 190.419 50.6134L189.638 50.6467L189.375 44.4913L190.367 44.449L190.594 49.7703ZM202.037 46.1724L203.842 46.0953L203.746 43.8359L204.675 43.7963L204.941 50.0467L201.257 50.2039L200.99 43.9535L201.94 43.9129L202.037 46.1724ZM203.978 49.2733L203.876 46.8872L202.07 46.9642L202.172 49.3504L203.978 49.2733ZM209.18 52.2034L208.219 52.2444L208.009 47.3138L206.837 47.3638L207.027 51.8299L206.077 51.8704L205.701 43.0544L206.651 43.0138L206.802 46.5402L207.974 46.4902L207.815 42.7843L208.776 42.7433L209.18 52.2034ZM214.499 43.8319L211.268 43.9698L211.366 46.2715L211.525 46.2647C212.369 46.2287 213.086 46.1752 213.676 46.1042C214.265 46.0297 214.852 45.9218 215.439 45.7804L215.589 46.5673C214.979 46.7273 214.356 46.842 213.721 46.9114C213.089 46.9807 212.235 47.0383 211.158 47.0842L210.408 47.1162L210.241 43.2097L214.465 43.0295L214.499 43.8319ZM217.333 44.3139L218.706 44.2554L218.741 45.0789L217.368 45.1375L217.453 47.133L216.45 47.1758L216.248 42.4246L217.251 42.3818L217.333 44.3139ZM217.575 49.9942L212.465 50.2122L212.504 51.1308L217.942 50.8988L217.977 51.7118L211.557 51.9857L211.45 49.4834L216.55 49.2658L216.514 48.4212L211.393 48.6396L211.359 47.8372L217.472 47.5764L217.575 49.9942ZM223.748 42.6335C224.167 42.6121 224.544 42.6859 224.879 42.8549C225.217 43.0203 225.487 43.2644 225.688 43.5873C225.888 43.9066 225.997 44.2757 226.015 44.6945C226.033 45.1098 225.955 45.4851 225.783 45.8203C225.61 46.1556 225.362 46.4218 225.039 46.6189C224.72 46.8159 224.351 46.9233 223.932 46.9412C223.513 46.959 223.134 46.8835 222.796 46.7146C222.461 46.5456 222.193 46.3014 221.992 45.9821C221.795 45.6626 221.69 45.2951 221.676 44.8797C221.654 44.461 221.728 44.0841 221.897 43.749C222.07 43.4102 222.316 43.1441 222.635 42.9507C222.958 42.7535 223.329 42.6478 223.748 42.6335ZM223.783 43.4464C223.537 43.4569 223.319 43.5226 223.13 43.6435C222.945 43.7607 222.802 43.9237 222.702 44.1325C222.605 44.3376 222.562 44.5739 222.573 44.8414C222.584 45.1018 222.647 45.3318 222.761 45.5315C222.879 45.7274 223.037 45.8776 223.235 45.9819C223.433 46.0828 223.654 46.128 223.897 46.1176C224.136 46.1074 224.349 46.0437 224.534 45.9265C224.723 45.8056 224.867 45.6426 224.968 45.4373C225.068 45.2285 225.115 44.9938 225.107 44.7333C225.092 44.4659 225.026 44.2343 224.908 44.0384C224.79 43.8389 224.634 43.6887 224.439 43.5877C224.245 43.4831 224.026 43.4361 223.783 43.4464ZM229.763 47.0097L228.813 47.0503L228.719 44.8436L227.61 44.8909L227.702 47.0342L226.772 47.0739L226.563 42.1643L227.492 42.1247L227.574 44.0568L228.683 44.0095L228.593 41.9084L229.544 41.8679L229.763 47.0097ZM224.503 48.6832L228.843 48.4981L228.799 47.4634L229.781 47.4215L229.942 51.2013L223.628 51.4707L223.467 47.6909L224.459 47.6485L224.503 48.6832ZM228.925 50.4302L228.878 49.3111L224.538 49.4962L224.586 50.6154L228.925 50.4302ZM136.952 63.1655C136.973 63.6653 137.154 64.1441 137.494 64.6021C137.838 65.0598 138.283 65.4446 138.829 65.7562C139.374 66.0644 139.95 66.2602 140.557 66.3436L140.128 67.1975C139.62 67.1099 139.13 66.951 138.658 66.7208C138.187 66.4906 137.762 66.2037 137.384 65.8602C137.01 65.513 136.713 65.1255 136.494 64.6976C136.308 65.1392 136.043 65.5489 135.7 65.9267C135.36 66.3009 134.964 66.6227 134.514 66.8923C134.064 67.1618 133.588 67.3637 133.086 67.498L132.607 66.6828C133.196 66.5448 133.748 66.2991 134.262 65.9458C134.776 65.5889 135.181 65.1697 135.478 64.6881C135.778 64.2028 135.917 63.7103 135.896 63.2106L135.865 62.4926L136.921 62.4476L136.952 63.1655ZM141.099 69.8745L132.441 70.2438L132.406 69.4097L141.063 69.0404L141.099 69.8745ZM148.973 63.3825C148.999 63.9913 149.014 64.5037 149.018 64.9196C149.021 65.3355 149.004 65.8069 148.967 66.3338C148.929 66.8573 148.86 67.4279 148.76 68.0456L147.763 67.993C147.913 67.2003 147.999 66.4192 148.023 65.6496L142.355 66.1928L142.193 65.3747L148.038 64.9032C148.037 64.7023 148.034 64.505 148.029 64.3113C148.024 64.114 148.019 63.9168 148.014 63.7196L148.002 63.4239L147.988 63.0966L142.371 63.3363L142.336 62.5127L148.924 62.2317L148.973 63.3825ZM150.248 69.463L141.622 69.831L141.587 69.0075L150.213 68.6394L150.248 69.463ZM158.586 67.8803L157.593 67.9226L157.296 60.9648L158.289 60.9225L158.586 67.8803ZM158.947 70.1601L152.433 70.4381L152.312 67.5979L153.315 67.5551L153.401 69.5823L158.913 69.3472L158.947 70.1601ZM155.428 64.5245L152.081 64.6673L152.139 66.0293C153.068 65.9861 153.854 65.9297 154.496 65.86C155.138 65.7867 155.791 65.676 156.454 65.5278L156.595 66.3469C155.893 66.5037 155.202 66.6179 154.521 66.6892C153.84 66.7606 152.994 66.8178 151.984 66.8609L151.192 66.8947L151.067 63.949L154.403 63.8066L154.349 62.5502L150.992 62.6935L150.958 61.891L155.308 61.7054L155.428 64.5245ZM168.512 62.8768L167.171 62.934L167.226 64.2221L168.567 64.1649L168.603 64.999L167.262 65.0562L167.34 66.8827L166.337 66.9255L166.066 60.5801L167.069 60.5373L167.136 62.1105L168.477 62.0533L168.512 62.8768ZM162.985 62.2558C163.003 62.6676 163.111 63.0596 163.311 63.4319C163.513 63.804 163.795 64.1287 164.156 64.406C164.517 64.6832 164.935 64.8875 165.409 65.0189L164.893 65.813C164.375 65.6588 163.919 65.4156 163.524 65.0834C163.129 64.7477 162.817 64.3485 162.589 63.8857C162.401 64.4332 162.117 64.9143 161.736 65.3289C161.355 65.7401 160.895 66.0577 160.354 66.2817L159.771 65.5133C160.253 65.3199 160.663 65.0539 161.001 64.7151C161.343 64.3761 161.598 63.9915 161.766 63.5612C161.935 63.1309 162.009 62.6818 161.989 62.2137L161.95 61.2846L162.942 61.2422L162.985 62.2558ZM164.903 66.7963C164.917 67.1941 165.066 67.5597 165.352 67.8931C165.641 68.2263 166.03 68.5023 166.519 68.7212C167.008 68.9366 167.553 69.0772 168.155 69.1432L167.787 69.9416C167.047 69.8498 166.384 69.6507 165.8 69.3442C165.219 69.0376 164.776 68.6457 164.47 68.1687C164.206 68.67 163.796 69.0983 163.24 69.4534C162.684 69.8086 162.042 70.0634 161.315 70.2178L160.881 69.4536C161.475 69.3366 162.005 69.15 162.47 68.8939C162.935 68.6344 163.296 68.3281 163.552 67.9751C163.808 67.6187 163.928 67.2398 163.911 66.8386L163.899 66.5536L164.891 66.5112L164.903 66.7963ZM176.703 65.2986L173.842 65.4207L173.941 67.7329L177.794 67.5685L177.83 68.392L169.172 68.7614L169.137 67.9378L172.948 67.7752L172.85 65.463L170.115 65.5797L169.926 61.1452L176.43 60.8678L176.464 61.6807L170.964 61.9154L171.084 64.7345L176.669 64.4962L176.703 65.2986ZM185.445 63.614L189.288 63.4501L189.323 64.263L180.665 64.6324L180.631 63.8194L184.453 63.6564L184.409 62.6217L185.401 62.5793L185.445 63.614ZM188.377 60.6754L185.51 60.7977C185.574 61.0629 185.757 61.3037 186.059 61.52C186.361 61.7327 186.749 61.903 187.224 62.0309C187.698 62.1587 188.217 62.23 188.782 62.2447L188.487 63.0083C187.925 62.9829 187.402 62.9065 186.917 62.7791C186.436 62.6515 186.017 62.4772 185.662 62.2562C185.307 62.0315 185.042 61.7678 184.867 61.465C184.715 61.7818 184.471 62.0672 184.137 62.3212C183.802 62.5718 183.398 62.7811 182.926 62.9494C182.454 63.1176 181.939 63.2383 181.381 63.3114L181.022 62.5758C181.576 62.5133 182.083 62.3983 182.541 62.2307C183.003 62.0629 183.375 61.8601 183.657 61.6224C183.943 61.3811 184.107 61.1255 184.148 60.8558L181.313 60.9767L181.281 60.206L188.344 59.9046L188.377 60.6754ZM188.582 66.2303L181.55 66.5303L181.517 65.7596L184.537 65.6307L184.501 64.7966L185.494 64.7543L185.53 65.5884L188.549 65.4596L188.582 66.2303ZM185.073 66.782C185.998 66.7425 186.716 66.8194 187.225 67.0128C187.737 67.2025 188.002 67.4997 188.019 67.9044C188.036 68.3127 187.798 68.6349 187.304 68.871C186.813 69.107 186.105 69.2448 185.18 69.2843C184.257 69.3236 183.545 69.2464 183.044 69.0528C182.542 68.8591 182.282 68.5582 182.265 68.1499C182.247 67.7452 182.481 67.4267 182.964 67.1945C183.448 66.9588 184.151 66.8213 185.073 66.782ZM185.102 67.4683C184.5 67.4939 184.045 67.561 183.736 67.6693C183.426 67.7742 183.277 67.9198 183.289 68.1062C183.293 68.2964 183.456 68.434 183.777 68.5191C184.098 68.6041 184.556 68.6304 185.15 68.598C185.752 68.5758 186.208 68.5088 186.517 68.3969C186.829 68.2883 186.985 68.1389 186.984 67.9486C186.958 67.576 186.33 67.4159 185.102 67.4683ZM192.223 60.1728C192.691 60.1528 193.114 60.2706 193.491 60.5259C193.872 60.7812 194.176 61.156 194.401 61.6506C194.63 62.1415 194.761 62.7195 194.793 63.3845C194.818 64.0533 194.737 64.6438 194.551 65.1559C194.368 65.6644 194.098 66.0637 193.74 66.354C193.386 66.6406 192.974 66.7939 192.506 66.8139C192.035 66.834 191.61 66.7164 191.232 66.461C190.855 66.2021 190.551 65.8272 190.322 65.3363C190.097 64.8418 189.971 64.2601 189.946 63.5912C189.915 62.9262 189.99 62.3395 190.173 61.831C190.359 61.3224 190.63 60.9248 190.984 60.6382C191.338 60.3481 191.751 60.1929 192.223 60.1728ZM192.261 61.0703C191.973 61.0826 191.722 61.192 191.508 61.3985C191.299 61.6049 191.14 61.8938 191.032 62.265C190.928 62.6326 190.886 63.061 190.907 63.5502C190.928 64.0429 191.006 64.4698 191.142 64.8307C191.281 65.1914 191.463 65.4657 191.69 65.6535C191.92 65.8411 192.179 65.9288 192.468 65.9164C192.76 65.904 193.013 65.7945 193.226 65.5879C193.439 65.3814 193.598 65.0926 193.702 64.7214C193.81 64.3502 193.853 63.9182 193.832 63.4255C193.811 62.9363 193.731 62.513 193.593 62.1558C193.457 61.7949 193.275 61.5206 193.045 61.333C192.814 61.1454 192.553 61.0578 192.261 61.0703ZM197.186 62.965L198.707 62.9002L198.743 63.7448L197.222 63.8097L197.432 68.7192L196.429 68.762L196.025 59.3019L197.028 59.2591L197.186 62.965ZM207.851 67.09L199.194 67.4594L199.158 66.6253L201.227 66.537L201.122 64.0664C200.719 63.865 200.401 63.6018 200.168 63.2768C199.936 62.9517 199.811 62.5816 199.793 62.1663C199.772 61.6771 199.901 61.2397 200.181 60.854C200.464 60.4682 200.866 60.162 201.385 59.9353C201.904 59.7051 202.499 59.5757 203.172 59.547C203.847 59.5182 204.454 59.5964 204.99 59.7815C205.531 59.9629 205.956 60.2339 206.268 60.5943C206.583 60.9546 206.751 61.3794 206.772 61.8685C206.789 62.2803 206.7 62.6561 206.503 62.9959C206.305 63.3323 206.018 63.6178 205.64 63.8525L205.746 66.3442L207.816 66.2559L207.851 67.09ZM203.206 60.3495C202.713 60.3705 202.28 60.4577 201.905 60.6112C201.531 60.7612 201.244 60.9673 201.043 61.2297C200.843 61.4886 200.75 61.787 200.764 62.1249C200.778 62.4592 200.897 62.7486 201.119 62.9929C201.341 63.2373 201.645 63.4218 202.031 63.5464C202.417 63.6674 202.856 63.7174 203.349 63.6964C203.838 63.6755 204.27 63.5883 204.644 63.4349C205.021 63.2777 205.312 63.0679 205.516 62.8053C205.72 62.5428 205.815 62.2443 205.8 61.91C205.786 61.5756 205.666 61.2864 205.441 61.0421C205.219 60.7977 204.913 60.6169 204.524 60.4995C204.138 60.3784 203.699 60.3284 203.206 60.3495ZM204.733 66.3875L204.643 64.2811C204.263 64.3925 203.843 64.458 203.382 64.4777C202.939 64.4966 202.521 64.4686 202.13 64.3936L202.22 66.4947L204.733 66.3875Z" fill="white"/>
<path d="M203.133 85.3001C203.1 84.5321 202.451 83.9366 201.683 83.9693L196.324 84.198C195.556 84.2308 194.96 84.8794 194.993 85.6474L195.044 86.8544L203.184 86.5071L203.133 85.3001Z" fill="#8595AA"/>
<path d="M210.916 95.3462C206.833 95.5204 203.653 98.9843 203.827 103.068C204.001 107.151 207.464 110.329 211.547 110.155C215.631 109.981 218.81 106.518 218.636 102.436C218.462 98.3537 214.999 95.172 210.916 95.3462ZM211.39 106.457C209.346 106.545 207.613 104.952 207.526 102.909C207.505 102.416 207.586 101.945 207.742 101.508C207.342 101.255 207.051 100.838 207.029 100.329C206.994 99.5044 207.636 98.804 208.461 98.7688C208.969 98.7471 209.41 98.9998 209.696 99.3787C210.119 99.1855 210.582 99.0647 211.073 99.0438C213.117 98.9566 214.851 100.549 214.938 102.592C215.025 104.636 213.434 106.37 211.39 106.457Z" fill="#333D4B"/>
<path d="M226.395 85.5173L222.867 85.6678L223.499 89.0132C223.692 90.0401 224.351 90.8243 225.142 90.9658L228.576 91.5841C228.866 91.6367 229.081 91.8828 229.094 92.177C229.106 92.4713 228.913 92.736 228.629 92.8119L225.259 93.7193C224.485 93.9276 223.894 94.7663 223.788 95.8036L223.356 100.069C223.326 100.381 223.069 100.621 222.757 100.635C222.446 100.648 222.17 100.43 222.112 100.121L221.32 95.9089C221.126 94.8832 220.466 94.099 219.677 93.9575L216.242 93.3404C215.952 93.2878 215.737 93.0416 215.725 92.7474C215.712 92.4532 215.905 92.1885 216.19 92.1125L219.559 91.204C220.335 90.9957 220.925 90.157 221.03 89.1197L221.373 85.7315L194.655 86.8714C192.096 86.9806 190.11 89.1437 190.219 91.7026L191.214 115.027C191.323 117.575 193.497 119.571 196.045 119.462L227.785 118.108C230.344 117.999 232.33 115.836 232.221 113.277L231.226 89.9531C231.117 87.3943 228.953 85.4081 226.395 85.5173ZM211.621 111.892C206.58 112.107 202.304 108.181 202.089 103.141C201.874 98.101 205.8 93.823 210.841 93.608C215.882 93.3929 220.158 97.3198 220.373 102.361C220.588 107.402 216.662 111.677 211.621 111.892Z" fill="#4E5968"/>
<path d="M211.073 99.0428C210.582 99.0637 210.118 99.1845 209.696 99.3777C209.874 99.6127 210.006 99.8844 210.02 100.201C210.055 101.025 209.413 101.725 208.588 101.76C208.272 101.773 207.99 101.665 207.741 101.507C207.584 101.944 207.503 102.417 207.524 102.908C207.612 104.951 209.345 106.544 211.388 106.456C213.432 106.369 215.024 104.635 214.937 102.591C214.85 100.548 213.118 98.9556 211.073 99.0428Z" fill="#4E5968"/>
<path d="M210.021 100.201C210.007 99.8846 209.875 99.6129 209.697 99.3779C209.41 99.0002 208.97 98.7463 208.461 98.768C207.637 98.8032 206.994 99.5025 207.03 100.328C207.051 100.837 207.342 101.254 207.743 101.507C207.992 101.665 208.274 101.774 208.59 101.76C209.415 101.725 210.057 101.026 210.022 100.201L210.021 100.201Z" fill="white"/>
<path d="M210.842 93.6085C205.8 93.8236 201.875 98.1004 202.09 103.142C202.305 108.183 206.58 112.107 211.622 111.892C216.663 111.677 220.589 107.402 220.374 102.362C220.159 97.3215 215.883 93.3934 210.842 93.6085ZM211.548 110.154C207.465 110.328 204.001 107.148 203.827 103.066C203.653 98.9842 206.832 95.5191 210.916 95.3449C214.999 95.1707 218.462 98.3512 218.636 102.435C218.81 106.518 215.631 109.979 211.548 110.154Z" fill="#D0D6DE"/>
<path d="M229.093 92.1777C229.105 92.4673 228.907 92.731 228.632 92.8124L225.259 93.7222C224.479 93.9296 223.888 94.7671 223.793 95.804L223.36 100.07C223.327 100.385 223.07 100.628 222.758 100.641C222.445 100.654 222.169 100.434 222.109 100.123L221.314 95.9098C221.119 94.8852 220.459 94.101 219.676 93.9604L216.238 93.3412C215.957 93.2835 215.737 93.0376 215.725 92.748C215.713 92.4584 215.91 92.1946 216.185 92.1133L219.558 91.2035C220.339 90.9961 220.918 90.159 221.024 89.1217L221.367 85.73L221.458 84.8558C221.491 84.5411 221.747 84.298 222.06 84.2847C222.373 84.2713 222.649 84.4916 222.709 84.8024L222.861 85.6663L223.503 89.0159C223.686 90.0409 224.347 90.8251 225.142 90.9652L228.58 91.5845C228.861 91.6421 229.08 91.8881 229.093 92.1777Z" fill="#FFE63B"/>
</g>
<g filter="url(#filter1_d_413_1810)">
<path d="M-21.1208 23.463C-20.9343 20.053 -18.0188 17.4397 -14.6088 17.6262L98.4603 23.8082C101.87 23.9946 104.484 26.9101 104.297 30.3202L97.7564 149.95C97.57 153.36 94.6545 155.973 91.2444 155.786L-21.8246 149.604C-25.2347 149.418 -27.8479 146.502 -27.6615 143.092L-21.1208 23.463Z" fill="white" shape-rendering="crispEdges"/>
<path d="M-14.6299 18.0123L98.4395 24.1943C101.636 24.3693 104.086 27.1022 103.911 30.299L97.3706 149.928C97.1958 153.125 94.4626 155.575 91.2658 155.401L-21.8036 149.219C-25.0005 149.044 -27.4501 146.31 -27.2753 143.113L-20.7346 23.4841C-20.5598 20.2872 -17.8268 17.8375 -14.6299 18.0123Z" stroke="#F0F0F0" stroke-width="0.772955" shape-rendering="crispEdges"/>
<path d="M0.717019 39.5148L-3.60025 39.2788L-3.64509 40.0988L-0.569936 40.2669L-0.71631 42.9441L-6.91485 42.6052L-6.95837 43.4011L-0.458341 43.7565L-0.514385 44.7816L-8.32889 44.3543L-8.17658 41.5686L-1.97804 41.9075L-1.9398 41.2081L-8.15039 40.8685L-8.09501 39.8555L-4.98368 40.0256L-4.93885 39.2056L-9.21994 38.9715L-9.16192 37.9103L0.775041 38.4536L0.717019 39.5148ZM-0.465674 37.6963L-7.87015 37.2915L-7.68422 33.8907L-0.27974 34.2955L-0.465674 37.6963ZM-6.49832 36.3142L-1.74691 36.5739L-1.6757 35.2715L-6.42711 35.0117L-6.49832 36.3142ZM4.19385 34.9998C4.68427 35.0266 5.1193 35.1814 5.49896 35.4642C5.87861 35.747 6.17976 36.1385 6.40239 36.6385C6.62524 37.1345 6.74891 37.7118 6.77338 38.3703L8.85363 38.484L9.07319 34.4682L10.3997 34.5408L9.80302 45.4545L8.47649 45.382L8.79429 39.5694L6.73213 39.4566C6.64609 40.1454 6.4664 40.7403 6.19306 41.2415C5.91994 41.7386 5.57481 42.1148 5.15766 42.3702C4.74074 42.6216 4.27902 42.7334 3.77253 42.7057C3.22584 42.6758 2.75002 42.4926 2.34508 42.156C1.94015 41.8193 1.63503 41.3531 1.42973 40.7573C1.22443 40.1614 1.1431 39.4736 1.18573 38.6937C1.22793 37.9219 1.38344 37.2531 1.65226 36.6872C1.92129 36.1173 2.27542 35.6871 2.71465 35.3967C3.15811 35.1024 3.65118 34.9701 4.19385 34.9998ZM4.12791 36.2057C3.82643 36.1892 3.5553 36.2812 3.31452 36.4818C3.07396 36.6783 2.8805 36.9721 2.73413 37.3632C2.58797 37.7504 2.50196 38.2174 2.47609 38.7643C2.44196 39.3148 2.47633 39.7924 2.57918 40.1972C2.68204 40.602 2.8422 40.9171 3.05969 41.1427C3.27739 41.3643 3.53698 41.4833 3.83846 41.4998C4.13995 41.5163 4.40896 41.4261 4.6455 41.2294C4.88628 41.0289 5.07985 40.7331 5.22622 40.3419C5.37661 39.951 5.46888 39.4803 5.503 38.9298C5.52888 38.3829 5.48837 37.9069 5.3815 37.5019C5.27864 37.0972 5.11836 36.784 4.90066 36.5624C4.68698 36.3411 4.4294 36.2222 4.12791 36.2057ZM20.8742 44.7293L10.9131 44.1847L10.9731 43.0873L15.2663 43.322L15.3823 41.1996L12.1866 41.0249L12.4952 35.3811L13.8338 35.4542L13.7362 37.239L18.7891 37.5153L18.8867 35.7305L20.2252 35.8037L19.9167 41.4475L16.7089 41.2721L16.5928 43.3946L20.9342 43.6319L20.8742 44.7293ZM18.6374 40.289L18.7304 38.5886L13.6775 38.3123L13.5845 40.0127L18.6374 40.289ZM30.1248 46.5535L28.7741 46.4797L29.3701 35.578L30.7208 35.6518L30.1248 46.5535ZM27.4015 36.6315C27.3067 38.364 26.8316 39.8641 25.9761 41.1317C25.1208 42.3953 23.7612 43.4075 21.8972 44.1684L21.2564 43.0569C22.6958 42.4663 23.7947 41.7261 24.5529 40.8362C25.3154 39.9425 25.7913 38.8698 25.9807 37.6182L22.1217 37.4072L22.1797 36.346L27.4015 36.6315Z" fill="#111111"/>
<path d="M-6.47274 61.6461L-5.2065 61.7154L-5.02362 58.3704L-4.06339 58.4229L-4.54512 67.2338L-5.50535 67.1813L-5.2515 62.5384L-6.51774 62.4692L-6.66082 65.0861L-10.3329 64.8853L-10.0104 58.9867L-6.33832 59.1875L-6.47274 61.6461ZM-9.33939 64.1353L-7.5561 64.2328L-7.32072 59.9276L-9.104 59.8301L-9.33939 64.1353ZM-2.65004 67.8031L-3.61027 67.7506L-3.09335 58.296L-2.13312 58.3485L-2.65004 67.8031ZM6.32162 62.7584L-0.231161 62.4001L-0.0413529 58.9285L0.971638 58.9839L0.826253 61.643L6.36605 61.9459L6.32162 62.7584ZM7.19928 64.9019L5.04667 64.7842L4.85917 68.2136L3.84618 68.1583L4.03368 64.7289L1.7439 64.6037L1.5564 68.0331L0.553962 67.9783L0.741463 64.5489L-1.42169 64.4306L-1.37727 63.6181L7.2437 64.0894L7.19928 64.9019ZM13.364 60.868L12.467 60.8189L12.3049 63.7841C12.7608 63.7702 13.1992 63.7518 13.6203 63.729L13.6427 64.4816C12.7804 64.5721 11.8644 64.6155 10.8944 64.6118C9.92815 64.6049 8.92798 64.5731 7.89388 64.5166L7.82281 63.6872L8.98411 63.7401L9.15372 60.6378L8.25681 60.5888L8.30123 59.7763L13.4084 60.0555L13.364 60.868ZM15.3593 62.1201L16.7311 62.1951L16.6849 63.0393L15.3131 62.9643L15.132 66.2776L14.1295 66.2228L14.5097 59.269L15.5122 59.3238L15.3593 62.1201ZM15.4078 68.5893L9.01327 68.2397L9.17481 65.2851L10.1772 65.3399L10.0601 67.482L15.4522 67.7768L15.4078 68.5893ZM9.95633 63.7668C10.4564 63.7835 10.9111 63.7908 11.3204 63.7884L11.4857 60.7653L10.1245 60.6909L9.95633 63.7668ZM24.5721 69.3126L23.5696 69.2578L24.0877 59.7821L25.0902 59.8369L24.5721 69.3126ZM19.9971 60.2676C20.4649 60.2931 20.876 60.4532 21.2303 60.7477C21.5848 61.0388 21.8521 61.4414 22.0321 61.9558C22.2158 62.4668 22.2896 63.0529 22.2535 63.7141C22.2171 64.3789 22.0797 64.957 21.8411 65.4485C21.6061 65.9401 21.2964 66.313 20.9121 66.5672C20.528 66.8178 20.102 66.9303 19.6342 66.9048C19.1594 66.8788 18.7447 66.7203 18.3902 66.4293C18.0359 66.1347 17.7668 65.732 17.5831 65.221C17.4031 64.7066 17.3314 64.1153 17.3679 63.447C17.4042 62.7823 17.5398 62.2058 17.7747 61.7177C18.0132 61.2263 18.3245 60.8552 18.7087 60.6046C19.0928 60.3539 19.5223 60.2416 19.9971 60.2676ZM19.9481 61.1645C19.6561 61.1485 19.3922 61.2329 19.1563 61.4175C18.924 61.6024 18.7362 61.8743 18.5931 62.2334C18.4502 62.589 18.3654 63.0112 18.3387 63.5001C18.3118 63.9925 18.3498 64.425 18.4529 64.7975C18.5561 65.1701 18.713 65.4609 18.9238 65.67C19.1382 65.8792 19.3913 65.9919 19.6833 66.0078C19.9717 66.0236 20.2321 65.9391 20.4644 65.7542C20.6968 65.5693 20.8845 65.2974 21.0276 64.9383C21.1707 64.5792 21.2558 64.1535 21.2827 63.6611C21.3094 63.1722 21.2711 62.7432 21.1678 62.3742C21.0647 62.0016 20.9078 61.7108 20.6969 61.5018C20.4861 61.2927 20.2365 61.1802 19.9481 61.1645ZM30.5655 66.7933L32.0428 66.8741L32.1028 65.7767L33.0313 65.8274L32.8236 69.6262L29.4787 69.4433L29.6864 65.6446L30.6255 65.6959L30.5655 66.7933ZM31.9378 68.7945L32.0012 67.6338L30.5239 67.5531L30.4605 68.7138L31.9378 68.7945ZM35.7362 66.6844C35.7175 67.0256 35.7629 67.3579 35.8722 67.6814C35.9815 68.0049 36.1577 68.2985 36.4008 68.5623C36.6477 68.8227 36.9556 69.0301 37.3246 69.1843L36.766 69.9158C36.3597 69.7348 36.022 69.4906 35.753 69.1831C35.4874 68.8793 35.2879 68.5279 35.1545 68.129C34.9719 68.5001 34.7302 68.8237 34.4293 69.1001C34.132 69.3767 33.7818 69.5868 33.3789 69.7306L32.9139 68.9432C33.288 68.8119 33.6086 68.6266 33.8756 68.3872C34.1465 68.1445 34.3536 67.8718 34.4972 67.5692C34.6444 67.2633 34.7268 66.9503 34.7443 66.6302L34.7864 65.8599L35.7783 65.9141L35.7362 66.6844ZM31.5079 60.59C31.9194 60.6125 32.2918 60.7069 32.6249 60.8733C32.9582 61.0362 33.2283 61.2573 33.4353 61.5367C33.6458 61.8164 33.7767 62.1322 33.828 62.4843L35.6746 62.5852L35.7928 60.4221L36.7953 60.4769L36.5212 65.4891L35.5188 65.4343L35.6296 63.4083L33.7882 63.3076C33.7018 63.6627 33.5386 63.9696 33.2987 64.2281C33.0623 64.4868 32.7677 64.6806 32.4149 64.8095C32.0657 64.9386 31.6835 64.9917 31.2685 64.969C30.7901 64.9429 30.3678 64.8281 30.0014 64.6246C29.6353 64.4176 29.3557 64.143 29.1627 63.8009C28.97 63.4552 28.8853 63.0678 28.9088 62.6387C28.9318 62.2166 29.0579 61.846 29.2871 61.5269C29.5164 61.2043 29.8242 60.9618 30.2106 60.7995C30.5971 60.6337 31.0296 60.5638 31.5079 60.59ZM31.4623 61.4236C31.1669 61.4074 30.8999 61.451 30.6614 61.5544C30.4266 61.6545 30.2386 61.8029 30.0973 61.9998C29.9595 62.1969 29.8834 62.4274 29.869 62.6912C29.8544 62.9585 29.9047 63.1994 30.02 63.4138C30.1388 63.6284 30.3092 63.8018 30.5313 63.9339C30.7571 64.0627 31.0176 64.1369 31.3129 64.1565C31.6015 64.1688 31.8616 64.123 32.093 64.0193C32.3282 63.9122 32.5147 63.7583 32.6527 63.5577C32.7942 63.3573 32.8723 63.1235 32.8869 62.8562C32.9013 62.5924 32.849 62.3549 32.73 62.1438C32.6145 61.9329 32.4456 61.7649 32.2231 61.6398C32.0043 61.5114 31.7508 61.4394 31.4623 61.4236ZM45.2545 64.6119L46.7739 64.6949L46.7289 65.518L45.2095 65.4349L44.9366 70.426L43.9341 70.3712L44.4522 60.8955L45.4547 60.9503L45.2545 64.6119ZM42.8176 62.5313L39.3987 62.3443L39.1489 66.9134C39.9863 66.9556 40.7227 66.9712 41.3583 66.9601C41.9975 66.9492 42.6421 66.9033 43.2921 66.8224L43.3725 67.6735C42.7155 67.7539 42.0709 67.7998 41.4388 67.8111C40.8104 67.8191 40.0847 67.8006 39.2616 67.7556L38.8607 67.7337L38.1009 67.6922L38.4407 61.477L42.862 61.7188L42.8176 62.5313ZM52.0004 62.9169L54.058 63.0294L54.1451 61.4361L55.1476 61.4909L54.7708 68.3813L53.7684 68.3265L53.9022 65.8784L51.8446 65.7659L51.7996 66.589L47.41 66.349L47.6546 61.875L52.0442 62.115L52.0004 62.9169ZM48.4451 65.6118L50.8615 65.744L51.0185 62.8738L48.602 62.7417L48.4451 65.6118ZM54.8532 70.7459L48.4693 70.3969L48.6325 67.4107L49.6455 67.4661L49.5267 69.6398L54.8976 69.9334L54.8532 70.7459ZM53.9472 65.0554L54.013 63.8525L51.9554 63.74L51.8896 64.9429L53.9472 65.0554ZM62.3285 63.5769C62.3064 63.9813 62.38 64.377 62.5494 64.7637C62.7223 65.1506 62.9783 65.4998 63.3176 65.8111C63.6604 66.1227 64.0669 66.3672 64.537 66.5446L63.9772 67.2971C63.4487 67.0919 62.992 66.7988 62.6071 66.4179C62.2258 66.0372 61.9409 65.6018 61.7525 65.1117C61.5095 65.6206 61.1716 66.0572 60.7389 66.4216C60.3098 66.7862 59.8102 67.0517 59.2401 67.2181L58.7652 66.4195C59.2526 66.2803 59.6841 66.0658 60.0598 65.7759C60.4357 65.4825 60.7313 65.1406 60.9467 64.7502C61.1656 64.36 61.2886 63.9504 61.3155 63.5215L61.33 63.2577L59.209 63.1417L59.2534 62.3292L64.4661 62.6142L64.4217 63.4267L62.3429 63.3131L62.3285 63.5769ZM66.4462 67.8237L65.4437 67.7689L65.7558 62.0603L66.7583 62.1151L66.4462 67.8237ZM66.2414 71.5697L65.2389 71.5149L65.3733 69.0563L59.9707 68.7609L60.0151 67.9484L66.4202 68.2986L66.2414 71.5697ZM75.6848 67.7679L74.6929 67.7137L74.8072 65.6244L73.0344 65.5275L73.0794 64.7044L74.8522 64.8013L74.9745 62.5643L75.9664 62.6185L75.6848 67.7679ZM70.4424 68.9947L74.6104 69.2226L74.6699 68.1358L75.6617 68.19L75.4558 71.9571L69.304 71.6207L69.5099 67.8536L70.5018 67.9079L70.4424 68.9947ZM74.5083 71.0903L74.5677 70.0035L70.3997 69.7756L70.3403 70.8624L74.5083 71.0903ZM71.401 63.8506C71.3796 64.2411 71.4501 64.6294 71.6125 65.0158C71.7748 65.4022 72.0202 65.7525 72.3488 66.0668C72.6773 66.3811 73.0694 66.6301 73.525 66.8137L72.9653 67.5663C72.4512 67.3548 72.0105 67.059 71.6432 66.6791C71.2795 66.2994 71.005 65.8663 70.82 65.3799C70.5799 65.8995 70.245 66.3469 69.8152 66.722C69.3892 67.0939 68.8948 67.3614 68.332 67.5247L67.8582 66.705C68.3421 66.5656 68.7702 66.3491 69.1426 66.0555C69.5149 65.7619 69.8071 65.418 70.0192 65.0239C70.2348 64.63 70.3544 64.2167 70.378 63.7841L70.385 63.6575L68.3379 63.5456L68.3823 62.7331L73.4789 63.0117L73.4345 63.8242L71.4085 63.7135L71.401 63.8506ZM88.11 68.0133L84.2902 67.8045L84.2452 68.6275L86.9782 68.777L86.857 70.9929L81.3489 70.6917L81.3033 71.5253L87.0752 71.8409L87.0331 72.6112L80.2798 72.242L80.4073 69.91L85.9049 70.2106L85.9442 69.493L80.436 69.1919L80.4781 68.4216L83.2428 68.5727L83.2878 67.7497L79.489 67.542L79.5329 66.74L88.1539 67.2114L88.11 68.0133ZM87.084 66.4544L80.6789 66.1042L80.8382 63.1918L87.2432 63.542L87.084 66.4544ZM81.7035 65.3664L86.1248 65.6082L86.1975 64.2786L81.7762 64.0369L81.7035 65.3664ZM-8.61671 74.727C-8.19111 74.7503 -7.81407 74.8873 -7.48558 75.1381C-7.1569 75.3854 -6.89877 75.7293 -6.71119 76.17C-6.51991 76.6073 -6.41541 77.1158 -6.39771 77.6953L-4.44559 77.802L-4.25174 74.2566L-3.25985 74.3108L-3.77793 83.7865L-4.76982 83.7322L-4.49001 78.6145L-6.43158 78.5084C-6.49983 79.1114 -6.65178 79.6323 -6.88743 80.071C-7.12309 80.5097 -7.42166 80.8408 -7.78314 81.0645C-8.14463 81.2881 -8.54345 81.388 -8.9796 81.3642C-9.45092 81.3384 -9.86032 81.1802 -10.2078 80.8896C-10.5551 80.5954 -10.8171 80.193 -10.9938 79.6824C-11.1668 79.1685 -11.2332 78.5775 -11.1932 77.9094C-11.1603 77.2444 -11.03 76.6677 -10.8022 76.1792C-10.5707 75.6873 -10.2664 75.3159 -9.88933 75.0649C-9.50872 74.8141 -9.08451 74.7014 -8.61671 74.727ZM-8.66575 75.6239C-8.95065 75.6083 -9.20753 75.6931 -9.43637 75.8781C-9.66521 76.0632 -9.85119 76.3352 -9.99429 76.6943C-10.1337 77.0501 -10.2168 77.4724 -10.2435 77.9613C-10.2704 78.4537 -10.2341 78.8861 -10.1345 79.2584C-10.0314 79.631 -9.87618 79.9217 -9.66887 80.1306C-9.46156 80.3395 -9.21546 80.4517 -8.93056 80.4673C-8.64565 80.4829 -8.38878 80.3981 -8.15994 80.2131C-7.93109 80.028 -7.74688 79.7559 -7.60729 79.3966C-7.46418 79.0375 -7.37917 78.6118 -7.35224 78.1194C-7.32551 77.6305 -7.3638 77.2015 -7.46709 76.8325C-7.56668 76.4601 -7.72013 76.1695 -7.92744 75.9606C-8.13474 75.7517 -8.38084 75.6395 -8.66575 75.6239ZM-0.583915 76.595L2.18071 76.7461L2.25513 75.3849L3.24702 75.4391L3.01278 79.7233L1.13453 79.6206L1.04626 81.235C1.94881 81.2456 2.76145 81.223 3.48418 81.1672L3.51766 81.9099C2.61989 82.0055 1.68779 82.0515 0.721345 82.0481C-0.241386 82.0413 -1.2609 82.0085 -2.33721 81.9496L-2.44991 81.1074L-2.02783 81.1304C-1.69701 81.145 -1.33981 81.161 -0.956225 81.1784C-0.572451 81.1924 -0.236162 81.2037 0.0526439 81.2124L0.142644 79.5663L-1.74616 79.4631L-1.51193 75.179L-0.509491 75.2338L-0.583915 76.595ZM2.06474 78.8671L2.13917 77.5059L-0.625453 77.3547L-0.699877 78.7159L2.06474 78.8671ZM5.19662 78.689L6.65279 78.7687L6.60664 79.6128L5.15046 79.5332L4.89316 84.2394L3.89072 84.1846L4.40764 74.73L5.41008 74.7848L5.19662 78.689ZM14.5893 80.462L11.7297 80.3057L11.6034 82.6166L15.4548 82.8271L15.4098 83.6502L6.75721 83.1771L6.80221 82.3541L10.6115 82.5623L10.7378 80.2515L8.00486 80.102L8.24717 75.6702L14.7472 76.0256L14.7028 76.8381L9.20518 76.5375L9.05114 79.3549L14.6331 79.6601L14.5893 80.462ZM23.4536 79.6343L27.2945 79.8443L27.2501 80.6568L18.5975 80.1837L18.6419 79.3712L22.4617 79.5801L22.5182 78.546L23.5101 78.6002L23.4536 79.6343ZM26.6566 76.9942L23.7917 76.8376C23.8299 77.1078 23.9887 77.3652 24.2681 77.6098C24.5477 77.8508 24.9174 78.058 25.3771 78.2313C25.8369 78.4046 26.3471 78.526 26.9077 78.5955L26.5396 79.3268C25.9831 79.247 25.4696 79.1201 24.9994 78.9462C24.5326 78.7725 24.1333 78.5584 23.8015 78.3039C23.4699 78.0459 23.2316 77.7577 23.0868 77.4393C22.9045 77.7398 22.6345 78.0002 22.2767 78.2206C21.9192 78.4374 21.4972 78.6066 21.0107 78.7282C20.5243 78.8497 20.0001 78.9199 19.4381 78.9385L19.152 78.1714C19.7099 78.1631 20.225 78.0978 20.6973 77.9755C21.1732 77.8533 21.5633 77.6877 21.8675 77.4785C22.1755 77.266 22.3631 77.0276 22.4305 76.7632L19.5973 76.6083L19.6394 75.838L26.6987 76.2239L26.6566 76.9942ZM26.3215 82.5428L19.2938 82.1586L19.336 81.3883L22.3538 81.5533L22.3994 80.7197L23.3913 80.7739L23.3457 81.6075L26.3636 81.7725L26.3215 82.5428ZM22.7752 82.7511C23.7002 82.8017 24.4066 82.9479 24.8944 83.1898C25.3858 83.4283 25.6205 83.7498 25.5983 84.1543C25.576 84.5623 25.3075 84.8599 24.7928 85.0469C24.2816 85.2342 23.5635 85.3025 22.6384 85.2519C21.7169 85.2016 21.0158 85.0556 20.5351 84.8141C20.0544 84.5727 19.8252 84.2479 19.8475 83.8399C19.8696 83.4354 20.1327 83.1411 20.6366 82.957C21.1408 82.7694 21.8536 82.7007 22.7752 82.7511ZM22.7377 83.437C22.1362 83.4041 21.6764 83.4266 21.3581 83.5045C21.0401 83.5788 20.8777 83.7093 20.8711 83.8959C20.8572 84.0856 21.0058 84.2384 21.317 84.3542C21.6281 84.47 22.0811 84.5406 22.6759 84.5661C23.2772 84.6025 23.7371 84.58 24.0555 84.4986C24.3772 84.421 24.5468 84.2873 24.5643 84.0978C24.5741 83.7244 23.9652 83.5041 22.7377 83.437ZM30.5333 76.8675C31.0011 76.8931 31.4105 77.0513 31.7615 77.3421C32.116 77.6332 32.3815 78.0357 32.558 78.5499C32.7382 79.0607 32.8119 79.6486 32.7791 80.3135C32.739 80.9816 32.6015 81.5615 32.3665 82.0531C32.1351 82.5414 31.8273 82.9127 31.443 83.1668C31.0624 83.4177 30.6382 83.5303 30.1704 83.5047C29.6991 83.4789 29.2879 83.3206 28.9369 83.0298C28.5861 82.7354 28.3206 82.3329 28.1404 81.8221C27.9639 81.3079 27.8957 80.7168 27.9357 80.0487C27.9685 79.3837 28.1006 78.8071 28.3319 78.3188C28.5668 77.8307 28.8745 77.4612 29.2551 77.2104C29.6359 76.956 30.062 76.8417 30.5333 76.8675ZM30.4842 77.7644C30.1958 77.7487 29.9354 77.8332 29.7031 78.0181C29.4742 78.2031 29.2882 78.4752 29.1451 78.8342C29.0057 79.19 28.9227 79.6123 28.8959 80.1012C28.869 80.5936 28.9054 81.026 29.0049 81.3984C29.1081 81.7709 29.2633 82.0616 29.4706 82.2705C29.6814 82.4796 29.931 82.592 30.2194 82.6078C30.5114 82.6237 30.7735 82.5393 31.0059 82.3544C31.2382 82.1696 31.4242 81.8975 31.5638 81.5383C31.7069 81.1792 31.7919 80.7534 31.8188 80.261C31.8456 79.7721 31.8073 79.3432 31.704 78.9741C31.6044 78.6018 31.4492 78.3111 31.2384 78.102C31.0276 77.8929 30.7762 77.7804 30.4842 77.7644ZM35.2022 80.1285L36.7217 80.2116L36.6756 81.0557L35.1561 80.9727L34.8878 85.8793L33.8854 85.8245L34.4023 76.3699L35.4047 76.4248L35.2022 80.1285ZM45.4162 85.2696L36.7636 84.7965L36.8091 83.9629L38.8773 84.076L39.0123 81.6068C38.6303 81.3672 38.3394 81.0744 38.1396 80.7283C37.9398 80.3822 37.8512 80.0017 37.8739 79.5866C37.9007 79.0977 38.072 78.6749 38.3878 78.3183C38.7071 77.9618 39.1362 77.6959 39.675 77.5208C40.2139 77.3421 40.8193 77.2711 41.4911 77.3079C42.1664 77.3448 42.7622 77.4814 43.2785 77.7178C43.7984 77.9508 44.1959 78.2619 44.471 78.6509C44.7496 79.04 44.8755 79.4791 44.8488 79.968C44.8263 80.3795 44.7005 80.7448 44.4714 81.0639C44.2424 81.3795 43.9286 81.6357 43.5297 81.8327L43.3936 84.3229L45.4618 84.436L45.4162 85.2696ZM41.4472 78.1098C40.9548 78.0829 40.5149 78.1276 40.1275 78.244C39.7404 78.3569 39.4343 78.5342 39.2095 78.7759C38.9848 79.0141 38.8632 79.3021 38.8447 79.6397C38.8264 79.9739 38.9159 80.2733 39.1131 80.5381C39.3103 80.8029 39.595 81.016 39.9672 81.1775C40.3395 81.3354 40.7719 81.4279 41.2644 81.4548C41.7533 81.4815 42.1914 81.4367 42.5788 81.3203C42.9699 81.2006 43.2796 81.0199 43.508 80.7784C43.7364 80.5369 43.8597 80.2491 43.878 79.9149C43.8963 79.5808 43.8051 79.2812 43.6044 79.0162C43.4072 78.7514 43.1205 78.5417 42.7444 78.3871C42.3721 78.2292 41.9397 78.1367 41.4472 78.1098ZM42.3806 84.2675L42.4957 82.1624C42.1071 82.2364 41.6824 82.2608 41.2217 82.2356C40.7785 82.2114 40.3659 82.143 39.984 82.0304L39.8692 84.1302L42.3806 84.2675Z" fill="#434343"/>
<g clip-path="url(#clip0_413_1810)">
<path d="M64.8736 100.095C53.6844 99.483 44.1698 107.107 43.6222 117.124C43.4035 121.122 44.6595 124.889 46.9488 128.02C47.7872 129.166 48.1208 130.605 47.7738 131.981L46.3582 137.59C46.121 138.532 47.0759 139.33 47.9606 138.929L54.8818 135.794C55.8593 135.352 56.9622 135.251 57.9946 135.545C59.5518 135.989 61.1897 136.275 62.8904 136.368C74.0796 136.98 83.5941 129.355 84.1418 119.339C84.6894 109.323 76.0628 100.707 64.8736 100.095Z" fill="#E2E5E8"/>
<path d="M69.5435 123.134C69.0863 122.944 68.8901 122.507 69.0901 122.119C70.4467 119.442 72.0151 115.911 72.4492 115.013C72.8256 114.167 73.2694 113.848 73.859 113.88C74.4486 113.912 74.7512 114.163 75.1657 115.134C75.5809 116.092 77.2935 121.494 77.4883 122.207C77.6969 122.919 77.4787 123.389 77.0469 123.489C76.6143 123.603 76.024 123.584 75.7927 123.035C75.5477 122.485 75.2858 121.742 75.1033 121.306C74.969 120.996 74.8471 120.962 74.3946 120.937C73.9421 120.912 72.5412 120.877 72.2807 120.863C72.0339 120.849 71.8389 120.894 71.6108 121.294C71.3818 121.708 71.0023 122.361 70.7627 122.719C70.5368 123.078 70.0007 123.324 69.5435 123.134ZM72.6826 118.794C72.5891 118.996 72.6364 119.136 72.8955 119.177C73.1697 119.192 74.1303 119.231 74.3237 119.214C74.5035 119.196 74.4561 119.056 74.3966 118.888C74.2324 118.37 73.9097 116.977 73.7332 116.431C73.6989 116.306 73.6433 116.316 73.5961 116.424C73.3148 117.041 73.0756 117.894 72.6826 118.794Z" fill="#333D4B"/>
<path d="M62.5677 123.37C61.6353 123.319 59.672 123.006 59.8257 120.195C59.8999 118.837 60.5272 118.432 61.341 117.885C61.4408 117.821 61.555 117.745 61.6554 117.668C61.4533 117.341 61.2778 117.029 61.1694 116.748C60.9755 116.269 60.9103 115.702 60.9522 114.934C60.9942 114.166 62.1859 112.746 63.8861 112.839C65.1476 112.908 66.1998 114.038 66.1278 115.355C66.0799 116.232 65.5275 117.027 64.719 117.478C64.4632 117.629 64.2218 117.767 64.0216 117.908C64.3152 118.322 64.637 118.725 64.9367 119.03C65.1974 119.292 65.5122 119.571 65.853 119.878C66.0699 119.684 66.2731 119.488 66.4474 119.319C66.7923 119.049 67.3383 118.873 67.6364 119.205C67.9345 119.538 67.9821 119.926 67.5453 120.369C67.3999 120.513 67.2386 120.696 67.0483 120.906C67.3761 121.199 67.7306 121.507 68.0706 121.828C68.3984 122.121 68.4592 122.771 68.1448 122.988C67.8303 123.204 67.5882 123.356 66.9114 122.907C66.6592 122.741 66.2765 122.445 65.829 122.077C65.7423 122.155 65.6418 122.232 65.5558 122.296C64.7245 122.911 64.0074 123.449 62.5677 123.37ZM61.5329 120.412C61.5014 120.988 62.0421 121.664 62.8511 121.708C63.5093 121.744 64.1084 121.35 64.5674 121.004C64.1741 120.653 63.7952 120.288 63.4833 119.955C63.2241 119.666 62.8871 119.29 62.5386 118.872C61.9836 119.213 61.5772 119.603 61.5329 120.412ZM62.7228 115.251C62.6943 115.772 62.7327 116.077 63.0133 116.477C63.0515 116.534 63.1026 116.606 63.1529 116.691C63.4095 116.526 63.6379 116.374 63.8381 116.233C64.3101 115.902 64.4864 115.444 64.5044 115.115C64.5194 114.84 64.2881 114.291 63.7396 114.261C63.1911 114.231 62.7513 114.73 62.7228 115.251Z" fill="#333D4B"/>
<path d="M58.1853 123.077C57.8527 123.375 57.2912 123.331 56.9108 122.993C56.7805 122.863 56.496 122.531 56.1613 122.114C55.5971 122.371 54.9581 122.488 54.2588 122.45C52.2705 122.341 50.018 120.526 50.18 117.564C50.3022 115.329 51.6505 112.804 54.8728 112.98C57.0941 113.101 58.8779 114.684 58.695 118.03C58.6328 119.168 58.2452 120.22 57.5969 121.009C57.8943 121.356 58.1521 121.672 58.3313 121.916C58.5746 122.245 58.5743 122.754 58.1853 123.077ZM52.2512 117.664C52.1485 119.542 53.2957 120.444 54.4064 120.505C54.5709 120.514 54.7369 120.495 54.8893 120.476C54.7367 120.248 54.5964 120.048 54.4957 119.877C54.1425 119.294 54.2243 118.803 54.5936 118.59C55.0489 118.312 55.436 118.526 55.863 119.017C55.9537 119.118 56.0963 119.277 56.2511 119.464C56.5371 119.012 56.7065 118.43 56.7417 117.786C56.8309 116.154 56.1488 114.796 54.6542 114.715C53.1733 114.634 52.3419 116.005 52.2512 117.664Z" fill="#333D4B"/>
</g>
</g>
<g filter="url(#filter2_d_413_1810)">
<path d="M271.004 12.3258L441.082 23.2552C443.813 23.4307 445.885 25.7873 445.71 28.5179L437.333 158.865C437.158 161.596 434.801 163.667 432.071 163.491L261.991 152.562C259.261 152.386 257.189 150.031 257.365 147.3L265.741 16.9529C265.916 14.2223 268.273 12.1503 271.004 12.3258Z" fill="white"/>
<path d="M271.004 12.3258L441.082 23.2552C443.813 23.4307 445.885 25.7873 445.71 28.5179L437.333 158.865C437.158 161.596 434.801 163.667 432.071 163.491L261.991 152.562C259.261 152.386 257.189 150.031 257.365 147.3L265.741 16.9529C265.916 14.2223 268.273 12.1503 271.004 12.3258Z" stroke="#F0F0F0" stroke-width="0.660584"/>
<path d="M278.088 25.6891C278.181 24.2328 279.438 23.1281 280.894 23.2217L295.506 24.1607C296.963 24.2543 298.067 25.5107 297.974 26.967L297.374 36.3054C297.28 37.7618 296.024 38.8665 294.567 38.7729L279.955 37.8339C278.499 37.7403 277.394 36.4839 277.488 35.0275L278.088 25.6891Z" fill="#FF8E00"/>
<path d="M284.816 33.816L283.887 33.7563L284.217 28.6177L284.184 28.6156L282.675 29.4683L282.731 28.5895L284.301 27.6988L285.205 27.7568L284.816 33.816ZM288.842 27.604C289.216 27.628 289.547 27.7151 289.834 27.8652C290.121 28.0153 290.341 28.2143 290.493 28.4622C290.645 28.7073 290.712 28.9819 290.692 29.286C290.673 29.5872 290.572 29.8511 290.389 30.0774C290.207 30.3038 289.963 30.473 289.659 30.5852C289.355 30.6945 289.016 30.7357 288.643 30.7089C288.269 30.6877 287.939 30.6035 287.655 30.4564C287.37 30.3064 287.153 30.109 287.004 29.8641C286.854 29.6164 286.79 29.3405 286.809 29.0364C286.829 28.7323 286.928 28.467 287.108 28.2405C287.288 28.0139 287.528 27.8459 287.83 27.7364C288.131 27.6241 288.469 27.58 288.842 27.604ZM288.801 28.2484C288.575 28.2339 288.37 28.2586 288.187 28.3224C288.006 28.3864 287.861 28.485 287.752 28.618C287.646 28.7484 287.588 28.9044 287.579 29.0859C287.565 29.2643 287.602 29.4249 287.691 29.5679C287.783 29.711 287.915 29.826 288.089 29.9128C288.263 29.9968 288.461 30.0446 288.685 30.0561C288.913 30.0736 289.121 30.0519 289.307 29.9911C289.493 29.9274 289.64 29.8304 289.75 29.7002C289.859 29.57 289.919 29.4156 289.931 29.237C289.942 29.0557 289.902 28.8935 289.811 28.7503C289.719 28.6044 289.585 28.4879 289.409 28.4009C289.235 28.3141 289.032 28.2633 288.801 28.2484ZM292.157 35.0021L291.37 34.9515L291.852 27.4612L292.638 27.5118L292.157 35.0021ZM286.136 31.1361C287.023 31.1931 287.885 31.2303 288.722 31.2476C289.561 31.2623 290.351 31.2389 291.092 31.1772L291.112 31.7752C290.491 31.8529 289.791 31.8948 289.012 31.9007L288.841 34.5537L288.046 34.5026L288.214 31.8915C287.738 31.8833 287.068 31.8543 286.203 31.8043L286.136 31.1361Z" fill="white"/>
<path d="M284.178 50.014L277.432 49.5805L277.494 48.6148L280.159 48.7861L280.22 47.8333L281.649 47.9251L281.588 48.8779L284.24 49.0484L284.178 50.014ZM280.775 50.0668C281.35 50.1038 281.846 50.1981 282.263 50.3499C282.684 50.5019 283.003 50.7034 283.219 50.9544C283.436 51.2053 283.536 51.4897 283.52 51.8076C283.495 52.1292 283.359 52.4006 283.112 52.6217C282.866 52.8386 282.526 52.9978 282.092 53.0992C281.66 53.1964 281.153 53.2285 280.574 53.1955C280.003 53.1546 279.512 53.0583 279.099 52.9068C278.687 52.7511 278.372 52.5498 278.155 52.3032C277.943 52.0525 277.847 51.7662 277.868 51.4444C277.888 51.1268 278.02 50.8594 278.262 50.6423C278.509 50.4211 278.847 50.2618 279.275 50.1644C279.708 50.0629 280.208 50.0304 280.775 50.0668ZM280.715 50.9938C280.256 50.9643 279.896 50.9972 279.636 51.0925C279.376 51.1836 279.241 51.3301 279.233 51.5321C279.215 51.7378 279.329 51.9046 279.575 52.0324C279.826 52.1606 280.179 52.235 280.634 52.2556C281.097 52.294 281.461 52.2657 281.726 52.1706C281.99 52.0756 282.129 51.9251 282.142 51.7191C282.156 51.513 282.037 51.3481 281.786 51.2243C281.54 51.1007 281.183 51.0239 280.715 50.9938ZM276.723 53.3618C278.165 53.4545 279.505 53.5212 280.744 53.562C281.987 53.5988 283.164 53.5904 284.275 53.5368L284.282 54.4294C283.311 54.5178 282.296 54.5581 281.236 54.5504L281.184 55.368L286.27 55.6948L286.108 58.2184L279.657 57.8039L279.61 58.5378L286.395 58.9738L286.333 59.9395L278.144 59.4132L278.311 56.8124L284.749 57.2261L284.791 56.5694L278.328 56.1541L278.39 55.1884L279.755 55.2761L279.803 54.5294C278.951 54.5005 277.959 54.4497 276.826 54.3769L276.723 53.3618ZM286.298 55.257L284.869 55.1652L285.31 48.2897L286.74 48.3815L286.298 55.257ZM292.259 53.0414L289.529 52.866L289.441 54.2373C290.137 54.2733 290.756 54.2873 291.3 54.2791C291.844 54.2667 292.407 54.2231 292.989 54.1485L293.058 55.2906C292.406 55.3737 291.766 55.4166 291.136 55.4193C290.507 55.4176 289.716 55.3862 288.763 55.325L287.978 55.2745L288.206 51.7209L290.949 51.8971L291.029 50.6482L288.274 50.4711L288.347 49.3252L292.48 49.5908L292.259 53.0414ZM297.367 57.0414L296.002 56.9537L296.512 49.0224L297.877 49.1101L297.367 57.0414ZM295.074 55.9115L293.722 55.8246L293.918 52.7731L292.708 52.6953L292.781 51.5494L293.991 51.6272L294.154 49.1036L295.506 49.1905L295.074 55.9115ZM294.117 56.5094C294.089 56.9471 294.219 57.3757 294.507 57.7949C294.799 58.2145 295.225 58.5867 295.786 58.9114C296.347 59.2362 297.008 59.4748 297.77 59.6272L297.147 60.6731C296.241 60.4813 295.453 60.1678 294.783 59.7326C294.112 59.3016 293.615 58.787 293.292 58.1888C292.89 58.7404 292.329 59.1871 291.609 59.5286C290.889 59.8745 290.069 60.0847 289.151 60.1593L288.667 59.0422C289.437 58.9883 290.121 58.8383 290.719 58.5923C291.317 58.342 291.785 58.0273 292.124 57.6483C292.468 57.2653 292.656 56.855 292.688 56.4175L292.704 56.1729L294.133 56.2647L294.117 56.5094ZM307.803 61.4355L306.387 61.3445L306.792 55.0355L304.423 54.8833L304.199 58.3725L298.662 58.0167L299.172 50.0854L300.614 50.1781L300.428 53.0751L303.119 53.248L303.305 50.351L304.708 50.4412L304.498 53.7116L306.867 53.8638L307.135 49.6922L308.552 49.7832L307.803 61.4355ZM302.869 57.1364L303.047 54.3682L300.356 54.1953L300.178 56.9635L302.869 57.1364ZM318.658 62.1201L317.229 62.0283L317.61 56.1056L315.151 55.9476L315.226 54.7759L317.685 54.9339L317.977 50.3889L319.406 50.4807L318.658 62.1201ZM315.49 51.4702C315.408 52.6802 315.17 53.7746 314.775 54.7534C314.384 55.7324 313.776 56.6198 312.949 57.4157C312.127 58.2075 311.049 58.8817 309.716 59.4381L309.041 58.27C310.56 57.6435 311.709 56.8598 312.489 55.9187C313.269 54.9777 313.765 53.8416 313.975 52.5106L309.971 52.2533L310.044 51.1202L315.49 51.4702Z" fill="#111111"/>
<path d="M281.912 69.9673L283.093 70.0432L283.047 70.7552L281.866 70.6793L281.687 73.4733L280.831 73.4183L281.207 67.569L282.063 67.624L281.912 69.9673ZM279.594 68.8591L276.836 68.6818L276.685 71.0342L276.874 71.0463C277.622 71.0944 278.238 71.1159 278.721 71.1107C279.207 71.1057 279.69 71.0704 280.171 71.0048L280.226 71.7052C279.687 71.7761 279.143 71.8136 278.594 71.8175C278.045 71.8184 277.324 71.7902 276.432 71.7329L275.792 71.6917L276.034 67.9334L279.639 68.1651L279.594 68.8591ZM281.897 75.5593L276.435 75.2083L276.606 72.5405L277.463 72.5955L277.336 74.5693L281.941 74.8653L281.897 75.5593ZM284.366 69.5367L285.925 69.6369L286.004 68.4022L286.797 68.4531L286.552 72.2656L283.389 72.0623L283.634 68.2498L284.445 68.302L284.366 69.5367ZM285.804 71.5206L285.882 70.3039L284.323 70.2037L284.245 71.4204L285.804 71.5206ZM289.898 73.0145L289.087 72.9624L289.221 70.8714L288.275 70.8106L288.144 72.8475L287.351 72.7965L287.65 68.1459L288.443 68.1969L288.32 70.1076L289.266 70.1684L289.398 68.1135L290.21 68.1656L289.898 73.0145ZM289.691 76.2321L288.844 76.1776L288.977 74.1047L284.336 73.8064L284.38 73.1124L289.869 73.4651L289.691 76.2321ZM297.351 72.8056L296.504 72.7512L296.772 68.5783L297.619 68.6327L297.351 72.8056ZM297.208 75.1766L292.755 74.8905L292.705 75.6746L297.428 75.9781L297.385 76.645L291.833 76.2883L291.966 74.2153L296.4 74.5003L296.447 73.7792L291.985 73.4925L292.028 72.8346L297.336 73.1757L297.208 75.1766ZM293.851 69.5218C293.83 69.8493 293.893 70.1686 294.039 70.4796C294.185 70.7876 294.402 71.0671 294.691 71.3179C294.983 71.5659 295.33 71.7617 295.734 71.9054L295.278 72.5367C294.815 72.3651 294.419 72.124 294.089 71.8132C293.759 71.4994 293.515 71.1413 293.357 70.739C293.146 71.1598 292.85 71.5194 292.469 71.8177C292.091 72.1131 291.65 72.3217 291.148 72.4432L290.795 71.7418C291.214 71.642 291.585 71.4803 291.907 71.2567C292.23 71.03 292.484 70.7628 292.669 70.4549C292.855 70.1441 292.961 69.8145 292.986 69.4662L291.175 69.3498L291.219 68.6558L295.672 68.9419L295.627 69.6359L293.851 69.5218ZM307.359 76.3629L299.968 75.8879L300.014 75.1759L303.268 75.385L303.374 73.7266L300.968 73.572L301.235 69.4171L302.091 69.4721L302.002 70.8601L305.967 71.1149L306.057 69.7269L306.904 69.7814L306.637 73.9363L304.221 73.7811L304.115 75.4394L307.404 75.6508L307.359 76.3629ZM305.834 73.1879L305.923 71.8089L301.957 71.5541L301.868 72.933L305.834 73.1879ZM315.096 74.4075L311.833 74.1978L311.786 74.9369C312.537 75.0214 313.11 75.1924 313.504 75.45C313.901 75.7048 314.086 76.032 314.061 76.4315C314.042 76.7199 313.917 76.9577 313.684 77.1449C313.452 77.3351 313.124 77.4679 312.7 77.5432C312.278 77.6187 311.775 77.6361 311.189 77.5955C310.6 77.5606 310.099 77.4786 309.685 77.3495C309.274 77.2205 308.964 77.0467 308.754 76.8281C308.548 76.6128 308.454 76.3609 308.473 76.0724C308.498 75.6729 308.724 75.3722 309.151 75.1703C309.58 74.9656 310.176 74.8696 310.938 74.8824L310.986 74.1434L307.732 73.9343L307.776 73.2583L315.139 73.7315L315.096 74.4075ZM312.082 70.3313L314.605 70.4935L314.561 71.1785L312.092 71.0198C312.114 71.2776 312.241 71.518 312.471 71.741C312.704 71.9641 313.02 72.1564 313.42 72.3178C313.823 72.4765 314.286 72.5937 314.809 72.6696L314.506 73.3107C313.798 73.2019 313.185 73.0147 312.668 72.7492C312.155 72.4809 311.786 72.154 311.564 71.7687C311.291 72.1222 310.881 72.399 310.334 72.5992C309.79 72.7965 309.165 72.9042 308.458 72.9221L308.23 72.2468C308.755 72.2383 309.227 72.1811 309.644 72.0752C310.064 71.9664 310.402 71.8162 310.659 71.6246C310.919 71.4331 311.076 71.2109 311.132 70.9581L308.676 70.8003L308.72 70.1153L311.234 70.2769L311.284 69.5018L312.131 69.5562L312.082 70.3313ZM311.321 75.5406C310.7 75.5006 310.216 75.5314 309.872 75.6329C309.531 75.7347 309.353 75.8997 309.338 76.128C309.323 76.3564 309.479 76.5413 309.805 76.6829C310.13 76.8245 310.606 76.9124 311.231 76.9466C311.847 76.9921 312.325 76.9656 312.666 76.8668C313.01 76.7683 313.19 76.6048 313.204 76.3765C313.219 76.1482 313.062 75.9616 312.734 75.8168C312.408 75.6722 311.937 75.5801 311.321 75.5406ZM322.067 78.3126L321.247 78.2599L321.766 70.1844L322.586 70.2371L322.067 78.3126ZM320.452 77.8106L319.632 77.7579L319.882 73.8644L318.972 73.8059C318.914 74.3271 318.798 74.7751 318.623 75.15C318.448 75.5249 318.226 75.8078 317.958 75.9987C317.689 76.1866 317.39 76.2684 317.06 76.2441C316.711 76.2248 316.412 76.0909 316.162 75.8426C315.916 75.5945 315.734 75.251 315.618 74.8121C315.504 74.3704 315.466 73.8611 315.503 73.2843C315.54 72.7075 315.643 72.2088 315.812 71.7883C315.984 71.3679 316.208 71.052 316.484 70.8405C316.763 70.6261 317.077 70.5317 317.425 70.5571C317.75 70.5749 318.032 70.6911 318.271 70.9056C318.511 71.1171 318.694 71.4124 318.821 71.7916C318.951 72.1679 319.014 72.608 319.012 73.1116L319.927 73.1704L320.116 70.2322L320.936 70.2849L320.452 77.8106ZM317.374 71.3592C317.178 71.3466 317.005 71.4169 316.853 71.5701C316.702 71.7203 316.577 71.946 316.479 72.2475C316.385 72.5461 316.324 72.9087 316.296 73.3353C316.269 73.7619 316.283 74.1308 316.338 74.4421C316.397 74.7505 316.492 74.9904 316.622 75.1617C316.753 75.33 316.916 75.4204 317.112 75.433C317.31 75.4457 317.486 75.3771 317.641 75.2272C317.795 75.0742 317.922 74.8485 318.019 74.5501C318.117 74.2487 318.18 73.8847 318.207 73.4581C318.234 73.0315 318.219 72.6639 318.16 72.3555C318.102 72.044 318.006 71.804 317.872 71.6356C317.738 71.4641 317.572 71.3719 317.374 71.3592ZM329.018 73.9537L332.298 74.1645L332.254 74.8585L324.863 74.3836L324.908 73.6896L328.171 73.8992L328.227 73.016L329.075 73.0704L329.018 73.9537ZM331.777 71.7236L329.33 71.5664C329.36 71.7976 329.494 72.0189 329.73 72.2302C329.967 72.4385 330.282 72.6186 330.673 72.7704C331.065 72.9223 331.5 73.0302 331.978 73.0941L331.658 73.7161C331.183 73.6433 330.745 73.5307 330.344 73.3783C329.947 73.226 329.607 73.0398 329.326 72.8196C329.045 72.5964 328.843 72.3482 328.722 72.0749C328.564 72.3302 328.331 72.5505 328.024 72.7359C327.716 72.9183 327.354 73.0594 326.938 73.1593C326.521 73.2593 326.072 73.3149 325.592 73.3263L325.354 72.6684C325.83 72.6659 326.271 72.6142 326.676 72.5136C327.084 72.413 327.418 72.2747 327.68 72.0984C327.945 71.9194 328.107 71.7171 328.167 71.4917L325.747 71.3362L325.789 70.6782L331.819 71.0657L331.777 71.7236ZM331.445 76.4627L325.442 76.0769L325.485 75.419L328.062 75.5846L328.108 74.8726L328.955 74.9271L328.91 75.6391L331.487 75.8047L331.445 76.4627ZM328.413 76.6117C329.203 76.6625 329.805 76.7932 330.22 77.0039C330.638 77.2117 330.836 77.4884 330.814 77.8339C330.791 78.1824 330.559 78.4345 330.118 78.5901C329.68 78.746 329.065 78.7985 328.275 78.7477C327.488 78.6972 326.89 78.5667 326.481 78.3564C326.073 78.1461 325.879 77.8668 325.902 77.5183C325.924 77.1728 326.151 76.9234 326.583 76.7702C327.016 76.6139 327.625 76.5611 328.413 76.6117ZM328.375 77.1975C327.861 77.1645 327.468 77.18 327.195 77.2439C326.923 77.3048 326.783 77.415 326.776 77.5744C326.763 77.7365 326.888 77.8682 327.153 77.9697C327.418 78.0712 327.805 78.1353 328.313 78.1619C328.827 78.1979 329.22 78.1825 329.492 78.1155C329.768 78.0518 329.914 77.939 329.931 77.7771C329.942 77.4581 329.423 77.2649 328.375 77.1975ZM334.86 71.6322C335.259 71.6579 335.608 71.7964 335.906 72.0478C336.206 72.2994 336.43 72.6456 336.576 73.0864C336.726 73.5244 336.784 74.0274 336.751 74.5954C336.711 75.166 336.589 75.6605 336.384 76.0787C336.182 76.4941 335.916 76.8088 335.586 77.0229C335.259 77.2341 334.895 77.3269 334.496 77.3012C334.093 77.2754 333.743 77.1367 333.445 76.8853C333.148 76.6309 332.924 76.2847 332.774 75.8467C332.628 75.4059 332.574 74.9002 332.614 74.3296C332.648 73.7616 332.765 73.2699 332.967 72.8545C333.171 72.4392 333.437 72.126 333.765 71.9148C334.092 71.7005 334.457 71.6063 334.86 71.6322ZM334.811 72.3983C334.564 72.3824 334.341 72.4526 334.141 72.6086C333.944 72.7649 333.783 72.9959 333.658 73.3016C333.535 73.6045 333.461 73.9647 333.434 74.3823C333.407 74.8029 333.435 75.1727 333.517 75.4917C333.602 75.8109 333.732 76.0606 333.908 76.2408C334.086 76.4212 334.298 76.5193 334.545 76.5352C334.794 76.5512 335.019 76.4812 335.219 76.3251C335.419 76.169 335.58 75.938 335.702 75.6321C335.828 75.3265 335.904 74.9633 335.931 74.5427C335.958 74.1251 335.928 73.7582 335.843 73.442C335.761 73.123 335.631 72.8733 335.452 72.6929C335.274 72.5125 335.06 72.4143 334.811 72.3983ZM338.823 74.4571L340.121 74.5405L340.075 75.2615L338.777 75.1781L338.508 79.3691L337.651 79.3141L338.17 71.2386L339.027 71.2936L338.823 74.4571ZM347.279 78.9191L339.889 78.4442L339.934 77.7322L341.701 77.8457L341.836 75.7367C341.512 75.5288 341.266 75.2762 341.098 74.9788C340.93 74.6815 340.857 74.3555 340.88 74.001C340.907 73.5834 341.057 73.2235 341.33 72.9213C341.605 72.6192 341.974 72.3956 342.436 72.2503C342.898 72.102 343.416 72.0463 343.99 72.0831C344.567 72.1202 345.075 72.2418 345.514 72.448C345.956 72.6514 346.294 72.9205 346.525 73.2552C346.76 73.59 346.864 73.9662 346.838 74.3838C346.815 74.7353 346.705 75.0465 346.506 75.3173C346.308 75.5851 346.038 75.8016 345.695 75.9666L345.558 78.0936L347.325 78.2071L347.279 78.9191ZM343.946 72.7681C343.525 72.7411 343.149 72.7757 342.817 72.872C342.485 72.9654 342.222 73.1144 342.028 73.3191C341.834 73.5208 341.728 73.7659 341.709 74.0543C341.691 74.3397 341.765 74.5963 341.931 74.8242C342.098 75.0521 342.339 75.2366 342.656 75.3776C342.973 75.5156 343.342 75.5981 343.762 75.6252C344.18 75.652 344.555 75.6173 344.887 75.521C345.222 75.4218 345.488 75.27 345.685 75.0655C345.882 74.8609 345.99 74.616 346.008 74.3306C346.027 74.0451 345.951 73.7884 345.782 73.5603C345.616 73.3324 345.372 73.1509 345.052 73.0157C344.735 72.8777 344.366 72.7951 343.946 72.7681ZM344.693 78.038L344.809 76.24C344.476 76.3 344.113 76.3174 343.719 76.2921C343.341 76.2678 342.989 76.206 342.663 76.1066L342.548 77.9002L344.693 78.038Z" fill="#8C8C8C"/>
<path d="M278.456 88.5454L274.68 88.3027L274.905 84.7877L278.682 85.0304L278.456 88.5454ZM275.562 87.6626L277.662 87.7975L277.8 85.6615L275.7 85.5266L275.562 87.6626ZM280.847 86.5451L282.019 86.6204L281.974 87.3144L280.802 87.2391L280.673 89.258L279.816 89.203L280.115 84.5614L280.971 84.6164L280.847 86.5451ZM280.458 92.5927L275.303 92.2615L275.494 89.2962L280.649 89.6275L280.458 92.5927ZM276.186 91.6213L279.656 91.8443L279.758 90.2581L276.288 90.0351L276.186 91.6213ZM286.26 86.1057C286.233 86.5323 286.343 86.9556 286.59 87.3758C286.841 87.7961 287.184 88.1636 287.619 88.4781C288.055 88.7897 288.526 89.0085 289.034 89.1347L288.592 89.8212C288.168 89.7005 287.766 89.5208 287.387 89.2822C287.007 89.0436 286.672 88.7611 286.382 88.4348C286.096 88.1057 285.879 87.7494 285.731 87.3658C285.533 87.7241 285.271 88.0482 284.945 88.3379C284.622 88.6249 284.257 88.8623 283.849 89.0504C283.442 89.2384 283.019 89.3665 282.58 89.4349L282.247 88.6985C282.761 88.635 283.253 88.4766 283.721 88.2231C284.19 87.9667 284.573 87.6473 284.869 87.2652C285.168 86.8801 285.332 86.4743 285.359 86.0477L285.398 85.4349L286.3 85.4928L286.26 86.1057ZM289.173 92.1844L281.782 91.7095L281.828 90.9975L289.219 91.4724L289.173 92.1844ZM296.053 93.7125L295.206 93.6581L295.489 89.2508L293.884 89.1477L293.93 88.4447L295.534 88.5478L295.726 85.5645L296.573 85.619L296.053 93.7125ZM293.895 86.8678L290.984 86.6807L290.883 88.2489L293.452 88.414L293.408 89.099L290.839 88.9339L290.723 90.7365C291.472 90.7815 292.095 90.805 292.592 90.8068C293.09 90.8086 293.592 90.7821 294.1 90.7272L294.145 91.427C293.584 91.4814 293.025 91.5074 292.47 91.5049C291.919 91.5026 291.243 91.4788 290.443 91.4334L289.812 91.3929L290.163 85.9311L293.94 86.1738L293.895 86.8678ZM303.616 94.1804L302.76 94.1254L303.279 86.0499L304.135 86.1049L303.616 94.1804ZM300.318 88.4661C300.291 88.8927 300.352 89.3205 300.502 89.7495C300.653 90.1754 300.877 90.5639 301.174 90.9148C301.475 91.263 301.825 91.5374 302.225 91.7381L301.714 92.3659C301.265 92.1349 300.874 91.8096 300.542 91.39C300.213 90.9707 299.97 90.4981 299.814 89.9722C299.592 90.507 299.291 90.9733 298.909 91.3711C298.531 91.7691 298.102 92.0583 297.623 92.2387L297.188 91.5501C297.611 91.3933 297.991 91.1537 298.329 90.8315C298.666 90.5093 298.934 90.1374 299.134 89.7158C299.336 89.2944 299.451 88.8598 299.48 88.4122L299.514 87.8804L297.675 87.7623L297.719 87.0773L299.549 87.1949L299.627 85.9782L300.474 86.0326L300.396 87.2493L302.208 87.3657L302.164 88.0507L300.352 87.9343L300.318 88.4661Z" fill="#8C8C8C"/>
<path d="M310.487 93.8528L309.487 93.7885L309.842 88.2546L309.806 88.2523L308.182 89.1705L308.243 88.2242L309.933 87.2649L310.907 87.3275L310.487 93.8528ZM318.162 89.3503L319.343 89.4262L319.297 90.1382L318.116 90.0623L317.937 92.8563L317.08 92.8013L317.456 86.9519L318.312 87.007L318.162 89.3503ZM315.844 88.242L313.086 88.0648L312.935 90.4172L313.124 90.4293C313.872 90.4774 314.488 90.4989 314.971 90.4937C315.457 90.4887 315.94 90.4534 316.421 90.3878L316.475 91.0881C315.937 91.1591 315.393 91.1966 314.844 91.2005C314.295 91.2014 313.574 91.1732 312.682 91.1159L312.042 91.0747L312.283 87.3164L315.888 87.5481L315.844 88.242ZM318.146 94.9422L312.685 94.5913L312.856 91.9235L313.712 91.9785L313.585 93.9523L318.191 94.2483L318.146 94.9422ZM326.645 92.1218L323.382 91.9121L323.327 92.7773L325.688 92.9291L325.524 95.4887L319.945 95.1302L320.109 92.5706L322.48 92.7229L322.535 91.8576L319.282 91.6486L319.326 90.9636L326.689 91.4368L326.645 92.1218ZM326.183 88.472L325.011 88.3967L324.912 89.9379L326.048 90.0109L326.003 90.7049L320.082 90.3244L320.126 89.6304L321.271 89.7039L321.37 88.1627L320.189 88.0869L320.234 87.3929L326.227 87.778L326.183 88.472ZM320.836 94.4907L324.739 94.7414L324.815 93.5517L320.913 93.301L320.836 94.4907ZM324.056 89.8829L324.155 88.3417L322.217 88.2172L322.118 89.7584L324.056 89.8829ZM329.242 92.5601C329.355 90.9384 329.892 89.5279 330.853 88.3287L331.737 88.3855C331.507 88.6754 331.283 89.0532 331.067 89.5189C330.85 89.9816 330.666 90.4872 330.517 91.0357C330.367 91.5811 330.276 92.1107 330.242 92.6244C330.209 93.1412 330.232 93.6811 330.31 94.2442C330.389 94.8044 330.506 95.3277 330.662 95.8144C330.818 96.304 330.991 96.7088 331.181 97.0288L330.298 96.972C329.498 95.6597 329.146 94.189 329.242 92.5601ZM331.851 94.5016L334.26 92.3667C334.551 92.0959 334.775 91.878 334.931 91.713C335.086 91.548 335.206 91.3853 335.292 91.2249C335.381 91.0617 335.431 90.8884 335.443 90.7052C335.457 90.4949 335.416 90.3067 335.321 90.1408C335.226 89.9748 335.09 89.8423 334.912 89.7434C334.735 89.6445 334.532 89.5877 334.303 89.5731C334.066 89.5578 333.854 89.5925 333.668 89.677C333.481 89.7616 333.333 89.8878 333.222 90.0557C333.115 90.2237 333.054 90.4219 333.039 90.6503L332.102 90.59C332.124 90.1993 332.237 89.8596 332.439 89.5709C332.642 89.2823 332.912 89.0659 333.25 88.9217C333.588 88.7775 333.963 88.7186 334.375 88.745C334.789 88.7717 335.152 88.8765 335.463 89.0593C335.777 89.2394 336.015 89.4764 336.178 89.7704C336.34 90.0644 336.411 90.3873 336.391 90.739C336.372 90.9881 336.309 91.2254 336.201 91.4507C336.093 91.6731 335.917 91.9182 335.674 92.1861C335.431 92.451 335.09 92.773 334.653 93.1522L333.241 94.4099L333.238 94.464L336.248 94.6575L336.194 95.5047L331.804 95.2226L331.851 94.5016ZM336.769 93.4601L339.939 89.1931L341.165 89.2719L340.881 93.6882L341.773 93.7455L341.719 94.5837L340.827 94.5264L340.746 95.7972L339.808 95.7369L339.89 94.4661L336.717 94.2623L336.769 93.4601ZM339.944 93.6279L340.152 90.3923L340.08 90.3877L337.82 93.4372L337.817 93.4913L339.944 93.6279ZM344.643 96.1381C344.198 96.1095 343.796 95.9856 343.436 95.7664C343.079 95.5444 342.797 95.1929 342.589 94.712C342.385 94.2313 342.307 93.6079 342.357 92.8418C342.405 92.0937 342.548 91.4589 342.787 90.9373C343.029 90.4128 343.349 90.0231 343.749 89.7683C344.151 89.5136 344.614 89.403 345.137 89.4366C345.527 89.4617 345.874 89.5609 346.176 89.7342C346.482 89.9047 346.724 90.1314 346.902 90.4143C347.08 90.6973 347.183 91.0131 347.212 91.3619L346.23 91.2988C346.181 91.0181 346.057 90.7869 345.858 90.6052C345.658 90.4234 345.4 90.3223 345.081 90.3019C344.748 90.2804 344.455 90.3566 344.202 90.5304C343.953 90.7015 343.754 90.9602 343.605 91.3066C343.456 91.65 343.366 92.065 343.335 92.5517L343.407 92.5563C343.602 92.2913 343.85 92.0901 344.151 91.9526C344.456 91.8153 344.785 91.758 345.14 91.7808C345.524 91.8055 345.871 91.9213 346.181 92.1282C346.491 92.3322 346.728 92.6038 346.893 92.9433C347.059 93.2797 347.128 93.6522 347.102 94.0608C347.075 94.4784 346.955 94.8507 346.741 95.1779C346.527 95.502 346.238 95.7504 345.874 95.9231C345.51 96.0958 345.099 96.1675 344.643 96.1381ZM344.669 95.3072C344.927 95.3238 345.166 95.2773 345.384 95.1676C345.602 95.0579 345.778 94.9018 345.912 94.6993C346.045 94.4967 346.12 94.2692 346.136 94.0168C346.152 93.7705 346.108 93.5399 346.004 93.3251C345.901 93.1103 345.749 92.9361 345.549 92.8026C345.353 92.6693 345.127 92.5945 344.871 92.578C344.61 92.5613 344.367 92.609 344.143 92.7213C343.922 92.8307 343.741 92.9866 343.601 93.1888C343.465 93.3881 343.387 93.6079 343.369 93.8481C343.357 94.0886 343.404 94.3179 343.51 94.5359C343.617 94.7539 343.771 94.9328 343.974 95.0725C344.179 95.2123 344.411 95.2906 344.669 95.3072ZM351.474 98.4323C351.065 98.4061 350.708 98.3243 350.403 98.1871C350.101 98.05 349.866 97.866 349.697 97.6349C349.531 97.404 349.442 97.1374 349.431 96.835L350.414 96.8981C350.444 97.1263 350.557 97.304 350.751 97.4311C350.944 97.5612 351.205 97.6368 351.532 97.6578C351.929 97.6833 352.243 97.6145 352.473 97.4513C352.704 97.2881 352.831 97.0203 352.855 96.6478L352.917 95.6834L352.854 95.6793C352.716 95.8967 352.534 96.0796 352.308 96.2279C352.084 96.3735 351.774 96.4335 351.377 96.408C350.99 96.3831 350.646 96.266 350.346 96.0566C350.048 95.8475 349.823 95.5539 349.669 95.176C349.515 94.7981 349.455 94.3568 349.487 93.8521C349.52 93.3443 349.635 92.9113 349.833 92.553C350.034 92.1919 350.296 91.9236 350.618 91.7482C350.943 91.573 351.304 91.4981 351.7 91.5236C351.98 91.5416 352.21 91.6031 352.39 91.7082C352.573 91.8105 352.712 91.925 352.807 92.0517C352.901 92.1755 352.989 92.3153 353.069 92.4713L353.132 92.4754L353.183 91.6823L354.121 91.7425L353.799 96.7446C353.773 97.1502 353.657 97.4836 353.45 97.7448C353.243 98.0061 352.97 98.1921 352.631 98.3031C352.292 98.4171 351.906 98.4601 351.474 98.4323ZM351.645 95.6288C352.053 95.655 352.378 95.5341 352.618 95.266C352.859 94.9949 352.996 94.6054 353.028 94.0977C353.05 93.7642 353.019 93.4696 352.936 93.2139C352.853 92.9582 352.719 92.7565 352.536 92.609C352.352 92.4584 352.125 92.3745 351.855 92.3571C351.579 92.3393 351.34 92.3964 351.138 92.5282C350.937 92.6571 350.78 92.8446 350.667 93.0908C350.555 93.334 350.489 93.6148 350.469 93.9332C350.448 94.2547 350.478 94.5402 350.558 94.7897C350.642 95.0364 350.776 95.2335 350.959 95.3811C351.143 95.5286 351.371 95.6112 351.645 95.6288ZM356.697 94.3244C356.584 95.9522 356.046 97.3657 355.085 98.5649L354.202 98.5081C354.432 98.2152 354.656 97.8359 354.873 97.3702C355.089 96.9075 355.273 96.4034 355.422 95.8579C355.572 95.3095 355.664 94.7769 355.697 94.2602C355.73 93.7464 355.707 93.2095 355.628 92.6494C355.55 92.0862 355.433 91.5614 355.277 91.0747C355.122 90.5851 354.948 90.1818 354.758 89.8648L355.641 89.9216C356.44 91.2339 356.793 92.7016 356.697 94.3244Z" fill="#434343"/>
<path d="M273.116 103.062C273.209 101.606 274.466 100.501 275.922 100.595L301.512 102.239C302.968 102.333 304.073 103.589 303.979 105.046L303.379 114.384C303.285 115.84 302.029 116.945 300.573 116.852L274.983 115.207C273.527 115.114 272.422 113.857 272.516 112.401L273.116 103.062Z" fill="black" fill-opacity="0.1"/>
<path d="M283.723 112.153L282.962 112.104L283.212 108.212L282.283 108.153L282.056 111.684L281.311 111.637L281.757 104.699L282.502 104.746L282.324 107.508L283.253 107.568L283.443 104.605L284.205 104.654L283.723 112.153ZM280.963 105.404C280.889 106.475 280.612 107.412 280.131 108.216C279.651 109.017 278.888 109.671 277.841 110.178L277.417 109.596C278.249 109.193 278.884 108.693 279.32 108.097C279.756 107.497 280.032 106.801 280.147 106.007L277.976 105.867L278.018 105.215L280.963 105.404ZM290.932 110.566L290.136 110.515L290.487 105.066L291.282 105.117L290.932 110.566ZM291.036 112.463L285.906 112.134L286.063 109.698L286.866 109.75L286.751 111.541L291.078 111.819L291.036 112.463ZM287.182 105.358C287.556 105.382 287.888 105.483 288.179 105.662C288.473 105.84 288.698 106.076 288.852 106.369C289.01 106.662 289.077 106.987 289.054 107.344C289.031 107.707 288.922 108.025 288.728 108.298C288.537 108.569 288.285 108.774 287.97 108.913C287.659 109.05 287.316 109.106 286.943 109.082C286.569 109.058 286.235 108.959 285.941 108.783C285.647 108.604 285.421 108.367 285.264 108.071C285.106 107.775 285.039 107.447 285.062 107.088C285.085 106.731 285.194 106.417 285.388 106.146C285.581 105.876 285.836 105.671 286.15 105.531C286.464 105.392 286.808 105.334 287.182 105.358ZM287.137 106.053C286.906 106.038 286.693 106.075 286.5 106.163C286.31 106.249 286.156 106.376 286.038 106.545C285.921 106.714 285.855 106.912 285.841 107.138C285.826 107.369 285.864 107.578 285.956 107.763C286.051 107.945 286.187 108.091 286.365 108.201C286.546 108.31 286.753 108.373 286.987 108.388C287.216 108.402 287.426 108.367 287.616 108.281C287.806 108.195 287.96 108.067 288.078 107.895C288.195 107.723 288.261 107.523 288.276 107.294C288.29 107.071 288.25 106.868 288.156 106.686C288.061 106.5 287.923 106.353 287.743 106.243C287.565 106.131 287.363 106.067 287.137 106.053ZM298.903 109.918L292.066 109.479L292.107 108.834L293.747 108.94L293.812 107.931C293.527 107.793 293.312 107.625 293.168 107.428C293.027 107.228 292.964 107.007 292.98 106.764C292.998 106.471 293.122 106.227 293.35 106.032C293.581 105.834 293.901 105.692 294.31 105.606C294.722 105.521 295.201 105.495 295.748 105.53C296.295 105.566 296.765 105.652 297.16 105.789C297.555 105.927 297.854 106.108 298.058 106.334C298.262 106.558 298.355 106.816 298.336 107.109C298.32 107.354 298.226 107.567 298.055 107.746C297.887 107.923 297.653 108.061 297.352 108.159L297.287 109.167L298.945 109.274L298.903 109.918ZM295.447 110.209C295.986 110.243 296.444 110.325 296.822 110.453C297.204 110.581 297.491 110.752 297.684 110.966C297.878 111.177 297.966 111.424 297.948 111.706C297.929 111.993 297.811 112.229 297.591 112.414C297.375 112.602 297.069 112.735 296.675 112.813C296.281 112.891 295.814 112.913 295.276 112.879C294.732 112.844 294.268 112.762 293.884 112.634C293.503 112.505 293.215 112.334 293.022 112.12C292.828 111.909 292.741 111.66 292.759 111.372C292.777 111.09 292.896 110.857 293.115 110.672C293.334 110.485 293.641 110.352 294.036 110.274C294.433 110.195 294.903 110.174 295.447 110.209ZM295.408 110.82C294.833 110.783 294.386 110.817 294.065 110.923C293.745 111.028 293.577 111.195 293.563 111.424C293.547 111.658 293.692 111.85 293.996 111.998C294.303 112.144 294.743 112.234 295.315 112.268C295.881 112.31 296.324 112.276 296.645 112.168C296.969 112.06 297.138 111.889 297.153 111.655C297.168 111.426 297.021 111.239 296.714 111.093C296.41 110.947 295.974 110.856 295.408 110.82ZM295.709 106.141C295.324 106.117 294.988 106.127 294.702 106.173C294.42 106.217 294.2 106.294 294.045 106.404C293.889 106.515 293.808 106.652 293.8 106.817C293.786 106.982 293.85 107.128 293.99 107.258C294.13 107.385 294.338 107.488 294.613 107.567C294.888 107.646 295.219 107.698 295.607 107.723C296.19 107.761 296.649 107.722 296.984 107.606C297.322 107.49 297.499 107.307 297.516 107.056C297.526 106.889 297.462 106.741 297.321 106.615C297.181 106.485 296.973 106.381 296.698 106.302C296.424 106.22 296.094 106.166 295.709 106.141ZM296.501 109.117L296.552 108.318C296.248 108.346 295.92 108.348 295.568 108.326C295.234 108.304 294.911 108.261 294.602 108.196L294.551 108.991L296.501 109.117Z" fill="#8C8C8C"/>
<rect x="271.922" y="121.63" width="154.577" height="0.660584" transform="rotate(3.67683 271.922 121.63)" fill="#D9D9D9"/>
<path d="M307.454 134.877C308.068 134.92 308.611 135.053 309.081 135.278C309.555 135.499 309.917 135.792 310.169 136.157C310.42 136.519 310.531 136.927 310.502 137.381C310.475 137.806 310.335 138.177 310.082 138.493C309.832 138.807 309.493 139.05 309.065 139.223C308.64 139.393 308.156 139.483 307.613 139.493L307.503 141.193L311.028 141.419L310.979 142.182L303.061 141.673L303.11 140.911L306.596 141.135L306.705 139.435C306.17 139.355 305.703 139.204 305.304 138.981C304.905 138.755 304.6 138.471 304.389 138.127C304.182 137.781 304.092 137.396 304.119 136.971C304.148 136.517 304.311 136.127 304.607 135.8C304.902 135.47 305.298 135.225 305.793 135.066C306.288 134.904 306.842 134.841 307.454 134.877ZM307.405 135.63C306.964 135.599 306.564 135.636 306.205 135.742C305.85 135.846 305.566 136.01 305.354 136.236C305.143 136.458 305.027 136.722 305.008 137.028C304.987 137.346 305.067 137.631 305.248 137.882C305.429 138.133 305.69 138.334 306.029 138.485C306.368 138.636 306.76 138.727 307.204 138.759C307.652 138.785 308.054 138.744 308.409 138.638C308.769 138.532 309.054 138.366 309.266 138.14C309.477 137.915 309.593 137.642 309.614 137.324C309.633 137.018 309.553 136.741 309.371 136.494C309.19 136.243 308.928 136.043 308.586 135.895C308.243 135.744 307.85 135.656 307.405 135.63ZM318.703 137.801L312.764 137.42L312.93 134.832L313.828 134.889L313.71 136.734L318.751 137.058L318.703 137.801ZM319.534 139.358L311.615 138.849L311.662 138.115L319.581 138.624L319.534 139.358ZM318.358 142.104L313.337 141.781L313.286 142.583L318.606 142.924L318.56 143.649L312.322 143.248L312.463 141.046L317.494 141.369L317.541 140.645L312.49 140.321L312.536 139.606L318.494 139.989L318.358 142.104ZM323.024 135.975C323.475 136.001 323.873 136.112 324.219 136.309C324.565 136.505 324.828 136.768 325.007 137.096C325.19 137.421 325.27 137.784 325.248 138.183C325.219 138.582 325.093 138.933 324.87 139.235C324.65 139.534 324.356 139.761 323.988 139.915C323.619 140.066 323.21 140.127 322.759 140.098C322.308 140.069 321.908 139.956 321.559 139.759C321.213 139.559 320.949 139.297 320.766 138.971C320.583 138.643 320.507 138.279 320.535 137.88C320.558 137.481 320.681 137.132 320.903 136.832C321.126 136.53 321.422 136.303 321.791 136.152C322.162 136.002 322.573 135.943 323.024 135.975ZM322.973 136.767C322.693 136.749 322.438 136.786 322.21 136.878C321.984 136.966 321.802 137.103 321.664 137.289C321.53 137.471 321.456 137.687 321.443 137.939C321.424 138.189 321.469 138.415 321.579 138.616C321.692 138.814 321.855 138.973 322.067 139.094C322.283 139.211 322.53 139.279 322.81 139.297C323.09 139.315 323.343 139.279 323.569 139.19C323.798 139.098 323.981 138.961 324.119 138.78C324.257 138.594 324.334 138.376 324.35 138.125C324.366 137.874 324.317 137.65 324.204 137.452C324.091 137.251 323.927 137.091 323.711 136.974C323.499 136.854 323.253 136.785 322.973 136.767ZM326.842 144.307L325.925 144.248L326.482 135.576L327.399 135.635L326.842 144.307ZM319.904 141.224C320.972 141.292 321.971 141.339 322.901 141.363C323.833 141.384 324.724 141.362 325.571 141.297L325.596 141.968C324.723 142.08 323.839 142.129 322.944 142.117C322.053 142.105 321.062 142.064 319.971 141.994L319.904 141.224ZM333.877 137.302C333.848 137.701 333.907 138.088 334.054 138.463C334.205 138.835 334.434 139.169 334.741 139.467C335.048 139.765 335.416 140 335.845 140.173L335.335 140.867C334.85 140.662 334.434 140.378 334.085 140.016C333.74 139.652 333.484 139.236 333.317 138.769C333.089 139.249 332.776 139.661 332.379 140.004C331.986 140.344 331.529 140.587 331.009 140.735L330.591 139.991C331.042 139.861 331.44 139.659 331.784 139.384C332.131 139.109 332.404 138.787 332.602 138.418C332.801 138.046 332.913 137.654 332.94 137.242L332.993 136.412L333.93 136.472L333.877 137.302ZM337.427 144.968L336.51 144.909L336.658 142.611L331.714 142.293L331.761 141.549L337.623 141.926L337.427 144.968ZM337.65 141.511L336.732 141.452L337.066 136.257L337.983 136.316L337.65 141.511ZM342.019 138.786C341.983 139.294 342.041 139.802 342.192 140.309C342.344 140.814 342.571 141.273 342.875 141.687C343.181 142.097 343.54 142.419 343.952 142.653L343.335 143.35C342.887 143.079 342.499 142.703 342.171 142.223C341.846 141.743 341.606 141.204 341.451 140.606C341.214 141.218 340.895 141.757 340.494 142.222C340.095 142.684 339.645 143.026 339.143 143.245L338.621 142.465C339.069 142.284 339.475 142 339.839 141.613C340.207 141.226 340.501 140.779 340.721 140.273C340.941 139.767 341.067 139.251 341.101 138.727L341.196 137.249L342.114 137.308L342.019 138.786ZM345.676 140.271L347.066 140.361L347.016 141.143L345.625 141.054L345.341 145.476L344.424 145.417L344.98 136.765L345.897 136.824L345.676 140.271ZM354.394 146.058L353.516 146.002L354.072 137.349L354.95 137.406L354.394 146.058ZM352.664 145.52L351.785 145.464L352.054 141.292L351.078 141.23C351.016 141.788 350.892 142.268 350.704 142.67C350.517 143.071 350.279 143.374 349.992 143.579C349.704 143.78 349.383 143.868 349.029 143.842C348.656 143.821 348.335 143.678 348.068 143.412C347.804 143.146 347.609 142.778 347.484 142.308C347.363 141.834 347.322 141.289 347.362 140.671C347.401 140.053 347.512 139.518 347.692 139.068C347.877 138.617 348.116 138.279 348.412 138.052C348.711 137.823 349.048 137.721 349.421 137.749C349.769 137.768 350.071 137.892 350.328 138.122C350.585 138.349 350.781 138.665 350.916 139.071C351.055 139.475 351.124 139.946 351.121 140.486L352.101 140.549L352.304 137.401L353.182 137.457L352.664 145.52ZM349.366 138.608C349.156 138.595 348.971 138.67 348.808 138.834C348.646 138.995 348.512 139.237 348.407 139.56C348.306 139.88 348.241 140.268 348.211 140.725C348.182 141.182 348.197 141.578 348.256 141.911C348.319 142.242 348.421 142.499 348.561 142.682C348.701 142.863 348.876 142.959 349.085 142.973C349.298 142.987 349.486 142.913 349.652 142.752C349.818 142.588 349.953 142.347 350.057 142.027C350.162 141.704 350.229 141.314 350.259 140.857C350.288 140.4 350.271 140.006 350.208 139.676C350.146 139.342 350.043 139.085 349.899 138.904C349.756 138.72 349.578 138.622 349.366 138.608ZM365.576 144.081L362.08 143.856L361.907 146.551L360.999 146.492L361.172 143.798L357.686 143.574L357.735 142.821L365.624 143.328L365.576 144.081ZM365.091 139.851L362.359 139.676C362.354 139.992 362.478 140.307 362.729 140.621C362.981 140.934 363.326 141.212 363.767 141.453C364.207 141.692 364.694 141.862 365.227 141.964L364.852 142.677C364.163 142.536 363.549 142.294 363.012 141.953C362.475 141.608 362.081 141.206 361.829 140.747C361.521 141.173 361.076 141.521 360.497 141.791C359.92 142.061 359.279 142.222 358.575 142.274L358.284 141.518C358.829 141.485 359.335 141.379 359.803 141.199C360.27 141.019 360.65 140.791 360.942 140.516C361.235 140.237 361.401 139.937 361.441 139.617L358.699 139.441L358.746 138.697L361.489 138.873L361.556 137.83L362.464 137.889L362.397 138.932L365.139 139.108L365.091 139.851ZM372.937 142.023L374.279 142.11L374.23 142.872L372.888 142.786L372.603 147.219L371.686 147.16L372.241 138.517L373.159 138.576L372.937 142.023ZM370.841 139.338C370.749 140.658 370.353 141.822 369.651 142.83C368.95 143.839 367.895 144.637 366.487 145.226L366.021 144.478C367.137 144.007 368.015 143.401 368.654 142.66C369.296 141.919 369.697 141.046 369.855 140.041L366.755 139.842L366.804 139.079L370.841 139.338Z" fill="#434343"/>
</g>
<defs>
<filter id="filter0_d_413_1810" x="115.454" y="-0.257824" width="138.855" height="145.139" filterUnits="userSpaceOnUse" color-interpolation-filters="sRGB">
<feFlood flood-opacity="0" result="BackgroundImageFix"/>
<feColorMatrix in="SourceAlpha" type="matrix" values="0 0 0 0 0 0 0 0 0 0 0 0 0 0 0 0 0 0 127 0" result="hardAlpha"/>
<feOffset dx="2.31887" dy="2.31887"/>
<feGaussianBlur stdDeviation="1.93239"/>
<feComposite in2="hardAlpha" operator="out"/>
<feColorMatrix type="matrix" values="0 0 0 0 0 0 0 0 0 0 0 0 0 0 0 0 0 0 0.15 0"/>
<feBlend mode="normal" in2="BackgroundImageFix" result="effect1_dropShadow_413_1810"/>
<feBlend mode="normal" in="SourceGraphic" in2="effect1_dropShadow_413_1810" result="shape"/>
</filter>
<filter id="filter1_d_413_1810" x="-29.5449" y="15.7427" width="140.363" height="146.565" filterUnits="userSpaceOnUse" color-interpolation-filters="sRGB">
<feFlood flood-opacity="0" result="BackgroundImageFix"/>
<feColorMatrix in="SourceAlpha" type="matrix" values="0 0 0 0 0 0 0 0 0 0 0 0 0 0 0 0 0 0 127 0" result="hardAlpha"/>
<feOffset dx="2.31887" dy="2.31887"/>
<feGaussianBlur stdDeviation="1.93239"/>
<feComposite in2="hardAlpha" operator="out"/>
<feColorMatrix type="matrix" values="0 0 0 0 0 0 0 0 0 0 0 0 0 0 0 0 0 0 0.1 0"/>
<feBlend mode="normal" in2="BackgroundImageFix" result="effect1_dropShadow_413_1810"/>
<feBlend mode="normal" in="SourceGraphic" in2="effect1_dropShadow_413_1810" result="shape"/>
</filter>
<filter id="filter2_d_413_1810" x="255.15" y="10.1116" width="197.411" height="160.232" filterUnits="userSpaceOnUse" color-interpolation-filters="sRGB">
<feFlood flood-opacity="0" result="BackgroundImageFix"/>
<feColorMatrix in="SourceAlpha" type="matrix" values="0 0 0 0 0 0 0 0 0 0 0 0 0 0 0 0 0 0 127 0" result="hardAlpha"/>
<feOffset dx="2.31887" dy="2.31887"/>
<feGaussianBlur stdDeviation="1.93239"/>
<feComposite in2="hardAlpha" operator="out"/>
<feColorMatrix type="matrix" values="0 0 0 0 0 0 0 0 0 0 0 0 0 0 0 0 0 0 0.1 0"/>
<feBlend mode="normal" in2="BackgroundImageFix" result="effect1_dropShadow_413_1810"/>
<feBlend mode="normal" in="SourceGraphic" in2="effect1_dropShadow_413_1810" result="shape"/>
</filter>
<clipPath id="clip0_413_1810">
<rect width="46.3773" height="46.3773" fill="white" transform="translate(41.8979 95.5618) rotate(3.1295)"/>
</clipPath>
</defs>
</svg>
