<svg width="24" height="24" viewBox="0 0 24 24" fill="none" xmlns="http://www.w3.org/2000/svg">
<path fill-rule="evenodd" clip-rule="evenodd" d="M6.18735 3.86407C8.10496 2.49416 10.4446 1.84497 12.7938 2.03204C15.1431 2.21918 17.3515 3.23026 19.0282 4.88653C20.7046 6.54275 21.742 8.73806 21.9579 11.0848C22.1737 13.4316 21.5533 15.7794 20.2069 17.7137C18.8605 19.6479 16.8742 21.0446 14.5985 21.657C12.3228 22.2694 9.90369 22.0585 7.7684 21.0613C7.41801 20.9284 7.03738 20.8966 6.66977 20.9695L3.25668 21.9676C3.09206 22.0113 2.91883 22.0115 2.75375 21.9695C2.58874 21.9276 2.43707 21.8443 2.31332 21.7274C2.18963 21.6104 2.09793 21.4639 2.04672 21.3016C1.99554 21.1392 1.98612 20.9664 2.02035 20.7996L3.08578 17.5096C3.17153 17.12 3.13896 16.7134 2.99203 16.3426C1.96886 14.2197 1.72783 11.8033 2.31235 9.52032C2.89698 7.23724 4.26967 5.23402 6.18735 3.86407ZM7.99985 10.9998C7.44773 10.9999 7.00003 11.4477 6.99985 11.9998C6.99985 12.5521 7.44762 12.9997 7.99985 12.9998H8.00961C8.5619 12.9998 9.00961 12.5521 9.00961 11.9998C9.00943 11.4477 8.56178 10.9998 8.00961 10.9998H7.99985ZM11.9998 10.9998C11.4477 10.9999 11 11.4477 10.9998 11.9998C10.9998 12.5521 11.4476 12.9997 11.9998 12.9998H12.0096C12.5619 12.9998 13.0096 12.5521 13.0096 11.9998C13.0094 11.4477 12.5618 10.9998 12.0096 10.9998H11.9998ZM15.9998 10.9998C15.4477 10.9999 15 11.4477 14.9998 11.9998C14.9998 12.5521 15.4476 12.9997 15.9998 12.9998H16.0096C16.5619 12.9998 17.0096 12.5521 17.0096 11.9998C17.0094 11.4477 16.5618 10.9998 16.0096 10.9998H15.9998Z" fill="#FF7700"/>
</svg>
