<svg width="24" height="24" viewBox="0 0 24 24" fill="none" xmlns="http://www.w3.org/2000/svg">
<path d="M6.1875 3.86377C8.10512 2.49387 10.4447 1.84467 12.7939 2.03174C15.1433 2.21888 17.3517 3.22996 19.0283 4.88623C20.7048 6.54245 21.7422 8.73776 21.958 11.0845C22.1738 13.4313 21.5535 15.7791 20.207 17.7134C18.8606 19.6476 16.8743 21.0443 14.5986 21.6567C12.3229 22.2691 9.90384 22.0582 7.76855 21.061C7.41817 20.9281 7.03754 20.8963 6.66992 20.9692L3.25684 21.9673C3.09221 22.011 2.91898 22.0112 2.75391 21.9692C2.5889 21.9273 2.43723 21.844 2.31348 21.7271C2.18978 21.6101 2.09809 21.4636 2.04688 21.3013C1.99569 21.1389 1.98627 20.9661 2.02051 20.7993L3.08594 17.5093C3.17169 17.1197 3.13911 16.7131 2.99219 16.3423C1.96901 14.2194 1.72799 11.803 2.3125 9.52002C2.89713 7.23694 4.26982 5.23373 6.1875 3.86377ZM8 10.9995C7.44789 10.9996 7.00018 11.4474 7 11.9995C7 12.5518 7.44777 12.9994 8 12.9995H8.00977C8.56205 12.9995 9.00977 12.5518 9.00977 11.9995C9.00958 11.4474 8.56194 10.9995 8.00977 10.9995H8ZM12 10.9995C11.4479 10.9996 11.0002 11.4474 11 11.9995C11 12.5518 11.4478 12.9994 12 12.9995H12.0098C12.5621 12.9995 13.0098 12.5518 13.0098 11.9995C13.0096 11.4474 12.5619 10.9995 12.0098 10.9995H12ZM16 10.9995C15.4479 10.9996 15.0002 11.4474 15 11.9995C15 12.5518 15.4478 12.9994 16 12.9995H16.0098C16.5621 12.9995 17.0098 12.5518 17.0098 11.9995C17.0096 11.4474 16.5619 10.9995 16.0098 10.9995H16Z" fill="#BFBFBF"/>
</svg>
