<svg width="24" height="24" viewBox="0 0 24 24" fill="none" xmlns="http://www.w3.org/2000/svg">
<path d="M5 2C7.20914 2 9 3.79086 9 6C9 7.86384 7.72523 9.42998 6 9.87402V16C6 16.2652 6.10543 16.5195 6.29297 16.707C6.48051 16.8946 6.73478 17 7 17H9.58594L8.29297 15.707C7.90244 15.3165 7.90244 14.6835 8.29297 14.293C8.68349 13.9024 9.31651 13.9024 9.70703 14.293L12.707 17.293C12.7548 17.3408 12.7976 17.3935 12.835 17.4502C12.8597 17.4877 12.8812 17.5266 12.9004 17.5664C12.9222 17.6116 12.9412 17.6584 12.9561 17.707C12.9623 17.7273 12.9668 17.748 12.9717 17.7686C12.9893 17.8429 13 17.9202 13 18C13 18.1552 12.9635 18.3016 12.9004 18.4326C12.8936 18.4468 12.8864 18.4607 12.8789 18.4746C12.851 18.5262 12.8184 18.5745 12.7822 18.6201C12.7586 18.6498 12.7345 18.6796 12.707 18.707L9.70703 21.707C9.31653 22.0975 8.6835 22.0975 8.29297 21.707C7.90244 21.3165 7.90244 20.6835 8.29297 20.293L9.58594 19H7C6.20435 19 5.44151 18.6837 4.87891 18.1211C4.3163 17.5585 4 16.7956 4 16V9.87402C2.27477 9.42998 1 7.86384 1 6C1 3.79086 2.79086 2 5 2ZM14.293 2.29297C14.6835 1.90244 15.3165 1.90244 15.707 2.29297C16.0974 2.68351 16.0975 3.31656 15.707 3.70703L14.4141 5H17C17.7957 5 18.5585 5.3163 19.1211 5.87891C19.6837 6.44151 20 7.20439 20 8V14.126C21.7252 14.57 23 16.1362 23 18C23 20.2091 21.2091 22 19 22C16.7909 22 15 20.2091 15 18C15 16.1362 16.2748 14.57 18 14.126V8C18 7.73482 17.8945 7.4805 17.707 7.29297C17.5195 7.10543 17.2652 7 17 7H14.4141L15.707 8.29297C16.0974 8.6835 16.0975 9.31656 15.707 9.70703C15.3166 10.0974 14.6835 10.0974 14.293 9.70703L11.293 6.70703C11.2619 6.67594 11.2342 6.64233 11.208 6.6084C11.1942 6.59051 11.1805 6.57253 11.168 6.55371C11.142 6.51474 11.1196 6.4741 11.0996 6.43262C11.0777 6.38706 11.0579 6.34009 11.043 6.29102C11.0379 6.27431 11.0344 6.25713 11.0303 6.24023C11.0113 6.16322 11 6.08289 11 6C11 5.92035 11.0097 5.84283 11.0273 5.76855C11.0322 5.74802 11.0368 5.72728 11.043 5.70703C11.0579 5.6583 11.0778 5.61166 11.0996 5.56641C11.1197 5.52471 11.1418 5.48349 11.168 5.44434C11.2045 5.38975 11.2467 5.33924 11.293 5.29297L14.293 2.29297Z" fill="#FF7700"/>
</svg>
